%TF.GenerationSoftware,KiCad,Pcbnew,(5.99.0-10772-g6919d12c70)*%
%TF.CreationDate,2021-08-04T17:25:00+12:00*%
%TF.ProjectId,ProMicroKeypad,50726f4d-6963-4726-9f4b-65797061642e,rev?*%
%TF.SameCoordinates,Original*%
%TF.FileFunction,Legend,Top*%
%TF.FilePolarity,Positive*%
%FSLAX46Y46*%
G04 Gerber Fmt 4.6, Leading zero omitted, Abs format (unit mm)*
G04 Created by KiCad (PCBNEW (5.99.0-10772-g6919d12c70)) date 2021-08-04 17:25:00*
%MOMM*%
%LPD*%
G01*
G04 APERTURE LIST*
%ADD10C,0.100000*%
%ADD11C,0.150000*%
%ADD12C,0.300000*%
%ADD13C,0.400000*%
%TA.AperFunction,Profile*%
%ADD14C,0.100000*%
%TD*%
%ADD15C,0.120000*%
%ADD16R,1.600000X1.600000*%
%ADD17C,1.600000*%
G04 APERTURE END LIST*
D10*
D11*
X177002200Y-166007200D02*
X177002200Y-198007200D01*
X285002200Y-198007200D01*
X285002200Y-166007200D01*
X177002200Y-166007200D01*
D10*
D11*
X10000000Y-10000000D02*
X10000000Y-200007200D01*
X287002200Y-200007200D01*
X287002200Y-10000000D01*
X10000000Y-10000000D01*
D10*
D11*
X12000000Y-12000000D02*
X12000000Y-198007200D01*
X285002200Y-198007200D01*
X285002200Y-12000000D01*
X12000000Y-12000000D01*
D10*
D11*
X60000000Y-12000000D02*
X60000000Y-10000000D01*
D10*
D11*
X110000000Y-12000000D02*
X110000000Y-10000000D01*
D10*
D11*
X160000000Y-12000000D02*
X160000000Y-10000000D01*
D10*
D11*
X210000000Y-12000000D02*
X210000000Y-10000000D01*
D10*
D11*
X260000000Y-12000000D02*
X260000000Y-10000000D01*
D10*
D11*
X36065476Y-11588095D02*
X35322619Y-11588095D01*
X35694047Y-11588095D02*
X35694047Y-10288095D01*
X35570238Y-10473809D01*
X35446428Y-10597619D01*
X35322619Y-10659523D01*
D10*
D11*
X85322619Y-10411904D02*
X85384523Y-10350000D01*
X85508333Y-10288095D01*
X85817857Y-10288095D01*
X85941666Y-10350000D01*
X86003571Y-10411904D01*
X86065476Y-10535714D01*
X86065476Y-10659523D01*
X86003571Y-10845238D01*
X85260714Y-11588095D01*
X86065476Y-11588095D01*
D10*
D11*
X135260714Y-10288095D02*
X136065476Y-10288095D01*
X135632142Y-10783333D01*
X135817857Y-10783333D01*
X135941666Y-10845238D01*
X136003571Y-10907142D01*
X136065476Y-11030952D01*
X136065476Y-11340476D01*
X136003571Y-11464285D01*
X135941666Y-11526190D01*
X135817857Y-11588095D01*
X135446428Y-11588095D01*
X135322619Y-11526190D01*
X135260714Y-11464285D01*
D10*
D11*
X185941666Y-10721428D02*
X185941666Y-11588095D01*
X185632142Y-10226190D02*
X185322619Y-11154761D01*
X186127380Y-11154761D01*
D10*
D11*
X236003571Y-10288095D02*
X235384523Y-10288095D01*
X235322619Y-10907142D01*
X235384523Y-10845238D01*
X235508333Y-10783333D01*
X235817857Y-10783333D01*
X235941666Y-10845238D01*
X236003571Y-10907142D01*
X236065476Y-11030952D01*
X236065476Y-11340476D01*
X236003571Y-11464285D01*
X235941666Y-11526190D01*
X235817857Y-11588095D01*
X235508333Y-11588095D01*
X235384523Y-11526190D01*
X235322619Y-11464285D01*
D10*
D11*
X285941666Y-10288095D02*
X285694047Y-10288095D01*
X285570238Y-10350000D01*
X285508333Y-10411904D01*
X285384523Y-10597619D01*
X285322619Y-10845238D01*
X285322619Y-11340476D01*
X285384523Y-11464285D01*
X285446428Y-11526190D01*
X285570238Y-11588095D01*
X285817857Y-11588095D01*
X285941666Y-11526190D01*
X286003571Y-11464285D01*
X286065476Y-11340476D01*
X286065476Y-11030952D01*
X286003571Y-10907142D01*
X285941666Y-10845238D01*
X285817857Y-10783333D01*
X285570238Y-10783333D01*
X285446428Y-10845238D01*
X285384523Y-10907142D01*
X285322619Y-11030952D01*
D10*
D11*
X60000000Y-198007200D02*
X60000000Y-200007200D01*
D10*
D11*
X110000000Y-198007200D02*
X110000000Y-200007200D01*
D10*
D11*
X160000000Y-198007200D02*
X160000000Y-200007200D01*
D10*
D11*
X210000000Y-198007200D02*
X210000000Y-200007200D01*
D10*
D11*
X260000000Y-198007200D02*
X260000000Y-200007200D01*
D10*
D11*
X36065476Y-199595295D02*
X35322619Y-199595295D01*
X35694047Y-199595295D02*
X35694047Y-198295295D01*
X35570238Y-198481009D01*
X35446428Y-198604819D01*
X35322619Y-198666723D01*
D10*
D11*
X85322619Y-198419104D02*
X85384523Y-198357200D01*
X85508333Y-198295295D01*
X85817857Y-198295295D01*
X85941666Y-198357200D01*
X86003571Y-198419104D01*
X86065476Y-198542914D01*
X86065476Y-198666723D01*
X86003571Y-198852438D01*
X85260714Y-199595295D01*
X86065476Y-199595295D01*
D10*
D11*
X135260714Y-198295295D02*
X136065476Y-198295295D01*
X135632142Y-198790533D01*
X135817857Y-198790533D01*
X135941666Y-198852438D01*
X136003571Y-198914342D01*
X136065476Y-199038152D01*
X136065476Y-199347676D01*
X136003571Y-199471485D01*
X135941666Y-199533390D01*
X135817857Y-199595295D01*
X135446428Y-199595295D01*
X135322619Y-199533390D01*
X135260714Y-199471485D01*
D10*
D11*
X185941666Y-198728628D02*
X185941666Y-199595295D01*
X185632142Y-198233390D02*
X185322619Y-199161961D01*
X186127380Y-199161961D01*
D10*
D11*
X236003571Y-198295295D02*
X235384523Y-198295295D01*
X235322619Y-198914342D01*
X235384523Y-198852438D01*
X235508333Y-198790533D01*
X235817857Y-198790533D01*
X235941666Y-198852438D01*
X236003571Y-198914342D01*
X236065476Y-199038152D01*
X236065476Y-199347676D01*
X236003571Y-199471485D01*
X235941666Y-199533390D01*
X235817857Y-199595295D01*
X235508333Y-199595295D01*
X235384523Y-199533390D01*
X235322619Y-199471485D01*
D10*
D11*
X285941666Y-198295295D02*
X285694047Y-198295295D01*
X285570238Y-198357200D01*
X285508333Y-198419104D01*
X285384523Y-198604819D01*
X285322619Y-198852438D01*
X285322619Y-199347676D01*
X285384523Y-199471485D01*
X285446428Y-199533390D01*
X285570238Y-199595295D01*
X285817857Y-199595295D01*
X285941666Y-199533390D01*
X286003571Y-199471485D01*
X286065476Y-199347676D01*
X286065476Y-199038152D01*
X286003571Y-198914342D01*
X285941666Y-198852438D01*
X285817857Y-198790533D01*
X285570238Y-198790533D01*
X285446428Y-198852438D01*
X285384523Y-198914342D01*
X285322619Y-199038152D01*
D10*
D11*
X10000000Y-60000000D02*
X12000000Y-60000000D01*
D10*
D11*
X10000000Y-110000000D02*
X12000000Y-110000000D01*
D10*
D11*
X10000000Y-160000000D02*
X12000000Y-160000000D01*
D10*
D11*
X10690476Y-35216666D02*
X11309523Y-35216666D01*
X10566666Y-35588095D02*
X11000000Y-34288095D01*
X11433333Y-35588095D01*
D10*
D11*
X11092857Y-84907142D02*
X11278571Y-84969047D01*
X11340476Y-85030952D01*
X11402380Y-85154761D01*
X11402380Y-85340476D01*
X11340476Y-85464285D01*
X11278571Y-85526190D01*
X11154761Y-85588095D01*
X10659523Y-85588095D01*
X10659523Y-84288095D01*
X11092857Y-84288095D01*
X11216666Y-84350000D01*
X11278571Y-84411904D01*
X11340476Y-84535714D01*
X11340476Y-84659523D01*
X11278571Y-84783333D01*
X11216666Y-84845238D01*
X11092857Y-84907142D01*
X10659523Y-84907142D01*
D10*
D11*
X11402380Y-135464285D02*
X11340476Y-135526190D01*
X11154761Y-135588095D01*
X11030952Y-135588095D01*
X10845238Y-135526190D01*
X10721428Y-135402380D01*
X10659523Y-135278571D01*
X10597619Y-135030952D01*
X10597619Y-134845238D01*
X10659523Y-134597619D01*
X10721428Y-134473809D01*
X10845238Y-134350000D01*
X11030952Y-134288095D01*
X11154761Y-134288095D01*
X11340476Y-134350000D01*
X11402380Y-134411904D01*
D10*
D11*
X10659523Y-185588095D02*
X10659523Y-184288095D01*
X10969047Y-184288095D01*
X11154761Y-184350000D01*
X11278571Y-184473809D01*
X11340476Y-184597619D01*
X11402380Y-184845238D01*
X11402380Y-185030952D01*
X11340476Y-185278571D01*
X11278571Y-185402380D01*
X11154761Y-185526190D01*
X10969047Y-185588095D01*
X10659523Y-185588095D01*
D10*
D11*
X287002200Y-60000000D02*
X285002200Y-60000000D01*
D10*
D11*
X287002200Y-110000000D02*
X285002200Y-110000000D01*
D10*
D11*
X287002200Y-160000000D02*
X285002200Y-160000000D01*
D10*
D11*
X285692676Y-35216666D02*
X286311723Y-35216666D01*
X285568866Y-35588095D02*
X286002200Y-34288095D01*
X286435533Y-35588095D01*
D10*
D11*
X286095057Y-84907142D02*
X286280771Y-84969047D01*
X286342676Y-85030952D01*
X286404580Y-85154761D01*
X286404580Y-85340476D01*
X286342676Y-85464285D01*
X286280771Y-85526190D01*
X286156961Y-85588095D01*
X285661723Y-85588095D01*
X285661723Y-84288095D01*
X286095057Y-84288095D01*
X286218866Y-84350000D01*
X286280771Y-84411904D01*
X286342676Y-84535714D01*
X286342676Y-84659523D01*
X286280771Y-84783333D01*
X286218866Y-84845238D01*
X286095057Y-84907142D01*
X285661723Y-84907142D01*
D10*
D11*
X286404580Y-135464285D02*
X286342676Y-135526190D01*
X286156961Y-135588095D01*
X286033152Y-135588095D01*
X285847438Y-135526190D01*
X285723628Y-135402380D01*
X285661723Y-135278571D01*
X285599819Y-135030952D01*
X285599819Y-134845238D01*
X285661723Y-134597619D01*
X285723628Y-134473809D01*
X285847438Y-134350000D01*
X286033152Y-134288095D01*
X286156961Y-134288095D01*
X286342676Y-134350000D01*
X286404580Y-134411904D01*
D10*
D11*
X285661723Y-185588095D02*
X285661723Y-184288095D01*
X285971247Y-184288095D01*
X286156961Y-184350000D01*
X286280771Y-184473809D01*
X286342676Y-184597619D01*
X286404580Y-184845238D01*
X286404580Y-185030952D01*
X286342676Y-185278571D01*
X286280771Y-185402380D01*
X286156961Y-185526190D01*
X285971247Y-185588095D01*
X285661723Y-185588095D01*
D10*
D11*
X200434342Y-193785771D02*
X200434342Y-192285771D01*
X200791485Y-192285771D01*
X201005771Y-192357200D01*
X201148628Y-192500057D01*
X201220057Y-192642914D01*
X201291485Y-192928628D01*
X201291485Y-193142914D01*
X201220057Y-193428628D01*
X201148628Y-193571485D01*
X201005771Y-193714342D01*
X200791485Y-193785771D01*
X200434342Y-193785771D01*
X202577200Y-193785771D02*
X202577200Y-193000057D01*
X202505771Y-192857200D01*
X202362914Y-192785771D01*
X202077200Y-192785771D01*
X201934342Y-192857200D01*
X202577200Y-193714342D02*
X202434342Y-193785771D01*
X202077200Y-193785771D01*
X201934342Y-193714342D01*
X201862914Y-193571485D01*
X201862914Y-193428628D01*
X201934342Y-193285771D01*
X202077200Y-193214342D01*
X202434342Y-193214342D01*
X202577200Y-193142914D01*
X203077200Y-192785771D02*
X203648628Y-192785771D01*
X203291485Y-192285771D02*
X203291485Y-193571485D01*
X203362914Y-193714342D01*
X203505771Y-193785771D01*
X203648628Y-193785771D01*
X204720057Y-193714342D02*
X204577200Y-193785771D01*
X204291485Y-193785771D01*
X204148628Y-193714342D01*
X204077200Y-193571485D01*
X204077200Y-193000057D01*
X204148628Y-192857200D01*
X204291485Y-192785771D01*
X204577200Y-192785771D01*
X204720057Y-192857200D01*
X204791485Y-193000057D01*
X204791485Y-193142914D01*
X204077200Y-193285771D01*
X205434342Y-193642914D02*
X205505771Y-193714342D01*
X205434342Y-193785771D01*
X205362914Y-193714342D01*
X205434342Y-193642914D01*
X205434342Y-193785771D01*
X205434342Y-192857200D02*
X205505771Y-192928628D01*
X205434342Y-193000057D01*
X205362914Y-192928628D01*
X205434342Y-192857200D01*
X205434342Y-193000057D01*
D10*
D11*
X177002200Y-194507200D02*
X285002200Y-194507200D01*
D10*
D11*
X178434342Y-196585771D02*
X178434342Y-195085771D01*
X179291485Y-196585771D02*
X178648628Y-195728628D01*
X179291485Y-195085771D02*
X178434342Y-195942914D01*
X179934342Y-196585771D02*
X179934342Y-195585771D01*
X179934342Y-195085771D02*
X179862914Y-195157200D01*
X179934342Y-195228628D01*
X180005771Y-195157200D01*
X179934342Y-195085771D01*
X179934342Y-195228628D01*
X181505771Y-196442914D02*
X181434342Y-196514342D01*
X181220057Y-196585771D01*
X181077200Y-196585771D01*
X180862914Y-196514342D01*
X180720057Y-196371485D01*
X180648628Y-196228628D01*
X180577200Y-195942914D01*
X180577200Y-195728628D01*
X180648628Y-195442914D01*
X180720057Y-195300057D01*
X180862914Y-195157200D01*
X181077200Y-195085771D01*
X181220057Y-195085771D01*
X181434342Y-195157200D01*
X181505771Y-195228628D01*
X182791485Y-196585771D02*
X182791485Y-195800057D01*
X182720057Y-195657200D01*
X182577200Y-195585771D01*
X182291485Y-195585771D01*
X182148628Y-195657200D01*
X182791485Y-196514342D02*
X182648628Y-196585771D01*
X182291485Y-196585771D01*
X182148628Y-196514342D01*
X182077200Y-196371485D01*
X182077200Y-196228628D01*
X182148628Y-196085771D01*
X182291485Y-196014342D01*
X182648628Y-196014342D01*
X182791485Y-195942914D01*
X184148628Y-196585771D02*
X184148628Y-195085771D01*
X184148628Y-196514342D02*
X184005771Y-196585771D01*
X183720057Y-196585771D01*
X183577200Y-196514342D01*
X183505771Y-196442914D01*
X183434342Y-196300057D01*
X183434342Y-195871485D01*
X183505771Y-195728628D01*
X183577200Y-195657200D01*
X183720057Y-195585771D01*
X184005771Y-195585771D01*
X184148628Y-195657200D01*
X186005771Y-195800057D02*
X186505771Y-195800057D01*
X186720057Y-196585771D02*
X186005771Y-196585771D01*
X186005771Y-195085771D01*
X186720057Y-195085771D01*
X187362914Y-196442914D02*
X187434342Y-196514342D01*
X187362914Y-196585771D01*
X187291485Y-196514342D01*
X187362914Y-196442914D01*
X187362914Y-196585771D01*
X188077200Y-196585771D02*
X188077200Y-195085771D01*
X188434342Y-195085771D01*
X188648628Y-195157200D01*
X188791485Y-195300057D01*
X188862914Y-195442914D01*
X188934342Y-195728628D01*
X188934342Y-195942914D01*
X188862914Y-196228628D01*
X188791485Y-196371485D01*
X188648628Y-196514342D01*
X188434342Y-196585771D01*
X188077200Y-196585771D01*
X189577200Y-196442914D02*
X189648628Y-196514342D01*
X189577200Y-196585771D01*
X189505771Y-196514342D01*
X189577200Y-196442914D01*
X189577200Y-196585771D01*
X190220057Y-196157200D02*
X190934342Y-196157200D01*
X190077200Y-196585771D02*
X190577200Y-195085771D01*
X191077200Y-196585771D01*
X191577200Y-196442914D02*
X191648628Y-196514342D01*
X191577200Y-196585771D01*
X191505771Y-196514342D01*
X191577200Y-196442914D01*
X191577200Y-196585771D01*
X194577200Y-196585771D02*
X194577200Y-195085771D01*
X194720057Y-196014342D02*
X195148628Y-196585771D01*
X195148628Y-195585771D02*
X194577200Y-196157200D01*
X195791485Y-196585771D02*
X195791485Y-195585771D01*
X195791485Y-195085771D02*
X195720057Y-195157200D01*
X195791485Y-195228628D01*
X195862914Y-195157200D01*
X195791485Y-195085771D01*
X195791485Y-195228628D01*
X197148628Y-196514342D02*
X197005771Y-196585771D01*
X196720057Y-196585771D01*
X196577200Y-196514342D01*
X196505771Y-196442914D01*
X196434342Y-196300057D01*
X196434342Y-195871485D01*
X196505771Y-195728628D01*
X196577200Y-195657200D01*
X196720057Y-195585771D01*
X197005771Y-195585771D01*
X197148628Y-195657200D01*
X198434342Y-196585771D02*
X198434342Y-195800057D01*
X198362914Y-195657200D01*
X198220057Y-195585771D01*
X197934342Y-195585771D01*
X197791485Y-195657200D01*
X198434342Y-196514342D02*
X198291485Y-196585771D01*
X197934342Y-196585771D01*
X197791485Y-196514342D01*
X197720057Y-196371485D01*
X197720057Y-196228628D01*
X197791485Y-196085771D01*
X197934342Y-196014342D01*
X198291485Y-196014342D01*
X198434342Y-195942914D01*
X199791485Y-196585771D02*
X199791485Y-195085771D01*
X199791485Y-196514342D02*
X199648628Y-196585771D01*
X199362914Y-196585771D01*
X199220057Y-196514342D01*
X199148628Y-196442914D01*
X199077200Y-196300057D01*
X199077200Y-195871485D01*
X199148628Y-195728628D01*
X199220057Y-195657200D01*
X199362914Y-195585771D01*
X199648628Y-195585771D01*
X199791485Y-195657200D01*
X202077200Y-197157200D02*
X202005771Y-197085771D01*
X201862914Y-196871485D01*
X201791485Y-196728628D01*
X201720057Y-196514342D01*
X201648628Y-196157200D01*
X201648628Y-195871485D01*
X201720057Y-195514342D01*
X201791485Y-195300057D01*
X201862914Y-195157200D01*
X202005771Y-194942914D01*
X202077200Y-194871485D01*
X203362914Y-195085771D02*
X202648628Y-195085771D01*
X202577200Y-195800057D01*
X202648628Y-195728628D01*
X202791485Y-195657200D01*
X203148628Y-195657200D01*
X203291485Y-195728628D01*
X203362914Y-195800057D01*
X203434342Y-195942914D01*
X203434342Y-196300057D01*
X203362914Y-196442914D01*
X203291485Y-196514342D01*
X203148628Y-196585771D01*
X202791485Y-196585771D01*
X202648628Y-196514342D01*
X202577200Y-196442914D01*
X204077200Y-196442914D02*
X204148628Y-196514342D01*
X204077200Y-196585771D01*
X204005771Y-196514342D01*
X204077200Y-196442914D01*
X204077200Y-196585771D01*
X204862914Y-196585771D02*
X205148628Y-196585771D01*
X205291485Y-196514342D01*
X205362914Y-196442914D01*
X205505771Y-196228628D01*
X205577200Y-195942914D01*
X205577200Y-195371485D01*
X205505771Y-195228628D01*
X205434342Y-195157200D01*
X205291485Y-195085771D01*
X205005771Y-195085771D01*
X204862914Y-195157200D01*
X204791485Y-195228628D01*
X204720057Y-195371485D01*
X204720057Y-195728628D01*
X204791485Y-195871485D01*
X204862914Y-195942914D01*
X205005771Y-196014342D01*
X205291485Y-196014342D01*
X205434342Y-195942914D01*
X205505771Y-195871485D01*
X205577200Y-195728628D01*
X206291485Y-196585771D02*
X206577200Y-196585771D01*
X206720057Y-196514342D01*
X206791485Y-196442914D01*
X206934342Y-196228628D01*
X207005771Y-195942914D01*
X207005771Y-195371485D01*
X206934342Y-195228628D01*
X206862914Y-195157200D01*
X206720057Y-195085771D01*
X206434342Y-195085771D01*
X206291485Y-195157200D01*
X206220057Y-195228628D01*
X206148628Y-195371485D01*
X206148628Y-195728628D01*
X206220057Y-195871485D01*
X206291485Y-195942914D01*
X206434342Y-196014342D01*
X206720057Y-196014342D01*
X206862914Y-195942914D01*
X206934342Y-195871485D01*
X207005771Y-195728628D01*
X207648628Y-196442914D02*
X207720057Y-196514342D01*
X207648628Y-196585771D01*
X207577200Y-196514342D01*
X207648628Y-196442914D01*
X207648628Y-196585771D01*
X208648628Y-195085771D02*
X208791485Y-195085771D01*
X208934342Y-195157200D01*
X209005771Y-195228628D01*
X209077200Y-195371485D01*
X209148628Y-195657200D01*
X209148628Y-196014342D01*
X209077200Y-196300057D01*
X209005771Y-196442914D01*
X208934342Y-196514342D01*
X208791485Y-196585771D01*
X208648628Y-196585771D01*
X208505771Y-196514342D01*
X208434342Y-196442914D01*
X208362914Y-196300057D01*
X208291485Y-196014342D01*
X208291485Y-195657200D01*
X208362914Y-195371485D01*
X208434342Y-195228628D01*
X208505771Y-195157200D01*
X208648628Y-195085771D01*
X209791485Y-196014342D02*
X210934342Y-196014342D01*
X212434342Y-196585771D02*
X211577200Y-196585771D01*
X212005771Y-196585771D02*
X212005771Y-195085771D01*
X211862914Y-195300057D01*
X211720057Y-195442914D01*
X211577200Y-195514342D01*
X213362914Y-195085771D02*
X213505771Y-195085771D01*
X213648628Y-195157200D01*
X213720057Y-195228628D01*
X213791485Y-195371485D01*
X213862914Y-195657200D01*
X213862914Y-196014342D01*
X213791485Y-196300057D01*
X213720057Y-196442914D01*
X213648628Y-196514342D01*
X213505771Y-196585771D01*
X213362914Y-196585771D01*
X213220057Y-196514342D01*
X213148628Y-196442914D01*
X213077200Y-196300057D01*
X213005771Y-196014342D01*
X213005771Y-195657200D01*
X213077200Y-195371485D01*
X213148628Y-195228628D01*
X213220057Y-195157200D01*
X213362914Y-195085771D01*
X214362914Y-195085771D02*
X215362914Y-195085771D01*
X214720057Y-196585771D01*
X215791485Y-195085771D02*
X216791485Y-195085771D01*
X216148628Y-196585771D01*
X217291485Y-195228628D02*
X217362914Y-195157200D01*
X217505771Y-195085771D01*
X217862914Y-195085771D01*
X218005771Y-195157200D01*
X218077200Y-195228628D01*
X218148628Y-195371485D01*
X218148628Y-195514342D01*
X218077200Y-195728628D01*
X217220057Y-196585771D01*
X218148628Y-196585771D01*
X218791485Y-196014342D02*
X219934342Y-196014342D01*
X221291485Y-195585771D02*
X221291485Y-196800057D01*
X221220057Y-196942914D01*
X221148628Y-197014342D01*
X221005771Y-197085771D01*
X220791485Y-197085771D01*
X220648628Y-197014342D01*
X221291485Y-196514342D02*
X221148628Y-196585771D01*
X220862914Y-196585771D01*
X220720057Y-196514342D01*
X220648628Y-196442914D01*
X220577200Y-196300057D01*
X220577200Y-195871485D01*
X220648628Y-195728628D01*
X220720057Y-195657200D01*
X220862914Y-195585771D01*
X221148628Y-195585771D01*
X221291485Y-195657200D01*
X222648628Y-195085771D02*
X222362914Y-195085771D01*
X222220057Y-195157200D01*
X222148628Y-195228628D01*
X222005771Y-195442914D01*
X221934342Y-195728628D01*
X221934342Y-196300057D01*
X222005771Y-196442914D01*
X222077200Y-196514342D01*
X222220057Y-196585771D01*
X222505771Y-196585771D01*
X222648628Y-196514342D01*
X222720057Y-196442914D01*
X222791485Y-196300057D01*
X222791485Y-195942914D01*
X222720057Y-195800057D01*
X222648628Y-195728628D01*
X222505771Y-195657200D01*
X222220057Y-195657200D01*
X222077200Y-195728628D01*
X222005771Y-195800057D01*
X221934342Y-195942914D01*
X223505771Y-196585771D02*
X223791485Y-196585771D01*
X223934342Y-196514342D01*
X224005771Y-196442914D01*
X224148628Y-196228628D01*
X224220057Y-195942914D01*
X224220057Y-195371485D01*
X224148628Y-195228628D01*
X224077200Y-195157200D01*
X223934342Y-195085771D01*
X223648628Y-195085771D01*
X223505771Y-195157200D01*
X223434342Y-195228628D01*
X223362914Y-195371485D01*
X223362914Y-195728628D01*
X223434342Y-195871485D01*
X223505771Y-195942914D01*
X223648628Y-196014342D01*
X223934342Y-196014342D01*
X224077200Y-195942914D01*
X224148628Y-195871485D01*
X224220057Y-195728628D01*
X225648628Y-196585771D02*
X224791485Y-196585771D01*
X225220057Y-196585771D02*
X225220057Y-195085771D01*
X225077200Y-195300057D01*
X224934342Y-195442914D01*
X224791485Y-195514342D01*
X226362914Y-196585771D02*
X226648628Y-196585771D01*
X226791485Y-196514342D01*
X226862914Y-196442914D01*
X227005771Y-196228628D01*
X227077199Y-195942914D01*
X227077199Y-195371485D01*
X227005771Y-195228628D01*
X226934342Y-195157200D01*
X226791485Y-195085771D01*
X226505771Y-195085771D01*
X226362914Y-195157200D01*
X226291485Y-195228628D01*
X226220057Y-195371485D01*
X226220057Y-195728628D01*
X226291485Y-195871485D01*
X226362914Y-195942914D01*
X226505771Y-196014342D01*
X226791485Y-196014342D01*
X226934342Y-195942914D01*
X227005771Y-195871485D01*
X227077199Y-195728628D01*
X228362914Y-196585771D02*
X228362914Y-195085771D01*
X228362914Y-196514342D02*
X228220057Y-196585771D01*
X227934342Y-196585771D01*
X227791485Y-196514342D01*
X227720057Y-196442914D01*
X227648628Y-196300057D01*
X227648628Y-195871485D01*
X227720057Y-195728628D01*
X227791485Y-195657200D01*
X227934342Y-195585771D01*
X228220057Y-195585771D01*
X228362914Y-195657200D01*
X229862914Y-196585771D02*
X229005771Y-196585771D01*
X229434342Y-196585771D02*
X229434342Y-195085771D01*
X229291485Y-195300057D01*
X229148628Y-195442914D01*
X229005771Y-195514342D01*
X230434342Y-195228628D02*
X230505771Y-195157200D01*
X230648628Y-195085771D01*
X231005771Y-195085771D01*
X231148628Y-195157200D01*
X231220057Y-195228628D01*
X231291485Y-195371485D01*
X231291485Y-195514342D01*
X231220057Y-195728628D01*
X230362914Y-196585771D01*
X231291485Y-196585771D01*
X232577199Y-196514342D02*
X232434342Y-196585771D01*
X232148628Y-196585771D01*
X232005771Y-196514342D01*
X231934342Y-196442914D01*
X231862914Y-196300057D01*
X231862914Y-195871485D01*
X231934342Y-195728628D01*
X232005771Y-195657200D01*
X232148628Y-195585771D01*
X232434342Y-195585771D01*
X232577199Y-195657200D01*
X233077199Y-195085771D02*
X234077199Y-195085771D01*
X233434342Y-196585771D01*
X234934342Y-195085771D02*
X235077199Y-195085771D01*
X235220057Y-195157200D01*
X235291485Y-195228628D01*
X235362914Y-195371485D01*
X235434342Y-195657200D01*
X235434342Y-196014342D01*
X235362914Y-196300057D01*
X235291485Y-196442914D01*
X235220057Y-196514342D01*
X235077199Y-196585771D01*
X234934342Y-196585771D01*
X234791485Y-196514342D01*
X234720057Y-196442914D01*
X234648628Y-196300057D01*
X234577199Y-196014342D01*
X234577199Y-195657200D01*
X234648628Y-195371485D01*
X234720057Y-195228628D01*
X234791485Y-195157200D01*
X234934342Y-195085771D01*
X235934342Y-197157200D02*
X236005771Y-197085771D01*
X236148628Y-196871485D01*
X236220057Y-196728628D01*
X236291485Y-196514342D01*
X236362914Y-196157200D01*
X236362914Y-195871485D01*
X236291485Y-195514342D01*
X236220057Y-195300057D01*
X236148628Y-195157200D01*
X236005771Y-194942914D01*
X235934342Y-194871485D01*
D10*
D11*
X177002200Y-191507200D02*
X285002200Y-191507200D01*
D10*
D12*
X264411485Y-193785771D02*
X263911485Y-193071485D01*
X263554342Y-193785771D02*
X263554342Y-192285771D01*
X264125771Y-192285771D01*
X264268628Y-192357200D01*
X264340057Y-192428628D01*
X264411485Y-192571485D01*
X264411485Y-192785771D01*
X264340057Y-192928628D01*
X264268628Y-193000057D01*
X264125771Y-193071485D01*
X263554342Y-193071485D01*
X265625771Y-193714342D02*
X265482914Y-193785771D01*
X265197200Y-193785771D01*
X265054342Y-193714342D01*
X264982914Y-193571485D01*
X264982914Y-193000057D01*
X265054342Y-192857200D01*
X265197200Y-192785771D01*
X265482914Y-192785771D01*
X265625771Y-192857200D01*
X265697200Y-193000057D01*
X265697200Y-193142914D01*
X264982914Y-193285771D01*
X266197200Y-192785771D02*
X266554342Y-193785771D01*
X266911485Y-192785771D01*
X267482914Y-193642914D02*
X267554342Y-193714342D01*
X267482914Y-193785771D01*
X267411485Y-193714342D01*
X267482914Y-193642914D01*
X267482914Y-193785771D01*
X267482914Y-192857200D02*
X267554342Y-192928628D01*
X267482914Y-193000057D01*
X267411485Y-192928628D01*
X267482914Y-192857200D01*
X267482914Y-193000057D01*
D10*
D11*
X178362914Y-193714342D02*
X178577200Y-193785771D01*
X178934342Y-193785771D01*
X179077200Y-193714342D01*
X179148628Y-193642914D01*
X179220057Y-193500057D01*
X179220057Y-193357200D01*
X179148628Y-193214342D01*
X179077200Y-193142914D01*
X178934342Y-193071485D01*
X178648628Y-193000057D01*
X178505771Y-192928628D01*
X178434342Y-192857200D01*
X178362914Y-192714342D01*
X178362914Y-192571485D01*
X178434342Y-192428628D01*
X178505771Y-192357200D01*
X178648628Y-192285771D01*
X179005771Y-192285771D01*
X179220057Y-192357200D01*
X179862914Y-193785771D02*
X179862914Y-192785771D01*
X179862914Y-192285771D02*
X179791485Y-192357200D01*
X179862914Y-192428628D01*
X179934342Y-192357200D01*
X179862914Y-192285771D01*
X179862914Y-192428628D01*
X180434342Y-192785771D02*
X181220057Y-192785771D01*
X180434342Y-193785771D01*
X181220057Y-193785771D01*
X182362914Y-193714342D02*
X182220057Y-193785771D01*
X181934342Y-193785771D01*
X181791485Y-193714342D01*
X181720057Y-193571485D01*
X181720057Y-193000057D01*
X181791485Y-192857200D01*
X181934342Y-192785771D01*
X182220057Y-192785771D01*
X182362914Y-192857200D01*
X182434342Y-193000057D01*
X182434342Y-193142914D01*
X181720057Y-193285771D01*
X183077200Y-193642914D02*
X183148628Y-193714342D01*
X183077200Y-193785771D01*
X183005771Y-193714342D01*
X183077200Y-193642914D01*
X183077200Y-193785771D01*
X183077200Y-192857200D02*
X183148628Y-192928628D01*
X183077200Y-193000057D01*
X183005771Y-192928628D01*
X183077200Y-192857200D01*
X183077200Y-193000057D01*
X184862914Y-193357200D02*
X185577200Y-193357200D01*
X184720057Y-193785771D02*
X185220057Y-192285771D01*
X185720057Y-193785771D01*
X186862914Y-192785771D02*
X186862914Y-193785771D01*
X186505771Y-192214342D02*
X186148628Y-193285771D01*
X187077200Y-193285771D01*
D10*
D11*
X263434342Y-196585771D02*
X263434342Y-195085771D01*
X264791485Y-196585771D02*
X264791485Y-195085771D01*
X264791485Y-196514342D02*
X264648628Y-196585771D01*
X264362914Y-196585771D01*
X264220057Y-196514342D01*
X264148628Y-196442914D01*
X264077200Y-196300057D01*
X264077200Y-195871485D01*
X264148628Y-195728628D01*
X264220057Y-195657200D01*
X264362914Y-195585771D01*
X264648628Y-195585771D01*
X264791485Y-195657200D01*
X265505771Y-196442914D02*
X265577200Y-196514342D01*
X265505771Y-196585771D01*
X265434342Y-196514342D01*
X265505771Y-196442914D01*
X265505771Y-196585771D01*
X265505771Y-195657200D02*
X265577200Y-195728628D01*
X265505771Y-195800057D01*
X265434342Y-195728628D01*
X265505771Y-195657200D01*
X265505771Y-195800057D01*
X268148628Y-196585771D02*
X267291485Y-196585771D01*
X267720057Y-196585771D02*
X267720057Y-195085771D01*
X267577200Y-195300057D01*
X267434342Y-195442914D01*
X267291485Y-195514342D01*
X269862914Y-195014342D02*
X268577200Y-196942914D01*
X271148628Y-196585771D02*
X270291485Y-196585771D01*
X270720057Y-196585771D02*
X270720057Y-195085771D01*
X270577200Y-195300057D01*
X270434342Y-195442914D01*
X270291485Y-195514342D01*
D10*
D11*
X177002200Y-187507200D02*
X285002200Y-187507200D01*
D10*
D13*
X178714580Y-188211961D02*
X179857438Y-188211961D01*
X179036009Y-190211961D02*
X179286009Y-188211961D01*
X180274104Y-190211961D02*
X180440771Y-188878628D01*
X180524104Y-188211961D02*
X180416961Y-188307200D01*
X180500295Y-188402438D01*
X180607438Y-188307200D01*
X180524104Y-188211961D01*
X180500295Y-188402438D01*
X181107438Y-188878628D02*
X181869342Y-188878628D01*
X181476485Y-188211961D02*
X181262200Y-189926247D01*
X181333628Y-190116723D01*
X181512200Y-190211961D01*
X181702676Y-190211961D01*
X182655057Y-190211961D02*
X182476485Y-190116723D01*
X182405057Y-189926247D01*
X182619342Y-188211961D01*
X184190771Y-190116723D02*
X183988390Y-190211961D01*
X183607438Y-190211961D01*
X183428866Y-190116723D01*
X183357438Y-189926247D01*
X183452676Y-189164342D01*
X183571723Y-188973866D01*
X183774104Y-188878628D01*
X184155057Y-188878628D01*
X184333628Y-188973866D01*
X184405057Y-189164342D01*
X184381247Y-189354819D01*
X183405057Y-189545295D01*
X185155057Y-190021485D02*
X185238390Y-190116723D01*
X185131247Y-190211961D01*
X185047914Y-190116723D01*
X185155057Y-190021485D01*
X185131247Y-190211961D01*
X185286009Y-188973866D02*
X185369342Y-189069104D01*
X185262200Y-189164342D01*
X185178866Y-189069104D01*
X185286009Y-188973866D01*
X185262200Y-189164342D01*
D10*
D11*
X178934342Y-185600057D02*
X178434342Y-185600057D01*
X178434342Y-186385771D02*
X178434342Y-184885771D01*
X179148628Y-184885771D01*
X179720057Y-186385771D02*
X179720057Y-185385771D01*
X179720057Y-184885771D02*
X179648628Y-184957200D01*
X179720057Y-185028628D01*
X179791485Y-184957200D01*
X179720057Y-184885771D01*
X179720057Y-185028628D01*
X180648628Y-186385771D02*
X180505771Y-186314342D01*
X180434342Y-186171485D01*
X180434342Y-184885771D01*
X181791485Y-186314342D02*
X181648628Y-186385771D01*
X181362914Y-186385771D01*
X181220057Y-186314342D01*
X181148628Y-186171485D01*
X181148628Y-185600057D01*
X181220057Y-185457200D01*
X181362914Y-185385771D01*
X181648628Y-185385771D01*
X181791485Y-185457200D01*
X181862914Y-185600057D01*
X181862914Y-185742914D01*
X181148628Y-185885771D01*
X182505771Y-186242914D02*
X182577200Y-186314342D01*
X182505771Y-186385771D01*
X182434342Y-186314342D01*
X182505771Y-186242914D01*
X182505771Y-186385771D01*
X182505771Y-185457200D02*
X182577200Y-185528628D01*
X182505771Y-185600057D01*
X182434342Y-185528628D01*
X182505771Y-185457200D01*
X182505771Y-185600057D01*
X184362914Y-186385771D02*
X184362914Y-184885771D01*
X184934342Y-184885771D01*
X185077200Y-184957200D01*
X185148628Y-185028628D01*
X185220057Y-185171485D01*
X185220057Y-185385771D01*
X185148628Y-185528628D01*
X185077200Y-185600057D01*
X184934342Y-185671485D01*
X184362914Y-185671485D01*
X185862914Y-186385771D02*
X185862914Y-185385771D01*
X185862914Y-185671485D02*
X185934342Y-185528628D01*
X186005771Y-185457200D01*
X186148628Y-185385771D01*
X186291485Y-185385771D01*
X187005771Y-186385771D02*
X186862914Y-186314342D01*
X186791485Y-186242914D01*
X186720057Y-186100057D01*
X186720057Y-185671485D01*
X186791485Y-185528628D01*
X186862914Y-185457200D01*
X187005771Y-185385771D01*
X187220057Y-185385771D01*
X187362914Y-185457200D01*
X187434342Y-185528628D01*
X187505771Y-185671485D01*
X187505771Y-186100057D01*
X187434342Y-186242914D01*
X187362914Y-186314342D01*
X187220057Y-186385771D01*
X187005771Y-186385771D01*
X188148628Y-186385771D02*
X188148628Y-184885771D01*
X188648628Y-185957200D01*
X189148628Y-184885771D01*
X189148628Y-186385771D01*
X189862914Y-186385771D02*
X189862914Y-185385771D01*
X189862914Y-184885771D02*
X189791485Y-184957200D01*
X189862914Y-185028628D01*
X189934342Y-184957200D01*
X189862914Y-184885771D01*
X189862914Y-185028628D01*
X191220057Y-186314342D02*
X191077200Y-186385771D01*
X190791485Y-186385771D01*
X190648628Y-186314342D01*
X190577200Y-186242914D01*
X190505771Y-186100057D01*
X190505771Y-185671485D01*
X190577200Y-185528628D01*
X190648628Y-185457200D01*
X190791485Y-185385771D01*
X191077200Y-185385771D01*
X191220057Y-185457200D01*
X191862914Y-186385771D02*
X191862914Y-185385771D01*
X191862914Y-185671485D02*
X191934342Y-185528628D01*
X192005771Y-185457200D01*
X192148628Y-185385771D01*
X192291485Y-185385771D01*
X193005771Y-186385771D02*
X192862914Y-186314342D01*
X192791485Y-186242914D01*
X192720057Y-186100057D01*
X192720057Y-185671485D01*
X192791485Y-185528628D01*
X192862914Y-185457200D01*
X193005771Y-185385771D01*
X193220057Y-185385771D01*
X193362914Y-185457200D01*
X193434342Y-185528628D01*
X193505771Y-185671485D01*
X193505771Y-186100057D01*
X193434342Y-186242914D01*
X193362914Y-186314342D01*
X193220057Y-186385771D01*
X193005771Y-186385771D01*
X194148628Y-186385771D02*
X194148628Y-184885771D01*
X195005771Y-186385771D02*
X194362914Y-185528628D01*
X195005771Y-184885771D02*
X194148628Y-185742914D01*
X196220057Y-186314342D02*
X196077200Y-186385771D01*
X195791485Y-186385771D01*
X195648628Y-186314342D01*
X195577200Y-186171485D01*
X195577200Y-185600057D01*
X195648628Y-185457200D01*
X195791485Y-185385771D01*
X196077200Y-185385771D01*
X196220057Y-185457200D01*
X196291485Y-185600057D01*
X196291485Y-185742914D01*
X195577200Y-185885771D01*
X196791485Y-185385771D02*
X197148628Y-186385771D01*
X197505771Y-185385771D02*
X197148628Y-186385771D01*
X197005771Y-186742914D01*
X196934342Y-186814342D01*
X196791485Y-186885771D01*
X198077200Y-185385771D02*
X198077200Y-186885771D01*
X198077200Y-185457200D02*
X198220057Y-185385771D01*
X198505771Y-185385771D01*
X198648628Y-185457200D01*
X198720057Y-185528628D01*
X198791485Y-185671485D01*
X198791485Y-186100057D01*
X198720057Y-186242914D01*
X198648628Y-186314342D01*
X198505771Y-186385771D01*
X198220057Y-186385771D01*
X198077200Y-186314342D01*
X200077200Y-186385771D02*
X200077200Y-185600057D01*
X200005771Y-185457200D01*
X199862914Y-185385771D01*
X199577200Y-185385771D01*
X199434342Y-185457200D01*
X200077200Y-186314342D02*
X199934342Y-186385771D01*
X199577200Y-186385771D01*
X199434342Y-186314342D01*
X199362914Y-186171485D01*
X199362914Y-186028628D01*
X199434342Y-185885771D01*
X199577200Y-185814342D01*
X199934342Y-185814342D01*
X200077200Y-185742914D01*
X201434342Y-186385771D02*
X201434342Y-184885771D01*
X201434342Y-186314342D02*
X201291485Y-186385771D01*
X201005771Y-186385771D01*
X200862914Y-186314342D01*
X200791485Y-186242914D01*
X200720057Y-186100057D01*
X200720057Y-185671485D01*
X200791485Y-185528628D01*
X200862914Y-185457200D01*
X201005771Y-185385771D01*
X201291485Y-185385771D01*
X201434342Y-185457200D01*
X202148628Y-186242914D02*
X202220057Y-186314342D01*
X202148628Y-186385771D01*
X202077200Y-186314342D01*
X202148628Y-186242914D01*
X202148628Y-186385771D01*
X202862914Y-186385771D02*
X202862914Y-184885771D01*
X203005771Y-185814342D02*
X203434342Y-186385771D01*
X203434342Y-185385771D02*
X202862914Y-185957200D01*
X204077200Y-186385771D02*
X204077200Y-185385771D01*
X204077200Y-184885771D02*
X204005771Y-184957200D01*
X204077200Y-185028628D01*
X204148628Y-184957200D01*
X204077200Y-184885771D01*
X204077200Y-185028628D01*
X205434342Y-186314342D02*
X205291485Y-186385771D01*
X205005771Y-186385771D01*
X204862914Y-186314342D01*
X204791485Y-186242914D01*
X204720057Y-186100057D01*
X204720057Y-185671485D01*
X204791485Y-185528628D01*
X204862914Y-185457200D01*
X205005771Y-185385771D01*
X205291485Y-185385771D01*
X205434342Y-185457200D01*
X206720057Y-186385771D02*
X206720057Y-185600057D01*
X206648628Y-185457200D01*
X206505771Y-185385771D01*
X206220057Y-185385771D01*
X206077200Y-185457200D01*
X206720057Y-186314342D02*
X206577200Y-186385771D01*
X206220057Y-186385771D01*
X206077200Y-186314342D01*
X206005771Y-186171485D01*
X206005771Y-186028628D01*
X206077200Y-185885771D01*
X206220057Y-185814342D01*
X206577200Y-185814342D01*
X206720057Y-185742914D01*
X208077200Y-186385771D02*
X208077200Y-184885771D01*
X208077200Y-186314342D02*
X207934342Y-186385771D01*
X207648628Y-186385771D01*
X207505771Y-186314342D01*
X207434342Y-186242914D01*
X207362914Y-186100057D01*
X207362914Y-185671485D01*
X207434342Y-185528628D01*
X207505771Y-185457200D01*
X207648628Y-185385771D01*
X207934342Y-185385771D01*
X208077200Y-185457200D01*
X208434342Y-186528628D02*
X209577200Y-186528628D01*
X209934342Y-185385771D02*
X209934342Y-186885771D01*
X209934342Y-185457200D02*
X210077200Y-185385771D01*
X210362914Y-185385771D01*
X210505771Y-185457200D01*
X210577200Y-185528628D01*
X210648628Y-185671485D01*
X210648628Y-186100057D01*
X210577200Y-186242914D01*
X210505771Y-186314342D01*
X210362914Y-186385771D01*
X210077200Y-186385771D01*
X209934342Y-186314342D01*
X211934342Y-186314342D02*
X211791485Y-186385771D01*
X211505771Y-186385771D01*
X211362914Y-186314342D01*
X211291485Y-186242914D01*
X211220057Y-186100057D01*
X211220057Y-185671485D01*
X211291485Y-185528628D01*
X211362914Y-185457200D01*
X211505771Y-185385771D01*
X211791485Y-185385771D01*
X211934342Y-185457200D01*
X212577200Y-186385771D02*
X212577200Y-184885771D01*
X212577200Y-185457200D02*
X212720057Y-185385771D01*
X213005771Y-185385771D01*
X213148628Y-185457200D01*
X213220057Y-185528628D01*
X213291485Y-185671485D01*
X213291485Y-186100057D01*
X213220057Y-186242914D01*
X213148628Y-186314342D01*
X213005771Y-186385771D01*
X212720057Y-186385771D01*
X212577200Y-186314342D01*
D10*
D11*
X177002200Y-181507200D02*
X285002200Y-181507200D01*
D10*
D11*
X178362914Y-183614342D02*
X178577200Y-183685771D01*
X178934342Y-183685771D01*
X179077200Y-183614342D01*
X179148628Y-183542914D01*
X179220057Y-183400057D01*
X179220057Y-183257200D01*
X179148628Y-183114342D01*
X179077200Y-183042914D01*
X178934342Y-182971485D01*
X178648628Y-182900057D01*
X178505771Y-182828628D01*
X178434342Y-182757200D01*
X178362914Y-182614342D01*
X178362914Y-182471485D01*
X178434342Y-182328628D01*
X178505771Y-182257200D01*
X178648628Y-182185771D01*
X179005771Y-182185771D01*
X179220057Y-182257200D01*
X179862914Y-183685771D02*
X179862914Y-182185771D01*
X180505771Y-183685771D02*
X180505771Y-182900057D01*
X180434342Y-182757200D01*
X180291485Y-182685771D01*
X180077200Y-182685771D01*
X179934342Y-182757200D01*
X179862914Y-182828628D01*
X181791485Y-183614342D02*
X181648628Y-183685771D01*
X181362914Y-183685771D01*
X181220057Y-183614342D01*
X181148628Y-183471485D01*
X181148628Y-182900057D01*
X181220057Y-182757200D01*
X181362914Y-182685771D01*
X181648628Y-182685771D01*
X181791485Y-182757200D01*
X181862914Y-182900057D01*
X181862914Y-183042914D01*
X181148628Y-183185771D01*
X183077200Y-183614342D02*
X182934342Y-183685771D01*
X182648628Y-183685771D01*
X182505771Y-183614342D01*
X182434342Y-183471485D01*
X182434342Y-182900057D01*
X182505771Y-182757200D01*
X182648628Y-182685771D01*
X182934342Y-182685771D01*
X183077200Y-182757200D01*
X183148628Y-182900057D01*
X183148628Y-183042914D01*
X182434342Y-183185771D01*
X183577200Y-182685771D02*
X184148628Y-182685771D01*
X183791485Y-182185771D02*
X183791485Y-183471485D01*
X183862914Y-183614342D01*
X184005771Y-183685771D01*
X184148628Y-183685771D01*
X184648628Y-183542914D02*
X184720057Y-183614342D01*
X184648628Y-183685771D01*
X184577200Y-183614342D01*
X184648628Y-183542914D01*
X184648628Y-183685771D01*
X184648628Y-182757200D02*
X184720057Y-182828628D01*
X184648628Y-182900057D01*
X184577200Y-182828628D01*
X184648628Y-182757200D01*
X184648628Y-182900057D01*
D10*
D12*
D10*
D11*
D10*
D11*
D10*
D11*
D10*
D11*
D10*
D11*
X197002200Y-191507200D02*
X197002200Y-194507200D01*
D10*
D11*
X261002200Y-191507200D02*
X261002200Y-198007200D01*
X171476190Y-59952380D02*
X171476190Y-58952380D01*
X171857142Y-58952380D01*
X171952380Y-59000000D01*
X172000000Y-59047619D01*
X172047619Y-59142857D01*
X172047619Y-59285714D01*
X172000000Y-59380952D01*
X171952380Y-59428571D01*
X171857142Y-59476190D01*
X171476190Y-59476190D01*
X172476190Y-59952380D02*
X172476190Y-59285714D01*
X172476190Y-59476190D02*
X172523809Y-59380952D01*
X172571428Y-59333333D01*
X172666666Y-59285714D01*
X172761904Y-59285714D01*
X173238095Y-59952380D02*
X173142857Y-59904761D01*
X173095238Y-59857142D01*
X173047619Y-59761904D01*
X173047619Y-59476190D01*
X173095238Y-59380952D01*
X173142857Y-59333333D01*
X173238095Y-59285714D01*
X173380952Y-59285714D01*
X173476190Y-59333333D01*
X173523809Y-59380952D01*
X173571428Y-59476190D01*
X173571428Y-59761904D01*
X173523809Y-59857142D01*
X173476190Y-59904761D01*
X173380952Y-59952380D01*
X173238095Y-59952380D01*
X174000000Y-59952380D02*
X174000000Y-58952380D01*
X174333333Y-59666666D01*
X174666666Y-58952380D01*
X174666666Y-59952380D01*
X175142857Y-59952380D02*
X175142857Y-59285714D01*
X175142857Y-58952380D02*
X175095238Y-59000000D01*
X175142857Y-59047619D01*
X175190476Y-59000000D01*
X175142857Y-58952380D01*
X175142857Y-59047619D01*
X176047619Y-59904761D02*
X175952380Y-59952380D01*
X175761904Y-59952380D01*
X175666666Y-59904761D01*
X175619047Y-59857142D01*
X175571428Y-59761904D01*
X175571428Y-59476190D01*
X175619047Y-59380952D01*
X175666666Y-59333333D01*
X175761904Y-59285714D01*
X175952380Y-59285714D01*
X176047619Y-59333333D01*
X176476190Y-59952380D02*
X176476190Y-59285714D01*
X176476190Y-59476190D02*
X176523809Y-59380952D01*
X176571428Y-59333333D01*
X176666666Y-59285714D01*
X176761904Y-59285714D01*
X177238095Y-59952380D02*
X177142857Y-59904761D01*
X177095238Y-59857142D01*
X177047619Y-59761904D01*
X177047619Y-59476190D01*
X177095238Y-59380952D01*
X177142857Y-59333333D01*
X177238095Y-59285714D01*
X177380952Y-59285714D01*
X177476190Y-59333333D01*
X177523809Y-59380952D01*
X177571428Y-59476190D01*
X177571428Y-59761904D01*
X177523809Y-59857142D01*
X177476190Y-59904761D01*
X177380952Y-59952380D01*
X177238095Y-59952380D01*
X178761904Y-59952380D02*
X178761904Y-58952380D01*
X179333333Y-59952380D02*
X178904761Y-59380952D01*
X179333333Y-58952380D02*
X178761904Y-59523809D01*
X180142857Y-59904761D02*
X180047619Y-59952380D01*
X179857142Y-59952380D01*
X179761904Y-59904761D01*
X179714285Y-59809523D01*
X179714285Y-59428571D01*
X179761904Y-59333333D01*
X179857142Y-59285714D01*
X180047619Y-59285714D01*
X180142857Y-59333333D01*
X180190476Y-59428571D01*
X180190476Y-59523809D01*
X179714285Y-59619047D01*
X180523809Y-59285714D02*
X180761904Y-59952380D01*
X181000000Y-59285714D02*
X180761904Y-59952380D01*
X180666666Y-60190476D01*
X180619047Y-60238095D01*
X180523809Y-60285714D01*
X181380952Y-59285714D02*
X181380952Y-60285714D01*
X181380952Y-59333333D02*
X181476190Y-59285714D01*
X181666666Y-59285714D01*
X181761904Y-59333333D01*
X181809523Y-59380952D01*
X181857142Y-59476190D01*
X181857142Y-59761904D01*
X181809523Y-59857142D01*
X181761904Y-59904761D01*
X181666666Y-59952380D01*
X181476190Y-59952380D01*
X181380952Y-59904761D01*
X182714285Y-59952380D02*
X182714285Y-59428571D01*
X182666666Y-59333333D01*
X182571428Y-59285714D01*
X182380952Y-59285714D01*
X182285714Y-59333333D01*
X182714285Y-59904761D02*
X182619047Y-59952380D01*
X182380952Y-59952380D01*
X182285714Y-59904761D01*
X182238095Y-59809523D01*
X182238095Y-59714285D01*
X182285714Y-59619047D01*
X182380952Y-59571428D01*
X182619047Y-59571428D01*
X182714285Y-59523809D01*
X183619047Y-59952380D02*
X183619047Y-58952380D01*
X183619047Y-59904761D02*
X183523809Y-59952380D01*
X183333333Y-59952380D01*
X183238095Y-59904761D01*
X183190476Y-59857142D01*
X183142857Y-59761904D01*
X183142857Y-59476190D01*
X183190476Y-59380952D01*
X183238095Y-59333333D01*
X183333333Y-59285714D01*
X183523809Y-59285714D01*
X183619047Y-59333333D01*
X184761904Y-59285714D02*
X184999999Y-59952380D01*
X185238095Y-59285714D01*
X186142857Y-59952380D02*
X185571428Y-59952380D01*
X185857142Y-59952380D02*
X185857142Y-58952380D01*
X185761904Y-59095238D01*
X185666666Y-59190476D01*
X185571428Y-59238095D01*
X186571428Y-59857142D02*
X186619047Y-59904761D01*
X186571428Y-59952380D01*
X186523809Y-59904761D01*
X186571428Y-59857142D01*
X186571428Y-59952380D01*
X187238095Y-58952380D02*
X187333333Y-58952380D01*
X187428571Y-59000000D01*
X187476190Y-59047619D01*
X187523809Y-59142857D01*
X187571428Y-59333333D01*
X187571428Y-59571428D01*
X187523809Y-59761904D01*
X187476190Y-59857142D01*
X187428571Y-59904761D01*
X187333333Y-59952380D01*
X187238095Y-59952380D01*
X187142857Y-59904761D01*
X187095238Y-59857142D01*
X187047619Y-59761904D01*
X186999999Y-59571428D01*
X186999999Y-59333333D01*
X187047619Y-59142857D01*
X187095238Y-59047619D01*
X187142857Y-59000000D01*
X187238095Y-58952380D01*
D14*
X121500000Y-37000000D02*
X214500000Y-37000000D01*
X214500000Y-37000000D02*
X214500000Y-104000000D01*
X214500000Y-104000000D02*
X121500000Y-104000000D01*
X121500000Y-104000000D02*
X121500000Y-37000000D01*
D11*
%TO.C,U4*%
X140738095Y-62289880D02*
X140738095Y-63099404D01*
X140785714Y-63194642D01*
X140833333Y-63242261D01*
X140928571Y-63289880D01*
X141119047Y-63289880D01*
X141214285Y-63242261D01*
X141261904Y-63194642D01*
X141309523Y-63099404D01*
X141309523Y-62289880D01*
X142214285Y-62623214D02*
X142214285Y-63289880D01*
X141976190Y-62242261D02*
X141738095Y-62956547D01*
X142357142Y-62956547D01*
%TO.C,U2*%
X160738095Y-82789880D02*
X160738095Y-83599404D01*
X160785714Y-83694642D01*
X160833333Y-83742261D01*
X160928571Y-83789880D01*
X161119047Y-83789880D01*
X161214285Y-83742261D01*
X161261904Y-83694642D01*
X161309523Y-83599404D01*
X161309523Y-82789880D01*
X161738095Y-82885119D02*
X161785714Y-82837500D01*
X161880952Y-82789880D01*
X162119047Y-82789880D01*
X162214285Y-82837500D01*
X162261904Y-82885119D01*
X162309523Y-82980357D01*
X162309523Y-83075595D01*
X162261904Y-83218452D01*
X161690476Y-83789880D01*
X162309523Y-83789880D01*
%TO.C,R8*%
X163383333Y-45632380D02*
X163050000Y-45156190D01*
X162811904Y-45632380D02*
X162811904Y-44632380D01*
X163192857Y-44632380D01*
X163288095Y-44680000D01*
X163335714Y-44727619D01*
X163383333Y-44822857D01*
X163383333Y-44965714D01*
X163335714Y-45060952D01*
X163288095Y-45108571D01*
X163192857Y-45156190D01*
X162811904Y-45156190D01*
X163954761Y-45060952D02*
X163859523Y-45013333D01*
X163811904Y-44965714D01*
X163764285Y-44870476D01*
X163764285Y-44822857D01*
X163811904Y-44727619D01*
X163859523Y-44680000D01*
X163954761Y-44632380D01*
X164145238Y-44632380D01*
X164240476Y-44680000D01*
X164288095Y-44727619D01*
X164335714Y-44822857D01*
X164335714Y-44870476D01*
X164288095Y-44965714D01*
X164240476Y-45013333D01*
X164145238Y-45060952D01*
X163954761Y-45060952D01*
X163859523Y-45108571D01*
X163811904Y-45156190D01*
X163764285Y-45251428D01*
X163764285Y-45441904D01*
X163811904Y-45537142D01*
X163859523Y-45584761D01*
X163954761Y-45632380D01*
X164145238Y-45632380D01*
X164240476Y-45584761D01*
X164288095Y-45537142D01*
X164335714Y-45441904D01*
X164335714Y-45251428D01*
X164288095Y-45156190D01*
X164240476Y-45108571D01*
X164145238Y-45060952D01*
%TO.C,U3*%
X180738095Y-82789880D02*
X180738095Y-83599404D01*
X180785714Y-83694642D01*
X180833333Y-83742261D01*
X180928571Y-83789880D01*
X181119047Y-83789880D01*
X181214285Y-83742261D01*
X181261904Y-83694642D01*
X181309523Y-83599404D01*
X181309523Y-82789880D01*
X181690476Y-82789880D02*
X182309523Y-82789880D01*
X181976190Y-83170833D01*
X182119047Y-83170833D01*
X182214285Y-83218452D01*
X182261904Y-83266071D01*
X182309523Y-83361309D01*
X182309523Y-83599404D01*
X182261904Y-83694642D01*
X182214285Y-83742261D01*
X182119047Y-83789880D01*
X181833333Y-83789880D01*
X181738095Y-83742261D01*
X181690476Y-83694642D01*
%TO.C,R1*%
X126783333Y-90132380D02*
X126450000Y-89656190D01*
X126211904Y-90132380D02*
X126211904Y-89132380D01*
X126592857Y-89132380D01*
X126688095Y-89180000D01*
X126735714Y-89227619D01*
X126783333Y-89322857D01*
X126783333Y-89465714D01*
X126735714Y-89560952D01*
X126688095Y-89608571D01*
X126592857Y-89656190D01*
X126211904Y-89656190D01*
X127735714Y-90132380D02*
X127164285Y-90132380D01*
X127450000Y-90132380D02*
X127450000Y-89132380D01*
X127354761Y-89275238D01*
X127259523Y-89370476D01*
X127164285Y-89418095D01*
%TO.C,R5*%
X126783333Y-64132380D02*
X126450000Y-63656190D01*
X126211904Y-64132380D02*
X126211904Y-63132380D01*
X126592857Y-63132380D01*
X126688095Y-63180000D01*
X126735714Y-63227619D01*
X126783333Y-63322857D01*
X126783333Y-63465714D01*
X126735714Y-63560952D01*
X126688095Y-63608571D01*
X126592857Y-63656190D01*
X126211904Y-63656190D01*
X127688095Y-63132380D02*
X127211904Y-63132380D01*
X127164285Y-63608571D01*
X127211904Y-63560952D01*
X127307142Y-63513333D01*
X127545238Y-63513333D01*
X127640476Y-63560952D01*
X127688095Y-63608571D01*
X127735714Y-63703809D01*
X127735714Y-63941904D01*
X127688095Y-64037142D01*
X127640476Y-64084761D01*
X127545238Y-64132380D01*
X127307142Y-64132380D01*
X127211904Y-64084761D01*
X127164285Y-64037142D01*
%TO.C,R9*%
X163333333Y-40132380D02*
X163000000Y-39656190D01*
X162761904Y-40132380D02*
X162761904Y-39132380D01*
X163142857Y-39132380D01*
X163238095Y-39180000D01*
X163285714Y-39227619D01*
X163333333Y-39322857D01*
X163333333Y-39465714D01*
X163285714Y-39560952D01*
X163238095Y-39608571D01*
X163142857Y-39656190D01*
X162761904Y-39656190D01*
X163809523Y-40132380D02*
X164000000Y-40132380D01*
X164095238Y-40084761D01*
X164142857Y-40037142D01*
X164238095Y-39894285D01*
X164285714Y-39703809D01*
X164285714Y-39322857D01*
X164238095Y-39227619D01*
X164190476Y-39180000D01*
X164095238Y-39132380D01*
X163904761Y-39132380D01*
X163809523Y-39180000D01*
X163761904Y-39227619D01*
X163714285Y-39322857D01*
X163714285Y-39560952D01*
X163761904Y-39656190D01*
X163809523Y-39703809D01*
X163904761Y-39751428D01*
X164095238Y-39751428D01*
X164190476Y-39703809D01*
X164238095Y-39656190D01*
X164285714Y-39560952D01*
%TO.C,U1*%
X140738095Y-82789880D02*
X140738095Y-83599404D01*
X140785714Y-83694642D01*
X140833333Y-83742261D01*
X140928571Y-83789880D01*
X141119047Y-83789880D01*
X141214285Y-83742261D01*
X141261904Y-83694642D01*
X141309523Y-83599404D01*
X141309523Y-82789880D01*
X142309523Y-83789880D02*
X141738095Y-83789880D01*
X142023809Y-83789880D02*
X142023809Y-82789880D01*
X141928571Y-82932738D01*
X141833333Y-83027976D01*
X141738095Y-83075595D01*
%TO.C,R7*%
X163333333Y-51132380D02*
X163000000Y-50656190D01*
X162761904Y-51132380D02*
X162761904Y-50132380D01*
X163142857Y-50132380D01*
X163238095Y-50180000D01*
X163285714Y-50227619D01*
X163333333Y-50322857D01*
X163333333Y-50465714D01*
X163285714Y-50560952D01*
X163238095Y-50608571D01*
X163142857Y-50656190D01*
X162761904Y-50656190D01*
X163666666Y-50132380D02*
X164333333Y-50132380D01*
X163904761Y-51132380D01*
%TO.C,U5*%
X160738095Y-62289880D02*
X160738095Y-63099404D01*
X160785714Y-63194642D01*
X160833333Y-63242261D01*
X160928571Y-63289880D01*
X161119047Y-63289880D01*
X161214285Y-63242261D01*
X161261904Y-63194642D01*
X161309523Y-63099404D01*
X161309523Y-62289880D01*
X162261904Y-62289880D02*
X161785714Y-62289880D01*
X161738095Y-62766071D01*
X161785714Y-62718452D01*
X161880952Y-62670833D01*
X162119047Y-62670833D01*
X162214285Y-62718452D01*
X162261904Y-62766071D01*
X162309523Y-62861309D01*
X162309523Y-63099404D01*
X162261904Y-63194642D01*
X162214285Y-63242261D01*
X162119047Y-63289880D01*
X161880952Y-63289880D01*
X161785714Y-63242261D01*
X161738095Y-63194642D01*
%TO.C,U8*%
X201738095Y-62289880D02*
X201738095Y-63099404D01*
X201785714Y-63194642D01*
X201833333Y-63242261D01*
X201928571Y-63289880D01*
X202119047Y-63289880D01*
X202214285Y-63242261D01*
X202261904Y-63194642D01*
X202309523Y-63099404D01*
X202309523Y-62289880D01*
X202928571Y-62718452D02*
X202833333Y-62670833D01*
X202785714Y-62623214D01*
X202738095Y-62527976D01*
X202738095Y-62480357D01*
X202785714Y-62385119D01*
X202833333Y-62337500D01*
X202928571Y-62289880D01*
X203119047Y-62289880D01*
X203214285Y-62337500D01*
X203261904Y-62385119D01*
X203309523Y-62480357D01*
X203309523Y-62527976D01*
X203261904Y-62623214D01*
X203214285Y-62670833D01*
X203119047Y-62718452D01*
X202928571Y-62718452D01*
X202833333Y-62766071D01*
X202785714Y-62813690D01*
X202738095Y-62908928D01*
X202738095Y-63099404D01*
X202785714Y-63194642D01*
X202833333Y-63242261D01*
X202928571Y-63289880D01*
X203119047Y-63289880D01*
X203214285Y-63242261D01*
X203261904Y-63194642D01*
X203309523Y-63099404D01*
X203309523Y-62908928D01*
X203261904Y-62813690D01*
X203214285Y-62766071D01*
X203119047Y-62718452D01*
%TO.C,U9*%
X201738095Y-82789880D02*
X201738095Y-83599404D01*
X201785714Y-83694642D01*
X201833333Y-83742261D01*
X201928571Y-83789880D01*
X202119047Y-83789880D01*
X202214285Y-83742261D01*
X202261904Y-83694642D01*
X202309523Y-83599404D01*
X202309523Y-82789880D01*
X202833333Y-83789880D02*
X203023809Y-83789880D01*
X203119047Y-83742261D01*
X203166666Y-83694642D01*
X203261904Y-83551785D01*
X203309523Y-83361309D01*
X203309523Y-82980357D01*
X203261904Y-82885119D01*
X203214285Y-82837500D01*
X203119047Y-82789880D01*
X202928571Y-82789880D01*
X202833333Y-82837500D01*
X202785714Y-82885119D01*
X202738095Y-82980357D01*
X202738095Y-83218452D01*
X202785714Y-83313690D01*
X202833333Y-83361309D01*
X202928571Y-83408928D01*
X203119047Y-83408928D01*
X203214285Y-83361309D01*
X203261904Y-83313690D01*
X203309523Y-83218452D01*
%TO.C,U7*%
X201738095Y-41789880D02*
X201738095Y-42599404D01*
X201785714Y-42694642D01*
X201833333Y-42742261D01*
X201928571Y-42789880D01*
X202119047Y-42789880D01*
X202214285Y-42742261D01*
X202261904Y-42694642D01*
X202309523Y-42599404D01*
X202309523Y-41789880D01*
X202690476Y-41789880D02*
X203357142Y-41789880D01*
X202928571Y-42789880D01*
%TO.C,SW1*%
X173716666Y-43204761D02*
X173859523Y-43252380D01*
X174097619Y-43252380D01*
X174192857Y-43204761D01*
X174240476Y-43157142D01*
X174288095Y-43061904D01*
X174288095Y-42966666D01*
X174240476Y-42871428D01*
X174192857Y-42823809D01*
X174097619Y-42776190D01*
X173907142Y-42728571D01*
X173811904Y-42680952D01*
X173764285Y-42633333D01*
X173716666Y-42538095D01*
X173716666Y-42442857D01*
X173764285Y-42347619D01*
X173811904Y-42300000D01*
X173907142Y-42252380D01*
X174145238Y-42252380D01*
X174288095Y-42300000D01*
X174621428Y-42252380D02*
X174859523Y-43252380D01*
X175050000Y-42538095D01*
X175240476Y-43252380D01*
X175478571Y-42252380D01*
X176383333Y-43252380D02*
X175811904Y-43252380D01*
X176097619Y-43252380D02*
X176097619Y-42252380D01*
X176002380Y-42395238D01*
X175907142Y-42490476D01*
X175811904Y-42538095D01*
%TO.C,U6*%
X180738095Y-62289880D02*
X180738095Y-63099404D01*
X180785714Y-63194642D01*
X180833333Y-63242261D01*
X180928571Y-63289880D01*
X181119047Y-63289880D01*
X181214285Y-63242261D01*
X181261904Y-63194642D01*
X181309523Y-63099404D01*
X181309523Y-62289880D01*
X182214285Y-62289880D02*
X182023809Y-62289880D01*
X181928571Y-62337500D01*
X181880952Y-62385119D01*
X181785714Y-62527976D01*
X181738095Y-62718452D01*
X181738095Y-63099404D01*
X181785714Y-63194642D01*
X181833333Y-63242261D01*
X181928571Y-63289880D01*
X182119047Y-63289880D01*
X182214285Y-63242261D01*
X182261904Y-63194642D01*
X182309523Y-63099404D01*
X182309523Y-62861309D01*
X182261904Y-62766071D01*
X182214285Y-62718452D01*
X182119047Y-62670833D01*
X181928571Y-62670833D01*
X181833333Y-62718452D01*
X181785714Y-62766071D01*
X181738095Y-62861309D01*
%TO.C,R4*%
X126783333Y-70632380D02*
X126450000Y-70156190D01*
X126211904Y-70632380D02*
X126211904Y-69632380D01*
X126592857Y-69632380D01*
X126688095Y-69680000D01*
X126735714Y-69727619D01*
X126783333Y-69822857D01*
X126783333Y-69965714D01*
X126735714Y-70060952D01*
X126688095Y-70108571D01*
X126592857Y-70156190D01*
X126211904Y-70156190D01*
X127640476Y-69965714D02*
X127640476Y-70632380D01*
X127402380Y-69584761D02*
X127164285Y-70299047D01*
X127783333Y-70299047D01*
%TO.C,R2*%
X126783333Y-83632380D02*
X126450000Y-83156190D01*
X126211904Y-83632380D02*
X126211904Y-82632380D01*
X126592857Y-82632380D01*
X126688095Y-82680000D01*
X126735714Y-82727619D01*
X126783333Y-82822857D01*
X126783333Y-82965714D01*
X126735714Y-83060952D01*
X126688095Y-83108571D01*
X126592857Y-83156190D01*
X126211904Y-83156190D01*
X127164285Y-82727619D02*
X127211904Y-82680000D01*
X127307142Y-82632380D01*
X127545238Y-82632380D01*
X127640476Y-82680000D01*
X127688095Y-82727619D01*
X127735714Y-82822857D01*
X127735714Y-82918095D01*
X127688095Y-83060952D01*
X127116666Y-83632380D01*
X127735714Y-83632380D01*
%TO.C,R6*%
X163333333Y-56632380D02*
X163000000Y-56156190D01*
X162761904Y-56632380D02*
X162761904Y-55632380D01*
X163142857Y-55632380D01*
X163238095Y-55680000D01*
X163285714Y-55727619D01*
X163333333Y-55822857D01*
X163333333Y-55965714D01*
X163285714Y-56060952D01*
X163238095Y-56108571D01*
X163142857Y-56156190D01*
X162761904Y-56156190D01*
X164190476Y-55632380D02*
X164000000Y-55632380D01*
X163904761Y-55680000D01*
X163857142Y-55727619D01*
X163761904Y-55870476D01*
X163714285Y-56060952D01*
X163714285Y-56441904D01*
X163761904Y-56537142D01*
X163809523Y-56584761D01*
X163904761Y-56632380D01*
X164095238Y-56632380D01*
X164190476Y-56584761D01*
X164238095Y-56537142D01*
X164285714Y-56441904D01*
X164285714Y-56203809D01*
X164238095Y-56108571D01*
X164190476Y-56060952D01*
X164095238Y-56013333D01*
X163904761Y-56013333D01*
X163809523Y-56060952D01*
X163761904Y-56108571D01*
X163714285Y-56203809D01*
%TO.C,R3*%
X126783333Y-77132380D02*
X126450000Y-76656190D01*
X126211904Y-77132380D02*
X126211904Y-76132380D01*
X126592857Y-76132380D01*
X126688095Y-76180000D01*
X126735714Y-76227619D01*
X126783333Y-76322857D01*
X126783333Y-76465714D01*
X126735714Y-76560952D01*
X126688095Y-76608571D01*
X126592857Y-76656190D01*
X126211904Y-76656190D01*
X127116666Y-76132380D02*
X127735714Y-76132380D01*
X127402380Y-76513333D01*
X127545238Y-76513333D01*
X127640476Y-76560952D01*
X127688095Y-76608571D01*
X127735714Y-76703809D01*
X127735714Y-76941904D01*
X127688095Y-77037142D01*
X127640476Y-77084761D01*
X127545238Y-77132380D01*
X127259523Y-77132380D01*
X127164285Y-77084761D01*
X127116666Y-77037142D01*
D15*
%TO.C,U4*%
X134500000Y-64500000D02*
X134500000Y-78500000D01*
X148500000Y-64500000D02*
X148500000Y-78500000D01*
X134500000Y-64500000D02*
X148500000Y-64500000D01*
X148500000Y-78500000D02*
X134500000Y-78500000D01*
%TO.C,U2*%
X154500000Y-85000000D02*
X154500000Y-99000000D01*
X168500000Y-99000000D02*
X154500000Y-99000000D01*
X154500000Y-85000000D02*
X168500000Y-85000000D01*
X168500000Y-85000000D02*
X168500000Y-99000000D01*
%TO.C,R8*%
X162822936Y-46090000D02*
X164277064Y-46090000D01*
X162822936Y-47910000D02*
X164277064Y-47910000D01*
%TO.C,U3*%
X188500000Y-99000000D02*
X174500000Y-99000000D01*
X174500000Y-85000000D02*
X188500000Y-85000000D01*
X174500000Y-85000000D02*
X174500000Y-99000000D01*
X188500000Y-85000000D02*
X188500000Y-99000000D01*
D11*
%TO.C,U10*%
X153740000Y-40110000D02*
X153740000Y-57890000D01*
X123260000Y-57890000D02*
X123260000Y-52810000D01*
X123260000Y-40110000D02*
X153740000Y-40110000D01*
X120720000Y-52810000D02*
X120720000Y-45190000D01*
X120720000Y-45190000D02*
X123260000Y-45190000D01*
X123260000Y-57890000D02*
X153740000Y-57890000D01*
X123260000Y-45190000D02*
X123260000Y-40110000D01*
X123260000Y-52810000D02*
X120720000Y-52810000D01*
D15*
%TO.C,R1*%
X126222936Y-92410000D02*
X127677064Y-92410000D01*
X126222936Y-90590000D02*
X127677064Y-90590000D01*
%TO.C,R5*%
X126222936Y-64590000D02*
X127677064Y-64590000D01*
X126222936Y-66410000D02*
X127677064Y-66410000D01*
%TO.C,R9*%
X162772936Y-40590000D02*
X164227064Y-40590000D01*
X162772936Y-42410000D02*
X164227064Y-42410000D01*
%TO.C,U1*%
X148500000Y-99000000D02*
X134500000Y-99000000D01*
X148500000Y-85000000D02*
X148500000Y-99000000D01*
X134500000Y-85000000D02*
X134500000Y-99000000D01*
X134500000Y-85000000D02*
X148500000Y-85000000D01*
%TO.C,R7*%
X162772936Y-51590000D02*
X164227064Y-51590000D01*
X162772936Y-53410000D02*
X164227064Y-53410000D01*
%TO.C,U5*%
X168500000Y-64500000D02*
X168500000Y-78500000D01*
X154500000Y-64500000D02*
X154500000Y-78500000D01*
X154500000Y-64500000D02*
X168500000Y-64500000D01*
X168500000Y-78500000D02*
X154500000Y-78500000D01*
%TO.C,U8*%
X195500000Y-64500000D02*
X209500000Y-64500000D01*
X195500000Y-64500000D02*
X195500000Y-78500000D01*
X209500000Y-78500000D02*
X195500000Y-78500000D01*
X209500000Y-64500000D02*
X209500000Y-78500000D01*
%TO.C,U9*%
X195500000Y-85000000D02*
X195500000Y-99000000D01*
X209500000Y-99000000D02*
X195500000Y-99000000D01*
X209500000Y-85000000D02*
X209500000Y-99000000D01*
X195500000Y-85000000D02*
X209500000Y-85000000D01*
%TO.C,U7*%
X209500000Y-58000000D02*
X195500000Y-58000000D01*
X195500000Y-44000000D02*
X195500000Y-58000000D01*
X209500000Y-44000000D02*
X209500000Y-58000000D01*
X195500000Y-44000000D02*
X209500000Y-44000000D01*
%TO.C,SW1*%
X173650000Y-44100000D02*
X173650000Y-55900000D01*
X185850000Y-53500000D02*
X185850000Y-55900000D01*
X177750000Y-44100000D02*
X173650000Y-44100000D01*
X185850000Y-48700000D02*
X185850000Y-51300000D01*
X177750000Y-55900000D02*
X173650000Y-55900000D01*
X185850000Y-55900000D02*
X181750000Y-55900000D01*
X172250000Y-46200000D02*
X171950000Y-45900000D01*
X171950000Y-45900000D02*
X172550000Y-45900000D01*
X181750000Y-44100000D02*
X185850000Y-44100000D01*
X185850000Y-44100000D02*
X185850000Y-46500000D01*
X179250000Y-50000000D02*
X180250000Y-50000000D01*
X179750000Y-49500000D02*
X179750000Y-50500000D01*
X172550000Y-45900000D02*
X172250000Y-46200000D01*
X182750000Y-50000000D02*
G75*
G03*
X182750000Y-50000000I-3000000J0D01*
G01*
%TO.C,U6*%
X188500000Y-78500000D02*
X174500000Y-78500000D01*
X174500000Y-64500000D02*
X174500000Y-78500000D01*
X174500000Y-64500000D02*
X188500000Y-64500000D01*
X188500000Y-64500000D02*
X188500000Y-78500000D01*
%TO.C,R4*%
X126222936Y-71090000D02*
X127677064Y-71090000D01*
X126222936Y-72910000D02*
X127677064Y-72910000D01*
%TO.C,R2*%
X126222936Y-84090000D02*
X127677064Y-84090000D01*
X126222936Y-85910000D02*
X127677064Y-85910000D01*
%TO.C,R6*%
X162772936Y-58910000D02*
X164227064Y-58910000D01*
X162772936Y-57090000D02*
X164227064Y-57090000D01*
%TO.C,R3*%
X126222936Y-77590000D02*
X127677064Y-77590000D01*
X126222936Y-79410000D02*
X127677064Y-79410000D01*
%TD*%
D16*
%TO.C,U10*%
X124530000Y-56620000D03*
D17*
X127070000Y-56620000D03*
X129610000Y-56620000D03*
X132150000Y-56620000D03*
X134690000Y-56620000D03*
X137230000Y-56620000D03*
X139770000Y-56620000D03*
X142310000Y-56620000D03*
X144850000Y-56620000D03*
X147390000Y-56620000D03*
X149930000Y-56620000D03*
X152470000Y-56620000D03*
X152470000Y-41380000D03*
X149930000Y-41380000D03*
X147390000Y-41380000D03*
X144850000Y-41380000D03*
X142310000Y-41380000D03*
X139770000Y-41380000D03*
X137230000Y-41380000D03*
X134690000Y-41380000D03*
X132150000Y-41380000D03*
X129610000Y-41380000D03*
X127070000Y-41380000D03*
X124530000Y-41380000D03*
%TD*%
M02*
