M48
; DRILL file {KiCad (5.99.0-10772-g6919d12c70)} date Wed Aug  4 17:25:25 2021
; FORMAT={-:-/ absolute / metric / decimal}
; #@! TF.CreationDate,2021-08-04T17:25:25+12:00
; #@! TF.GenerationSoftware,Kicad,Pcbnew,(5.99.0-10772-g6919d12c70)
; #@! TF.FileFunction,Plated,1,2,PTH
FMAT,2
METRIC
; #@! TA.AperFunction,Plated,PTH,ComponentDrill
T1C0.991
; #@! TA.AperFunction,Plated,PTH,ComponentDrill
T2C1.000
; #@! TA.AperFunction,Plated,PTH,ComponentDrill
T3C1.100
; #@! TA.AperFunction,Plated,PTH,ComponentDrill
T4C1.500
%
G90
G05
T1
X140.23Y-76.58
X140.23Y-97.08
X142.77Y-76.58
X142.77Y-97.08
X160.23Y-76.58
X160.23Y-97.08
X162.77Y-76.58
X162.77Y-97.08
X180.23Y-76.58
X180.23Y-97.08
X182.77Y-76.58
X182.77Y-97.08
X201.23Y-56.08
X201.23Y-76.58
X201.23Y-97.08
X203.77Y-56.08
X203.77Y-76.58
X203.77Y-97.08
T2
X172.25Y-47.5
X172.25Y-50.0
X172.25Y-52.5
X186.75Y-47.5
X186.75Y-52.5
T3
X124.53Y-41.38
X124.53Y-56.62
X127.07Y-41.38
X127.07Y-56.62
X129.61Y-41.38
X129.61Y-56.62
X132.15Y-41.38
X132.15Y-56.62
X134.69Y-41.38
X134.69Y-56.62
X137.23Y-41.38
X137.23Y-56.62
X139.77Y-41.38
X139.77Y-56.62
X142.31Y-41.38
X142.31Y-56.62
X144.85Y-41.38
X144.85Y-56.62
X147.39Y-41.38
X147.39Y-56.62
X149.93Y-41.38
X149.93Y-56.62
X152.47Y-41.38
X152.47Y-56.62
T4
X137.69Y-68.96
X137.69Y-89.46
X144.04Y-66.42
X144.04Y-86.92
X157.69Y-68.96
X157.69Y-89.46
X164.04Y-66.42
X164.04Y-86.92
X177.69Y-68.96
X177.69Y-89.46
X184.04Y-66.42
X184.04Y-86.92
X198.69Y-48.46
X198.69Y-68.96
X198.69Y-89.46
X205.04Y-45.92
X205.04Y-66.42
X205.04Y-86.92
T4
G00X179.1Y-44.4
M15
G01X180.4Y-44.4
M16
G05
G00X179.1Y-55.6
M15
G01X180.4Y-55.6
M16
G05
T0
M30
