%TF.GenerationSoftware,KiCad,Pcbnew,(5.99.0-10772-g6919d12c70)*%
%TF.CreationDate,2021-08-04T17:25:00+12:00*%
%TF.ProjectId,ProMicroKeypad,50726f4d-6963-4726-9f4b-65797061642e,rev?*%
%TF.SameCoordinates,Original*%
%TF.FileFunction,AssemblyDrawing,Top*%
%FSLAX46Y46*%
G04 Gerber Fmt 4.6, Leading zero omitted, Abs format (unit mm)*
G04 Created by KiCad (PCBNEW (5.99.0-10772-g6919d12c70)) date 2021-08-04 17:25:00*
%MOMM*%
%LPD*%
G01*
G04 APERTURE LIST*
%ADD10C,0.100000*%
%ADD11C,0.150000*%
%ADD12C,0.300000*%
%ADD13C,0.400000*%
%TA.AperFunction,Profile*%
%ADD14C,0.100000*%
%TD*%
%ADD15C,0.120000*%
%ADD16C,0.100000*%
%TD*%
G04 APERTURE END LIST*
D10*
D11*
X177002200Y-166007200D02*
X177002200Y-198007200D01*
X285002200Y-198007200D01*
X285002200Y-166007200D01*
X177002200Y-166007200D01*
D10*
D11*
X10000000Y-10000000D02*
X10000000Y-200007200D01*
X287002200Y-200007200D01*
X287002200Y-10000000D01*
X10000000Y-10000000D01*
D10*
D11*
X12000000Y-12000000D02*
X12000000Y-198007200D01*
X285002200Y-198007200D01*
X285002200Y-12000000D01*
X12000000Y-12000000D01*
D10*
D11*
X60000000Y-12000000D02*
X60000000Y-10000000D01*
D10*
D11*
X110000000Y-12000000D02*
X110000000Y-10000000D01*
D10*
D11*
X160000000Y-12000000D02*
X160000000Y-10000000D01*
D10*
D11*
X210000000Y-12000000D02*
X210000000Y-10000000D01*
D10*
D11*
X260000000Y-12000000D02*
X260000000Y-10000000D01*
D10*
D11*
X36065476Y-11588095D02*
X35322619Y-11588095D01*
X35694047Y-11588095D02*
X35694047Y-10288095D01*
X35570238Y-10473809D01*
X35446428Y-10597619D01*
X35322619Y-10659523D01*
D10*
D11*
X85322619Y-10411904D02*
X85384523Y-10350000D01*
X85508333Y-10288095D01*
X85817857Y-10288095D01*
X85941666Y-10350000D01*
X86003571Y-10411904D01*
X86065476Y-10535714D01*
X86065476Y-10659523D01*
X86003571Y-10845238D01*
X85260714Y-11588095D01*
X86065476Y-11588095D01*
D10*
D11*
X135260714Y-10288095D02*
X136065476Y-10288095D01*
X135632142Y-10783333D01*
X135817857Y-10783333D01*
X135941666Y-10845238D01*
X136003571Y-10907142D01*
X136065476Y-11030952D01*
X136065476Y-11340476D01*
X136003571Y-11464285D01*
X135941666Y-11526190D01*
X135817857Y-11588095D01*
X135446428Y-11588095D01*
X135322619Y-11526190D01*
X135260714Y-11464285D01*
D10*
D11*
X185941666Y-10721428D02*
X185941666Y-11588095D01*
X185632142Y-10226190D02*
X185322619Y-11154761D01*
X186127380Y-11154761D01*
D10*
D11*
X236003571Y-10288095D02*
X235384523Y-10288095D01*
X235322619Y-10907142D01*
X235384523Y-10845238D01*
X235508333Y-10783333D01*
X235817857Y-10783333D01*
X235941666Y-10845238D01*
X236003571Y-10907142D01*
X236065476Y-11030952D01*
X236065476Y-11340476D01*
X236003571Y-11464285D01*
X235941666Y-11526190D01*
X235817857Y-11588095D01*
X235508333Y-11588095D01*
X235384523Y-11526190D01*
X235322619Y-11464285D01*
D10*
D11*
X285941666Y-10288095D02*
X285694047Y-10288095D01*
X285570238Y-10350000D01*
X285508333Y-10411904D01*
X285384523Y-10597619D01*
X285322619Y-10845238D01*
X285322619Y-11340476D01*
X285384523Y-11464285D01*
X285446428Y-11526190D01*
X285570238Y-11588095D01*
X285817857Y-11588095D01*
X285941666Y-11526190D01*
X286003571Y-11464285D01*
X286065476Y-11340476D01*
X286065476Y-11030952D01*
X286003571Y-10907142D01*
X285941666Y-10845238D01*
X285817857Y-10783333D01*
X285570238Y-10783333D01*
X285446428Y-10845238D01*
X285384523Y-10907142D01*
X285322619Y-11030952D01*
D10*
D11*
X60000000Y-198007200D02*
X60000000Y-200007200D01*
D10*
D11*
X110000000Y-198007200D02*
X110000000Y-200007200D01*
D10*
D11*
X160000000Y-198007200D02*
X160000000Y-200007200D01*
D10*
D11*
X210000000Y-198007200D02*
X210000000Y-200007200D01*
D10*
D11*
X260000000Y-198007200D02*
X260000000Y-200007200D01*
D10*
D11*
X36065476Y-199595295D02*
X35322619Y-199595295D01*
X35694047Y-199595295D02*
X35694047Y-198295295D01*
X35570238Y-198481009D01*
X35446428Y-198604819D01*
X35322619Y-198666723D01*
D10*
D11*
X85322619Y-198419104D02*
X85384523Y-198357200D01*
X85508333Y-198295295D01*
X85817857Y-198295295D01*
X85941666Y-198357200D01*
X86003571Y-198419104D01*
X86065476Y-198542914D01*
X86065476Y-198666723D01*
X86003571Y-198852438D01*
X85260714Y-199595295D01*
X86065476Y-199595295D01*
D10*
D11*
X135260714Y-198295295D02*
X136065476Y-198295295D01*
X135632142Y-198790533D01*
X135817857Y-198790533D01*
X135941666Y-198852438D01*
X136003571Y-198914342D01*
X136065476Y-199038152D01*
X136065476Y-199347676D01*
X136003571Y-199471485D01*
X135941666Y-199533390D01*
X135817857Y-199595295D01*
X135446428Y-199595295D01*
X135322619Y-199533390D01*
X135260714Y-199471485D01*
D10*
D11*
X185941666Y-198728628D02*
X185941666Y-199595295D01*
X185632142Y-198233390D02*
X185322619Y-199161961D01*
X186127380Y-199161961D01*
D10*
D11*
X236003571Y-198295295D02*
X235384523Y-198295295D01*
X235322619Y-198914342D01*
X235384523Y-198852438D01*
X235508333Y-198790533D01*
X235817857Y-198790533D01*
X235941666Y-198852438D01*
X236003571Y-198914342D01*
X236065476Y-199038152D01*
X236065476Y-199347676D01*
X236003571Y-199471485D01*
X235941666Y-199533390D01*
X235817857Y-199595295D01*
X235508333Y-199595295D01*
X235384523Y-199533390D01*
X235322619Y-199471485D01*
D10*
D11*
X285941666Y-198295295D02*
X285694047Y-198295295D01*
X285570238Y-198357200D01*
X285508333Y-198419104D01*
X285384523Y-198604819D01*
X285322619Y-198852438D01*
X285322619Y-199347676D01*
X285384523Y-199471485D01*
X285446428Y-199533390D01*
X285570238Y-199595295D01*
X285817857Y-199595295D01*
X285941666Y-199533390D01*
X286003571Y-199471485D01*
X286065476Y-199347676D01*
X286065476Y-199038152D01*
X286003571Y-198914342D01*
X285941666Y-198852438D01*
X285817857Y-198790533D01*
X285570238Y-198790533D01*
X285446428Y-198852438D01*
X285384523Y-198914342D01*
X285322619Y-199038152D01*
D10*
D11*
X10000000Y-60000000D02*
X12000000Y-60000000D01*
D10*
D11*
X10000000Y-110000000D02*
X12000000Y-110000000D01*
D10*
D11*
X10000000Y-160000000D02*
X12000000Y-160000000D01*
D10*
D11*
X10690476Y-35216666D02*
X11309523Y-35216666D01*
X10566666Y-35588095D02*
X11000000Y-34288095D01*
X11433333Y-35588095D01*
D10*
D11*
X11092857Y-84907142D02*
X11278571Y-84969047D01*
X11340476Y-85030952D01*
X11402380Y-85154761D01*
X11402380Y-85340476D01*
X11340476Y-85464285D01*
X11278571Y-85526190D01*
X11154761Y-85588095D01*
X10659523Y-85588095D01*
X10659523Y-84288095D01*
X11092857Y-84288095D01*
X11216666Y-84350000D01*
X11278571Y-84411904D01*
X11340476Y-84535714D01*
X11340476Y-84659523D01*
X11278571Y-84783333D01*
X11216666Y-84845238D01*
X11092857Y-84907142D01*
X10659523Y-84907142D01*
D10*
D11*
X11402380Y-135464285D02*
X11340476Y-135526190D01*
X11154761Y-135588095D01*
X11030952Y-135588095D01*
X10845238Y-135526190D01*
X10721428Y-135402380D01*
X10659523Y-135278571D01*
X10597619Y-135030952D01*
X10597619Y-134845238D01*
X10659523Y-134597619D01*
X10721428Y-134473809D01*
X10845238Y-134350000D01*
X11030952Y-134288095D01*
X11154761Y-134288095D01*
X11340476Y-134350000D01*
X11402380Y-134411904D01*
D10*
D11*
X10659523Y-185588095D02*
X10659523Y-184288095D01*
X10969047Y-184288095D01*
X11154761Y-184350000D01*
X11278571Y-184473809D01*
X11340476Y-184597619D01*
X11402380Y-184845238D01*
X11402380Y-185030952D01*
X11340476Y-185278571D01*
X11278571Y-185402380D01*
X11154761Y-185526190D01*
X10969047Y-185588095D01*
X10659523Y-185588095D01*
D10*
D11*
X287002200Y-60000000D02*
X285002200Y-60000000D01*
D10*
D11*
X287002200Y-110000000D02*
X285002200Y-110000000D01*
D10*
D11*
X287002200Y-160000000D02*
X285002200Y-160000000D01*
D10*
D11*
X285692676Y-35216666D02*
X286311723Y-35216666D01*
X285568866Y-35588095D02*
X286002200Y-34288095D01*
X286435533Y-35588095D01*
D10*
D11*
X286095057Y-84907142D02*
X286280771Y-84969047D01*
X286342676Y-85030952D01*
X286404580Y-85154761D01*
X286404580Y-85340476D01*
X286342676Y-85464285D01*
X286280771Y-85526190D01*
X286156961Y-85588095D01*
X285661723Y-85588095D01*
X285661723Y-84288095D01*
X286095057Y-84288095D01*
X286218866Y-84350000D01*
X286280771Y-84411904D01*
X286342676Y-84535714D01*
X286342676Y-84659523D01*
X286280771Y-84783333D01*
X286218866Y-84845238D01*
X286095057Y-84907142D01*
X285661723Y-84907142D01*
D10*
D11*
X286404580Y-135464285D02*
X286342676Y-135526190D01*
X286156961Y-135588095D01*
X286033152Y-135588095D01*
X285847438Y-135526190D01*
X285723628Y-135402380D01*
X285661723Y-135278571D01*
X285599819Y-135030952D01*
X285599819Y-134845238D01*
X285661723Y-134597619D01*
X285723628Y-134473809D01*
X285847438Y-134350000D01*
X286033152Y-134288095D01*
X286156961Y-134288095D01*
X286342676Y-134350000D01*
X286404580Y-134411904D01*
D10*
D11*
X285661723Y-185588095D02*
X285661723Y-184288095D01*
X285971247Y-184288095D01*
X286156961Y-184350000D01*
X286280771Y-184473809D01*
X286342676Y-184597619D01*
X286404580Y-184845238D01*
X286404580Y-185030952D01*
X286342676Y-185278571D01*
X286280771Y-185402380D01*
X286156961Y-185526190D01*
X285971247Y-185588095D01*
X285661723Y-185588095D01*
D10*
D11*
X200434342Y-193785771D02*
X200434342Y-192285771D01*
X200791485Y-192285771D01*
X201005771Y-192357200D01*
X201148628Y-192500057D01*
X201220057Y-192642914D01*
X201291485Y-192928628D01*
X201291485Y-193142914D01*
X201220057Y-193428628D01*
X201148628Y-193571485D01*
X201005771Y-193714342D01*
X200791485Y-193785771D01*
X200434342Y-193785771D01*
X202577200Y-193785771D02*
X202577200Y-193000057D01*
X202505771Y-192857200D01*
X202362914Y-192785771D01*
X202077200Y-192785771D01*
X201934342Y-192857200D01*
X202577200Y-193714342D02*
X202434342Y-193785771D01*
X202077200Y-193785771D01*
X201934342Y-193714342D01*
X201862914Y-193571485D01*
X201862914Y-193428628D01*
X201934342Y-193285771D01*
X202077200Y-193214342D01*
X202434342Y-193214342D01*
X202577200Y-193142914D01*
X203077200Y-192785771D02*
X203648628Y-192785771D01*
X203291485Y-192285771D02*
X203291485Y-193571485D01*
X203362914Y-193714342D01*
X203505771Y-193785771D01*
X203648628Y-193785771D01*
X204720057Y-193714342D02*
X204577200Y-193785771D01*
X204291485Y-193785771D01*
X204148628Y-193714342D01*
X204077200Y-193571485D01*
X204077200Y-193000057D01*
X204148628Y-192857200D01*
X204291485Y-192785771D01*
X204577200Y-192785771D01*
X204720057Y-192857200D01*
X204791485Y-193000057D01*
X204791485Y-193142914D01*
X204077200Y-193285771D01*
X205434342Y-193642914D02*
X205505771Y-193714342D01*
X205434342Y-193785771D01*
X205362914Y-193714342D01*
X205434342Y-193642914D01*
X205434342Y-193785771D01*
X205434342Y-192857200D02*
X205505771Y-192928628D01*
X205434342Y-193000057D01*
X205362914Y-192928628D01*
X205434342Y-192857200D01*
X205434342Y-193000057D01*
D10*
D11*
X177002200Y-194507200D02*
X285002200Y-194507200D01*
D10*
D11*
X178434342Y-196585771D02*
X178434342Y-195085771D01*
X179291485Y-196585771D02*
X178648628Y-195728628D01*
X179291485Y-195085771D02*
X178434342Y-195942914D01*
X179934342Y-196585771D02*
X179934342Y-195585771D01*
X179934342Y-195085771D02*
X179862914Y-195157200D01*
X179934342Y-195228628D01*
X180005771Y-195157200D01*
X179934342Y-195085771D01*
X179934342Y-195228628D01*
X181505771Y-196442914D02*
X181434342Y-196514342D01*
X181220057Y-196585771D01*
X181077200Y-196585771D01*
X180862914Y-196514342D01*
X180720057Y-196371485D01*
X180648628Y-196228628D01*
X180577200Y-195942914D01*
X180577200Y-195728628D01*
X180648628Y-195442914D01*
X180720057Y-195300057D01*
X180862914Y-195157200D01*
X181077200Y-195085771D01*
X181220057Y-195085771D01*
X181434342Y-195157200D01*
X181505771Y-195228628D01*
X182791485Y-196585771D02*
X182791485Y-195800057D01*
X182720057Y-195657200D01*
X182577200Y-195585771D01*
X182291485Y-195585771D01*
X182148628Y-195657200D01*
X182791485Y-196514342D02*
X182648628Y-196585771D01*
X182291485Y-196585771D01*
X182148628Y-196514342D01*
X182077200Y-196371485D01*
X182077200Y-196228628D01*
X182148628Y-196085771D01*
X182291485Y-196014342D01*
X182648628Y-196014342D01*
X182791485Y-195942914D01*
X184148628Y-196585771D02*
X184148628Y-195085771D01*
X184148628Y-196514342D02*
X184005771Y-196585771D01*
X183720057Y-196585771D01*
X183577200Y-196514342D01*
X183505771Y-196442914D01*
X183434342Y-196300057D01*
X183434342Y-195871485D01*
X183505771Y-195728628D01*
X183577200Y-195657200D01*
X183720057Y-195585771D01*
X184005771Y-195585771D01*
X184148628Y-195657200D01*
X186005771Y-195800057D02*
X186505771Y-195800057D01*
X186720057Y-196585771D02*
X186005771Y-196585771D01*
X186005771Y-195085771D01*
X186720057Y-195085771D01*
X187362914Y-196442914D02*
X187434342Y-196514342D01*
X187362914Y-196585771D01*
X187291485Y-196514342D01*
X187362914Y-196442914D01*
X187362914Y-196585771D01*
X188077200Y-196585771D02*
X188077200Y-195085771D01*
X188434342Y-195085771D01*
X188648628Y-195157200D01*
X188791485Y-195300057D01*
X188862914Y-195442914D01*
X188934342Y-195728628D01*
X188934342Y-195942914D01*
X188862914Y-196228628D01*
X188791485Y-196371485D01*
X188648628Y-196514342D01*
X188434342Y-196585771D01*
X188077200Y-196585771D01*
X189577200Y-196442914D02*
X189648628Y-196514342D01*
X189577200Y-196585771D01*
X189505771Y-196514342D01*
X189577200Y-196442914D01*
X189577200Y-196585771D01*
X190220057Y-196157200D02*
X190934342Y-196157200D01*
X190077200Y-196585771D02*
X190577200Y-195085771D01*
X191077200Y-196585771D01*
X191577200Y-196442914D02*
X191648628Y-196514342D01*
X191577200Y-196585771D01*
X191505771Y-196514342D01*
X191577200Y-196442914D01*
X191577200Y-196585771D01*
X194577200Y-196585771D02*
X194577200Y-195085771D01*
X194720057Y-196014342D02*
X195148628Y-196585771D01*
X195148628Y-195585771D02*
X194577200Y-196157200D01*
X195791485Y-196585771D02*
X195791485Y-195585771D01*
X195791485Y-195085771D02*
X195720057Y-195157200D01*
X195791485Y-195228628D01*
X195862914Y-195157200D01*
X195791485Y-195085771D01*
X195791485Y-195228628D01*
X197148628Y-196514342D02*
X197005771Y-196585771D01*
X196720057Y-196585771D01*
X196577200Y-196514342D01*
X196505771Y-196442914D01*
X196434342Y-196300057D01*
X196434342Y-195871485D01*
X196505771Y-195728628D01*
X196577200Y-195657200D01*
X196720057Y-195585771D01*
X197005771Y-195585771D01*
X197148628Y-195657200D01*
X198434342Y-196585771D02*
X198434342Y-195800057D01*
X198362914Y-195657200D01*
X198220057Y-195585771D01*
X197934342Y-195585771D01*
X197791485Y-195657200D01*
X198434342Y-196514342D02*
X198291485Y-196585771D01*
X197934342Y-196585771D01*
X197791485Y-196514342D01*
X197720057Y-196371485D01*
X197720057Y-196228628D01*
X197791485Y-196085771D01*
X197934342Y-196014342D01*
X198291485Y-196014342D01*
X198434342Y-195942914D01*
X199791485Y-196585771D02*
X199791485Y-195085771D01*
X199791485Y-196514342D02*
X199648628Y-196585771D01*
X199362914Y-196585771D01*
X199220057Y-196514342D01*
X199148628Y-196442914D01*
X199077200Y-196300057D01*
X199077200Y-195871485D01*
X199148628Y-195728628D01*
X199220057Y-195657200D01*
X199362914Y-195585771D01*
X199648628Y-195585771D01*
X199791485Y-195657200D01*
X202077200Y-197157200D02*
X202005771Y-197085771D01*
X201862914Y-196871485D01*
X201791485Y-196728628D01*
X201720057Y-196514342D01*
X201648628Y-196157200D01*
X201648628Y-195871485D01*
X201720057Y-195514342D01*
X201791485Y-195300057D01*
X201862914Y-195157200D01*
X202005771Y-194942914D01*
X202077200Y-194871485D01*
X203362914Y-195085771D02*
X202648628Y-195085771D01*
X202577200Y-195800057D01*
X202648628Y-195728628D01*
X202791485Y-195657200D01*
X203148628Y-195657200D01*
X203291485Y-195728628D01*
X203362914Y-195800057D01*
X203434342Y-195942914D01*
X203434342Y-196300057D01*
X203362914Y-196442914D01*
X203291485Y-196514342D01*
X203148628Y-196585771D01*
X202791485Y-196585771D01*
X202648628Y-196514342D01*
X202577200Y-196442914D01*
X204077200Y-196442914D02*
X204148628Y-196514342D01*
X204077200Y-196585771D01*
X204005771Y-196514342D01*
X204077200Y-196442914D01*
X204077200Y-196585771D01*
X204862914Y-196585771D02*
X205148628Y-196585771D01*
X205291485Y-196514342D01*
X205362914Y-196442914D01*
X205505771Y-196228628D01*
X205577200Y-195942914D01*
X205577200Y-195371485D01*
X205505771Y-195228628D01*
X205434342Y-195157200D01*
X205291485Y-195085771D01*
X205005771Y-195085771D01*
X204862914Y-195157200D01*
X204791485Y-195228628D01*
X204720057Y-195371485D01*
X204720057Y-195728628D01*
X204791485Y-195871485D01*
X204862914Y-195942914D01*
X205005771Y-196014342D01*
X205291485Y-196014342D01*
X205434342Y-195942914D01*
X205505771Y-195871485D01*
X205577200Y-195728628D01*
X206291485Y-196585771D02*
X206577200Y-196585771D01*
X206720057Y-196514342D01*
X206791485Y-196442914D01*
X206934342Y-196228628D01*
X207005771Y-195942914D01*
X207005771Y-195371485D01*
X206934342Y-195228628D01*
X206862914Y-195157200D01*
X206720057Y-195085771D01*
X206434342Y-195085771D01*
X206291485Y-195157200D01*
X206220057Y-195228628D01*
X206148628Y-195371485D01*
X206148628Y-195728628D01*
X206220057Y-195871485D01*
X206291485Y-195942914D01*
X206434342Y-196014342D01*
X206720057Y-196014342D01*
X206862914Y-195942914D01*
X206934342Y-195871485D01*
X207005771Y-195728628D01*
X207648628Y-196442914D02*
X207720057Y-196514342D01*
X207648628Y-196585771D01*
X207577200Y-196514342D01*
X207648628Y-196442914D01*
X207648628Y-196585771D01*
X208648628Y-195085771D02*
X208791485Y-195085771D01*
X208934342Y-195157200D01*
X209005771Y-195228628D01*
X209077200Y-195371485D01*
X209148628Y-195657200D01*
X209148628Y-196014342D01*
X209077200Y-196300057D01*
X209005771Y-196442914D01*
X208934342Y-196514342D01*
X208791485Y-196585771D01*
X208648628Y-196585771D01*
X208505771Y-196514342D01*
X208434342Y-196442914D01*
X208362914Y-196300057D01*
X208291485Y-196014342D01*
X208291485Y-195657200D01*
X208362914Y-195371485D01*
X208434342Y-195228628D01*
X208505771Y-195157200D01*
X208648628Y-195085771D01*
X209791485Y-196014342D02*
X210934342Y-196014342D01*
X212434342Y-196585771D02*
X211577200Y-196585771D01*
X212005771Y-196585771D02*
X212005771Y-195085771D01*
X211862914Y-195300057D01*
X211720057Y-195442914D01*
X211577200Y-195514342D01*
X213362914Y-195085771D02*
X213505771Y-195085771D01*
X213648628Y-195157200D01*
X213720057Y-195228628D01*
X213791485Y-195371485D01*
X213862914Y-195657200D01*
X213862914Y-196014342D01*
X213791485Y-196300057D01*
X213720057Y-196442914D01*
X213648628Y-196514342D01*
X213505771Y-196585771D01*
X213362914Y-196585771D01*
X213220057Y-196514342D01*
X213148628Y-196442914D01*
X213077200Y-196300057D01*
X213005771Y-196014342D01*
X213005771Y-195657200D01*
X213077200Y-195371485D01*
X213148628Y-195228628D01*
X213220057Y-195157200D01*
X213362914Y-195085771D01*
X214362914Y-195085771D02*
X215362914Y-195085771D01*
X214720057Y-196585771D01*
X215791485Y-195085771D02*
X216791485Y-195085771D01*
X216148628Y-196585771D01*
X217291485Y-195228628D02*
X217362914Y-195157200D01*
X217505771Y-195085771D01*
X217862914Y-195085771D01*
X218005771Y-195157200D01*
X218077200Y-195228628D01*
X218148628Y-195371485D01*
X218148628Y-195514342D01*
X218077200Y-195728628D01*
X217220057Y-196585771D01*
X218148628Y-196585771D01*
X218791485Y-196014342D02*
X219934342Y-196014342D01*
X221291485Y-195585771D02*
X221291485Y-196800057D01*
X221220057Y-196942914D01*
X221148628Y-197014342D01*
X221005771Y-197085771D01*
X220791485Y-197085771D01*
X220648628Y-197014342D01*
X221291485Y-196514342D02*
X221148628Y-196585771D01*
X220862914Y-196585771D01*
X220720057Y-196514342D01*
X220648628Y-196442914D01*
X220577200Y-196300057D01*
X220577200Y-195871485D01*
X220648628Y-195728628D01*
X220720057Y-195657200D01*
X220862914Y-195585771D01*
X221148628Y-195585771D01*
X221291485Y-195657200D01*
X222648628Y-195085771D02*
X222362914Y-195085771D01*
X222220057Y-195157200D01*
X222148628Y-195228628D01*
X222005771Y-195442914D01*
X221934342Y-195728628D01*
X221934342Y-196300057D01*
X222005771Y-196442914D01*
X222077200Y-196514342D01*
X222220057Y-196585771D01*
X222505771Y-196585771D01*
X222648628Y-196514342D01*
X222720057Y-196442914D01*
X222791485Y-196300057D01*
X222791485Y-195942914D01*
X222720057Y-195800057D01*
X222648628Y-195728628D01*
X222505771Y-195657200D01*
X222220057Y-195657200D01*
X222077200Y-195728628D01*
X222005771Y-195800057D01*
X221934342Y-195942914D01*
X223505771Y-196585771D02*
X223791485Y-196585771D01*
X223934342Y-196514342D01*
X224005771Y-196442914D01*
X224148628Y-196228628D01*
X224220057Y-195942914D01*
X224220057Y-195371485D01*
X224148628Y-195228628D01*
X224077200Y-195157200D01*
X223934342Y-195085771D01*
X223648628Y-195085771D01*
X223505771Y-195157200D01*
X223434342Y-195228628D01*
X223362914Y-195371485D01*
X223362914Y-195728628D01*
X223434342Y-195871485D01*
X223505771Y-195942914D01*
X223648628Y-196014342D01*
X223934342Y-196014342D01*
X224077200Y-195942914D01*
X224148628Y-195871485D01*
X224220057Y-195728628D01*
X225648628Y-196585771D02*
X224791485Y-196585771D01*
X225220057Y-196585771D02*
X225220057Y-195085771D01*
X225077200Y-195300057D01*
X224934342Y-195442914D01*
X224791485Y-195514342D01*
X226362914Y-196585771D02*
X226648628Y-196585771D01*
X226791485Y-196514342D01*
X226862914Y-196442914D01*
X227005771Y-196228628D01*
X227077199Y-195942914D01*
X227077199Y-195371485D01*
X227005771Y-195228628D01*
X226934342Y-195157200D01*
X226791485Y-195085771D01*
X226505771Y-195085771D01*
X226362914Y-195157200D01*
X226291485Y-195228628D01*
X226220057Y-195371485D01*
X226220057Y-195728628D01*
X226291485Y-195871485D01*
X226362914Y-195942914D01*
X226505771Y-196014342D01*
X226791485Y-196014342D01*
X226934342Y-195942914D01*
X227005771Y-195871485D01*
X227077199Y-195728628D01*
X228362914Y-196585771D02*
X228362914Y-195085771D01*
X228362914Y-196514342D02*
X228220057Y-196585771D01*
X227934342Y-196585771D01*
X227791485Y-196514342D01*
X227720057Y-196442914D01*
X227648628Y-196300057D01*
X227648628Y-195871485D01*
X227720057Y-195728628D01*
X227791485Y-195657200D01*
X227934342Y-195585771D01*
X228220057Y-195585771D01*
X228362914Y-195657200D01*
X229862914Y-196585771D02*
X229005771Y-196585771D01*
X229434342Y-196585771D02*
X229434342Y-195085771D01*
X229291485Y-195300057D01*
X229148628Y-195442914D01*
X229005771Y-195514342D01*
X230434342Y-195228628D02*
X230505771Y-195157200D01*
X230648628Y-195085771D01*
X231005771Y-195085771D01*
X231148628Y-195157200D01*
X231220057Y-195228628D01*
X231291485Y-195371485D01*
X231291485Y-195514342D01*
X231220057Y-195728628D01*
X230362914Y-196585771D01*
X231291485Y-196585771D01*
X232577199Y-196514342D02*
X232434342Y-196585771D01*
X232148628Y-196585771D01*
X232005771Y-196514342D01*
X231934342Y-196442914D01*
X231862914Y-196300057D01*
X231862914Y-195871485D01*
X231934342Y-195728628D01*
X232005771Y-195657200D01*
X232148628Y-195585771D01*
X232434342Y-195585771D01*
X232577199Y-195657200D01*
X233077199Y-195085771D02*
X234077199Y-195085771D01*
X233434342Y-196585771D01*
X234934342Y-195085771D02*
X235077199Y-195085771D01*
X235220057Y-195157200D01*
X235291485Y-195228628D01*
X235362914Y-195371485D01*
X235434342Y-195657200D01*
X235434342Y-196014342D01*
X235362914Y-196300057D01*
X235291485Y-196442914D01*
X235220057Y-196514342D01*
X235077199Y-196585771D01*
X234934342Y-196585771D01*
X234791485Y-196514342D01*
X234720057Y-196442914D01*
X234648628Y-196300057D01*
X234577199Y-196014342D01*
X234577199Y-195657200D01*
X234648628Y-195371485D01*
X234720057Y-195228628D01*
X234791485Y-195157200D01*
X234934342Y-195085771D01*
X235934342Y-197157200D02*
X236005771Y-197085771D01*
X236148628Y-196871485D01*
X236220057Y-196728628D01*
X236291485Y-196514342D01*
X236362914Y-196157200D01*
X236362914Y-195871485D01*
X236291485Y-195514342D01*
X236220057Y-195300057D01*
X236148628Y-195157200D01*
X236005771Y-194942914D01*
X235934342Y-194871485D01*
D10*
D11*
X177002200Y-191507200D02*
X285002200Y-191507200D01*
D10*
D12*
X264411485Y-193785771D02*
X263911485Y-193071485D01*
X263554342Y-193785771D02*
X263554342Y-192285771D01*
X264125771Y-192285771D01*
X264268628Y-192357200D01*
X264340057Y-192428628D01*
X264411485Y-192571485D01*
X264411485Y-192785771D01*
X264340057Y-192928628D01*
X264268628Y-193000057D01*
X264125771Y-193071485D01*
X263554342Y-193071485D01*
X265625771Y-193714342D02*
X265482914Y-193785771D01*
X265197200Y-193785771D01*
X265054342Y-193714342D01*
X264982914Y-193571485D01*
X264982914Y-193000057D01*
X265054342Y-192857200D01*
X265197200Y-192785771D01*
X265482914Y-192785771D01*
X265625771Y-192857200D01*
X265697200Y-193000057D01*
X265697200Y-193142914D01*
X264982914Y-193285771D01*
X266197200Y-192785771D02*
X266554342Y-193785771D01*
X266911485Y-192785771D01*
X267482914Y-193642914D02*
X267554342Y-193714342D01*
X267482914Y-193785771D01*
X267411485Y-193714342D01*
X267482914Y-193642914D01*
X267482914Y-193785771D01*
X267482914Y-192857200D02*
X267554342Y-192928628D01*
X267482914Y-193000057D01*
X267411485Y-192928628D01*
X267482914Y-192857200D01*
X267482914Y-193000057D01*
D10*
D11*
X178362914Y-193714342D02*
X178577200Y-193785771D01*
X178934342Y-193785771D01*
X179077200Y-193714342D01*
X179148628Y-193642914D01*
X179220057Y-193500057D01*
X179220057Y-193357200D01*
X179148628Y-193214342D01*
X179077200Y-193142914D01*
X178934342Y-193071485D01*
X178648628Y-193000057D01*
X178505771Y-192928628D01*
X178434342Y-192857200D01*
X178362914Y-192714342D01*
X178362914Y-192571485D01*
X178434342Y-192428628D01*
X178505771Y-192357200D01*
X178648628Y-192285771D01*
X179005771Y-192285771D01*
X179220057Y-192357200D01*
X179862914Y-193785771D02*
X179862914Y-192785771D01*
X179862914Y-192285771D02*
X179791485Y-192357200D01*
X179862914Y-192428628D01*
X179934342Y-192357200D01*
X179862914Y-192285771D01*
X179862914Y-192428628D01*
X180434342Y-192785771D02*
X181220057Y-192785771D01*
X180434342Y-193785771D01*
X181220057Y-193785771D01*
X182362914Y-193714342D02*
X182220057Y-193785771D01*
X181934342Y-193785771D01*
X181791485Y-193714342D01*
X181720057Y-193571485D01*
X181720057Y-193000057D01*
X181791485Y-192857200D01*
X181934342Y-192785771D01*
X182220057Y-192785771D01*
X182362914Y-192857200D01*
X182434342Y-193000057D01*
X182434342Y-193142914D01*
X181720057Y-193285771D01*
X183077200Y-193642914D02*
X183148628Y-193714342D01*
X183077200Y-193785771D01*
X183005771Y-193714342D01*
X183077200Y-193642914D01*
X183077200Y-193785771D01*
X183077200Y-192857200D02*
X183148628Y-192928628D01*
X183077200Y-193000057D01*
X183005771Y-192928628D01*
X183077200Y-192857200D01*
X183077200Y-193000057D01*
X184862914Y-193357200D02*
X185577200Y-193357200D01*
X184720057Y-193785771D02*
X185220057Y-192285771D01*
X185720057Y-193785771D01*
X186862914Y-192785771D02*
X186862914Y-193785771D01*
X186505771Y-192214342D02*
X186148628Y-193285771D01*
X187077200Y-193285771D01*
D10*
D11*
X263434342Y-196585771D02*
X263434342Y-195085771D01*
X264791485Y-196585771D02*
X264791485Y-195085771D01*
X264791485Y-196514342D02*
X264648628Y-196585771D01*
X264362914Y-196585771D01*
X264220057Y-196514342D01*
X264148628Y-196442914D01*
X264077200Y-196300057D01*
X264077200Y-195871485D01*
X264148628Y-195728628D01*
X264220057Y-195657200D01*
X264362914Y-195585771D01*
X264648628Y-195585771D01*
X264791485Y-195657200D01*
X265505771Y-196442914D02*
X265577200Y-196514342D01*
X265505771Y-196585771D01*
X265434342Y-196514342D01*
X265505771Y-196442914D01*
X265505771Y-196585771D01*
X265505771Y-195657200D02*
X265577200Y-195728628D01*
X265505771Y-195800057D01*
X265434342Y-195728628D01*
X265505771Y-195657200D01*
X265505771Y-195800057D01*
X268148628Y-196585771D02*
X267291485Y-196585771D01*
X267720057Y-196585771D02*
X267720057Y-195085771D01*
X267577200Y-195300057D01*
X267434342Y-195442914D01*
X267291485Y-195514342D01*
X269862914Y-195014342D02*
X268577200Y-196942914D01*
X271148628Y-196585771D02*
X270291485Y-196585771D01*
X270720057Y-196585771D02*
X270720057Y-195085771D01*
X270577200Y-195300057D01*
X270434342Y-195442914D01*
X270291485Y-195514342D01*
D10*
D11*
X177002200Y-187507200D02*
X285002200Y-187507200D01*
D10*
D13*
X178714580Y-188211961D02*
X179857438Y-188211961D01*
X179036009Y-190211961D02*
X179286009Y-188211961D01*
X180274104Y-190211961D02*
X180440771Y-188878628D01*
X180524104Y-188211961D02*
X180416961Y-188307200D01*
X180500295Y-188402438D01*
X180607438Y-188307200D01*
X180524104Y-188211961D01*
X180500295Y-188402438D01*
X181107438Y-188878628D02*
X181869342Y-188878628D01*
X181476485Y-188211961D02*
X181262200Y-189926247D01*
X181333628Y-190116723D01*
X181512200Y-190211961D01*
X181702676Y-190211961D01*
X182655057Y-190211961D02*
X182476485Y-190116723D01*
X182405057Y-189926247D01*
X182619342Y-188211961D01*
X184190771Y-190116723D02*
X183988390Y-190211961D01*
X183607438Y-190211961D01*
X183428866Y-190116723D01*
X183357438Y-189926247D01*
X183452676Y-189164342D01*
X183571723Y-188973866D01*
X183774104Y-188878628D01*
X184155057Y-188878628D01*
X184333628Y-188973866D01*
X184405057Y-189164342D01*
X184381247Y-189354819D01*
X183405057Y-189545295D01*
X185155057Y-190021485D02*
X185238390Y-190116723D01*
X185131247Y-190211961D01*
X185047914Y-190116723D01*
X185155057Y-190021485D01*
X185131247Y-190211961D01*
X185286009Y-188973866D02*
X185369342Y-189069104D01*
X185262200Y-189164342D01*
X185178866Y-189069104D01*
X185286009Y-188973866D01*
X185262200Y-189164342D01*
D10*
D11*
X178934342Y-185600057D02*
X178434342Y-185600057D01*
X178434342Y-186385771D02*
X178434342Y-184885771D01*
X179148628Y-184885771D01*
X179720057Y-186385771D02*
X179720057Y-185385771D01*
X179720057Y-184885771D02*
X179648628Y-184957200D01*
X179720057Y-185028628D01*
X179791485Y-184957200D01*
X179720057Y-184885771D01*
X179720057Y-185028628D01*
X180648628Y-186385771D02*
X180505771Y-186314342D01*
X180434342Y-186171485D01*
X180434342Y-184885771D01*
X181791485Y-186314342D02*
X181648628Y-186385771D01*
X181362914Y-186385771D01*
X181220057Y-186314342D01*
X181148628Y-186171485D01*
X181148628Y-185600057D01*
X181220057Y-185457200D01*
X181362914Y-185385771D01*
X181648628Y-185385771D01*
X181791485Y-185457200D01*
X181862914Y-185600057D01*
X181862914Y-185742914D01*
X181148628Y-185885771D01*
X182505771Y-186242914D02*
X182577200Y-186314342D01*
X182505771Y-186385771D01*
X182434342Y-186314342D01*
X182505771Y-186242914D01*
X182505771Y-186385771D01*
X182505771Y-185457200D02*
X182577200Y-185528628D01*
X182505771Y-185600057D01*
X182434342Y-185528628D01*
X182505771Y-185457200D01*
X182505771Y-185600057D01*
X184362914Y-186385771D02*
X184362914Y-184885771D01*
X184934342Y-184885771D01*
X185077200Y-184957200D01*
X185148628Y-185028628D01*
X185220057Y-185171485D01*
X185220057Y-185385771D01*
X185148628Y-185528628D01*
X185077200Y-185600057D01*
X184934342Y-185671485D01*
X184362914Y-185671485D01*
X185862914Y-186385771D02*
X185862914Y-185385771D01*
X185862914Y-185671485D02*
X185934342Y-185528628D01*
X186005771Y-185457200D01*
X186148628Y-185385771D01*
X186291485Y-185385771D01*
X187005771Y-186385771D02*
X186862914Y-186314342D01*
X186791485Y-186242914D01*
X186720057Y-186100057D01*
X186720057Y-185671485D01*
X186791485Y-185528628D01*
X186862914Y-185457200D01*
X187005771Y-185385771D01*
X187220057Y-185385771D01*
X187362914Y-185457200D01*
X187434342Y-185528628D01*
X187505771Y-185671485D01*
X187505771Y-186100057D01*
X187434342Y-186242914D01*
X187362914Y-186314342D01*
X187220057Y-186385771D01*
X187005771Y-186385771D01*
X188148628Y-186385771D02*
X188148628Y-184885771D01*
X188648628Y-185957200D01*
X189148628Y-184885771D01*
X189148628Y-186385771D01*
X189862914Y-186385771D02*
X189862914Y-185385771D01*
X189862914Y-184885771D02*
X189791485Y-184957200D01*
X189862914Y-185028628D01*
X189934342Y-184957200D01*
X189862914Y-184885771D01*
X189862914Y-185028628D01*
X191220057Y-186314342D02*
X191077200Y-186385771D01*
X190791485Y-186385771D01*
X190648628Y-186314342D01*
X190577200Y-186242914D01*
X190505771Y-186100057D01*
X190505771Y-185671485D01*
X190577200Y-185528628D01*
X190648628Y-185457200D01*
X190791485Y-185385771D01*
X191077200Y-185385771D01*
X191220057Y-185457200D01*
X191862914Y-186385771D02*
X191862914Y-185385771D01*
X191862914Y-185671485D02*
X191934342Y-185528628D01*
X192005771Y-185457200D01*
X192148628Y-185385771D01*
X192291485Y-185385771D01*
X193005771Y-186385771D02*
X192862914Y-186314342D01*
X192791485Y-186242914D01*
X192720057Y-186100057D01*
X192720057Y-185671485D01*
X192791485Y-185528628D01*
X192862914Y-185457200D01*
X193005771Y-185385771D01*
X193220057Y-185385771D01*
X193362914Y-185457200D01*
X193434342Y-185528628D01*
X193505771Y-185671485D01*
X193505771Y-186100057D01*
X193434342Y-186242914D01*
X193362914Y-186314342D01*
X193220057Y-186385771D01*
X193005771Y-186385771D01*
X194148628Y-186385771D02*
X194148628Y-184885771D01*
X195005771Y-186385771D02*
X194362914Y-185528628D01*
X195005771Y-184885771D02*
X194148628Y-185742914D01*
X196220057Y-186314342D02*
X196077200Y-186385771D01*
X195791485Y-186385771D01*
X195648628Y-186314342D01*
X195577200Y-186171485D01*
X195577200Y-185600057D01*
X195648628Y-185457200D01*
X195791485Y-185385771D01*
X196077200Y-185385771D01*
X196220057Y-185457200D01*
X196291485Y-185600057D01*
X196291485Y-185742914D01*
X195577200Y-185885771D01*
X196791485Y-185385771D02*
X197148628Y-186385771D01*
X197505771Y-185385771D02*
X197148628Y-186385771D01*
X197005771Y-186742914D01*
X196934342Y-186814342D01*
X196791485Y-186885771D01*
X198077200Y-185385771D02*
X198077200Y-186885771D01*
X198077200Y-185457200D02*
X198220057Y-185385771D01*
X198505771Y-185385771D01*
X198648628Y-185457200D01*
X198720057Y-185528628D01*
X198791485Y-185671485D01*
X198791485Y-186100057D01*
X198720057Y-186242914D01*
X198648628Y-186314342D01*
X198505771Y-186385771D01*
X198220057Y-186385771D01*
X198077200Y-186314342D01*
X200077200Y-186385771D02*
X200077200Y-185600057D01*
X200005771Y-185457200D01*
X199862914Y-185385771D01*
X199577200Y-185385771D01*
X199434342Y-185457200D01*
X200077200Y-186314342D02*
X199934342Y-186385771D01*
X199577200Y-186385771D01*
X199434342Y-186314342D01*
X199362914Y-186171485D01*
X199362914Y-186028628D01*
X199434342Y-185885771D01*
X199577200Y-185814342D01*
X199934342Y-185814342D01*
X200077200Y-185742914D01*
X201434342Y-186385771D02*
X201434342Y-184885771D01*
X201434342Y-186314342D02*
X201291485Y-186385771D01*
X201005771Y-186385771D01*
X200862914Y-186314342D01*
X200791485Y-186242914D01*
X200720057Y-186100057D01*
X200720057Y-185671485D01*
X200791485Y-185528628D01*
X200862914Y-185457200D01*
X201005771Y-185385771D01*
X201291485Y-185385771D01*
X201434342Y-185457200D01*
X202148628Y-186242914D02*
X202220057Y-186314342D01*
X202148628Y-186385771D01*
X202077200Y-186314342D01*
X202148628Y-186242914D01*
X202148628Y-186385771D01*
X202862914Y-186385771D02*
X202862914Y-184885771D01*
X203005771Y-185814342D02*
X203434342Y-186385771D01*
X203434342Y-185385771D02*
X202862914Y-185957200D01*
X204077200Y-186385771D02*
X204077200Y-185385771D01*
X204077200Y-184885771D02*
X204005771Y-184957200D01*
X204077200Y-185028628D01*
X204148628Y-184957200D01*
X204077200Y-184885771D01*
X204077200Y-185028628D01*
X205434342Y-186314342D02*
X205291485Y-186385771D01*
X205005771Y-186385771D01*
X204862914Y-186314342D01*
X204791485Y-186242914D01*
X204720057Y-186100057D01*
X204720057Y-185671485D01*
X204791485Y-185528628D01*
X204862914Y-185457200D01*
X205005771Y-185385771D01*
X205291485Y-185385771D01*
X205434342Y-185457200D01*
X206720057Y-186385771D02*
X206720057Y-185600057D01*
X206648628Y-185457200D01*
X206505771Y-185385771D01*
X206220057Y-185385771D01*
X206077200Y-185457200D01*
X206720057Y-186314342D02*
X206577200Y-186385771D01*
X206220057Y-186385771D01*
X206077200Y-186314342D01*
X206005771Y-186171485D01*
X206005771Y-186028628D01*
X206077200Y-185885771D01*
X206220057Y-185814342D01*
X206577200Y-185814342D01*
X206720057Y-185742914D01*
X208077200Y-186385771D02*
X208077200Y-184885771D01*
X208077200Y-186314342D02*
X207934342Y-186385771D01*
X207648628Y-186385771D01*
X207505771Y-186314342D01*
X207434342Y-186242914D01*
X207362914Y-186100057D01*
X207362914Y-185671485D01*
X207434342Y-185528628D01*
X207505771Y-185457200D01*
X207648628Y-185385771D01*
X207934342Y-185385771D01*
X208077200Y-185457200D01*
X208434342Y-186528628D02*
X209577200Y-186528628D01*
X209934342Y-185385771D02*
X209934342Y-186885771D01*
X209934342Y-185457200D02*
X210077200Y-185385771D01*
X210362914Y-185385771D01*
X210505771Y-185457200D01*
X210577200Y-185528628D01*
X210648628Y-185671485D01*
X210648628Y-186100057D01*
X210577200Y-186242914D01*
X210505771Y-186314342D01*
X210362914Y-186385771D01*
X210077200Y-186385771D01*
X209934342Y-186314342D01*
X211934342Y-186314342D02*
X211791485Y-186385771D01*
X211505771Y-186385771D01*
X211362914Y-186314342D01*
X211291485Y-186242914D01*
X211220057Y-186100057D01*
X211220057Y-185671485D01*
X211291485Y-185528628D01*
X211362914Y-185457200D01*
X211505771Y-185385771D01*
X211791485Y-185385771D01*
X211934342Y-185457200D01*
X212577200Y-186385771D02*
X212577200Y-184885771D01*
X212577200Y-185457200D02*
X212720057Y-185385771D01*
X213005771Y-185385771D01*
X213148628Y-185457200D01*
X213220057Y-185528628D01*
X213291485Y-185671485D01*
X213291485Y-186100057D01*
X213220057Y-186242914D01*
X213148628Y-186314342D01*
X213005771Y-186385771D01*
X212720057Y-186385771D01*
X212577200Y-186314342D01*
D10*
D11*
X177002200Y-181507200D02*
X285002200Y-181507200D01*
D10*
D11*
X178362914Y-183614342D02*
X178577200Y-183685771D01*
X178934342Y-183685771D01*
X179077200Y-183614342D01*
X179148628Y-183542914D01*
X179220057Y-183400057D01*
X179220057Y-183257200D01*
X179148628Y-183114342D01*
X179077200Y-183042914D01*
X178934342Y-182971485D01*
X178648628Y-182900057D01*
X178505771Y-182828628D01*
X178434342Y-182757200D01*
X178362914Y-182614342D01*
X178362914Y-182471485D01*
X178434342Y-182328628D01*
X178505771Y-182257200D01*
X178648628Y-182185771D01*
X179005771Y-182185771D01*
X179220057Y-182257200D01*
X179862914Y-183685771D02*
X179862914Y-182185771D01*
X180505771Y-183685771D02*
X180505771Y-182900057D01*
X180434342Y-182757200D01*
X180291485Y-182685771D01*
X180077200Y-182685771D01*
X179934342Y-182757200D01*
X179862914Y-182828628D01*
X181791485Y-183614342D02*
X181648628Y-183685771D01*
X181362914Y-183685771D01*
X181220057Y-183614342D01*
X181148628Y-183471485D01*
X181148628Y-182900057D01*
X181220057Y-182757200D01*
X181362914Y-182685771D01*
X181648628Y-182685771D01*
X181791485Y-182757200D01*
X181862914Y-182900057D01*
X181862914Y-183042914D01*
X181148628Y-183185771D01*
X183077200Y-183614342D02*
X182934342Y-183685771D01*
X182648628Y-183685771D01*
X182505771Y-183614342D01*
X182434342Y-183471485D01*
X182434342Y-182900057D01*
X182505771Y-182757200D01*
X182648628Y-182685771D01*
X182934342Y-182685771D01*
X183077200Y-182757200D01*
X183148628Y-182900057D01*
X183148628Y-183042914D01*
X182434342Y-183185771D01*
X183577200Y-182685771D02*
X184148628Y-182685771D01*
X183791485Y-182185771D02*
X183791485Y-183471485D01*
X183862914Y-183614342D01*
X184005771Y-183685771D01*
X184148628Y-183685771D01*
X184648628Y-183542914D02*
X184720057Y-183614342D01*
X184648628Y-183685771D01*
X184577200Y-183614342D01*
X184648628Y-183542914D01*
X184648628Y-183685771D01*
X184648628Y-182757200D02*
X184720057Y-182828628D01*
X184648628Y-182900057D01*
X184577200Y-182828628D01*
X184648628Y-182757200D01*
X184648628Y-182900057D01*
D10*
D12*
D10*
D11*
D10*
D11*
D10*
D11*
D10*
D11*
D10*
D11*
X197002200Y-191507200D02*
X197002200Y-194507200D01*
D10*
D11*
X261002200Y-191507200D02*
X261002200Y-198007200D01*
D14*
X121500000Y-37000000D02*
X214500000Y-37000000D01*
X214500000Y-37000000D02*
X214500000Y-104000000D01*
X214500000Y-104000000D02*
X121500000Y-104000000D01*
X121500000Y-104000000D02*
X121500000Y-37000000D01*
D11*
%TO.C,U4*%
X137142857Y-80519642D02*
X137095238Y-80567261D01*
X136952380Y-80614880D01*
X136857142Y-80614880D01*
X136714285Y-80567261D01*
X136619047Y-80472023D01*
X136571428Y-80376785D01*
X136523809Y-80186309D01*
X136523809Y-80043452D01*
X136571428Y-79852976D01*
X136619047Y-79757738D01*
X136714285Y-79662500D01*
X136857142Y-79614880D01*
X136952380Y-79614880D01*
X137095238Y-79662500D01*
X137142857Y-79710119D01*
X137571428Y-80614880D02*
X137571428Y-79614880D01*
X138000000Y-80614880D02*
X138000000Y-80091071D01*
X137952380Y-79995833D01*
X137857142Y-79948214D01*
X137714285Y-79948214D01*
X137619047Y-79995833D01*
X137571428Y-80043452D01*
X138857142Y-80567261D02*
X138761904Y-80614880D01*
X138571428Y-80614880D01*
X138476190Y-80567261D01*
X138428571Y-80472023D01*
X138428571Y-80091071D01*
X138476190Y-79995833D01*
X138571428Y-79948214D01*
X138761904Y-79948214D01*
X138857142Y-79995833D01*
X138904761Y-80091071D01*
X138904761Y-80186309D01*
X138428571Y-80281547D01*
X139333333Y-80614880D02*
X139333333Y-79948214D01*
X139333333Y-80138690D02*
X139380952Y-80043452D01*
X139428571Y-79995833D01*
X139523809Y-79948214D01*
X139619047Y-79948214D01*
X139952380Y-80614880D02*
X139952380Y-79948214D01*
X139952380Y-80138690D02*
X140000000Y-80043452D01*
X140047619Y-79995833D01*
X140142857Y-79948214D01*
X140238095Y-79948214D01*
X140476190Y-79948214D02*
X140714285Y-80614880D01*
X140952380Y-79948214D02*
X140714285Y-80614880D01*
X140619047Y-80852976D01*
X140571428Y-80900595D01*
X140476190Y-80948214D01*
X141333333Y-80614880D02*
X141333333Y-79614880D01*
X141666666Y-80329166D01*
X142000000Y-79614880D01*
X142000000Y-80614880D01*
X142380952Y-79614880D02*
X143047619Y-80614880D01*
X143047619Y-79614880D02*
X142380952Y-80614880D01*
X143190476Y-80710119D02*
X143952380Y-80710119D01*
X144666666Y-80614880D02*
X144190476Y-80614880D01*
X144190476Y-79614880D01*
X145000000Y-80091071D02*
X145333333Y-80091071D01*
X145476190Y-80614880D02*
X145000000Y-80614880D01*
X145000000Y-79614880D01*
X145476190Y-79614880D01*
X145904761Y-80614880D02*
X145904761Y-79614880D01*
X146142857Y-79614880D01*
X146285714Y-79662500D01*
X146380952Y-79757738D01*
X146428571Y-79852976D01*
X146476190Y-80043452D01*
X146476190Y-80186309D01*
X146428571Y-80376785D01*
X146380952Y-80472023D01*
X146285714Y-80567261D01*
X146142857Y-80614880D01*
X145904761Y-80614880D01*
%TO.C,U2*%
X157142857Y-101019642D02*
X157095238Y-101067261D01*
X156952380Y-101114880D01*
X156857142Y-101114880D01*
X156714285Y-101067261D01*
X156619047Y-100972023D01*
X156571428Y-100876785D01*
X156523809Y-100686309D01*
X156523809Y-100543452D01*
X156571428Y-100352976D01*
X156619047Y-100257738D01*
X156714285Y-100162500D01*
X156857142Y-100114880D01*
X156952380Y-100114880D01*
X157095238Y-100162500D01*
X157142857Y-100210119D01*
X157571428Y-101114880D02*
X157571428Y-100114880D01*
X158000000Y-101114880D02*
X158000000Y-100591071D01*
X157952380Y-100495833D01*
X157857142Y-100448214D01*
X157714285Y-100448214D01*
X157619047Y-100495833D01*
X157571428Y-100543452D01*
X158857142Y-101067261D02*
X158761904Y-101114880D01*
X158571428Y-101114880D01*
X158476190Y-101067261D01*
X158428571Y-100972023D01*
X158428571Y-100591071D01*
X158476190Y-100495833D01*
X158571428Y-100448214D01*
X158761904Y-100448214D01*
X158857142Y-100495833D01*
X158904761Y-100591071D01*
X158904761Y-100686309D01*
X158428571Y-100781547D01*
X159333333Y-101114880D02*
X159333333Y-100448214D01*
X159333333Y-100638690D02*
X159380952Y-100543452D01*
X159428571Y-100495833D01*
X159523809Y-100448214D01*
X159619047Y-100448214D01*
X159952380Y-101114880D02*
X159952380Y-100448214D01*
X159952380Y-100638690D02*
X160000000Y-100543452D01*
X160047619Y-100495833D01*
X160142857Y-100448214D01*
X160238095Y-100448214D01*
X160476190Y-100448214D02*
X160714285Y-101114880D01*
X160952380Y-100448214D02*
X160714285Y-101114880D01*
X160619047Y-101352976D01*
X160571428Y-101400595D01*
X160476190Y-101448214D01*
X161333333Y-101114880D02*
X161333333Y-100114880D01*
X161666666Y-100829166D01*
X162000000Y-100114880D01*
X162000000Y-101114880D01*
X162380952Y-100114880D02*
X163047619Y-101114880D01*
X163047619Y-100114880D02*
X162380952Y-101114880D01*
X163190476Y-101210119D02*
X163952380Y-101210119D01*
X164666666Y-101114880D02*
X164190476Y-101114880D01*
X164190476Y-100114880D01*
X165000000Y-100591071D02*
X165333333Y-100591071D01*
X165476190Y-101114880D02*
X165000000Y-101114880D01*
X165000000Y-100114880D01*
X165476190Y-100114880D01*
X165904761Y-101114880D02*
X165904761Y-100114880D01*
X166142857Y-100114880D01*
X166285714Y-100162500D01*
X166380952Y-100257738D01*
X166428571Y-100352976D01*
X166476190Y-100543452D01*
X166476190Y-100686309D01*
X166428571Y-100876785D01*
X166380952Y-100972023D01*
X166285714Y-101067261D01*
X166142857Y-101114880D01*
X165904761Y-101114880D01*
%TO.C,R8*%
X162383333Y-49272380D02*
X161811904Y-49272380D01*
X162097619Y-49272380D02*
X162097619Y-48272380D01*
X162002380Y-48415238D01*
X161907142Y-48510476D01*
X161811904Y-48558095D01*
X163288095Y-48272380D02*
X162811904Y-48272380D01*
X162764285Y-48748571D01*
X162811904Y-48700952D01*
X162907142Y-48653333D01*
X163145238Y-48653333D01*
X163240476Y-48700952D01*
X163288095Y-48748571D01*
X163335714Y-48843809D01*
X163335714Y-49081904D01*
X163288095Y-49177142D01*
X163240476Y-49224761D01*
X163145238Y-49272380D01*
X162907142Y-49272380D01*
X162811904Y-49224761D01*
X162764285Y-49177142D01*
X163954761Y-48272380D02*
X164050000Y-48272380D01*
X164145238Y-48320000D01*
X164192857Y-48367619D01*
X164240476Y-48462857D01*
X164288095Y-48653333D01*
X164288095Y-48891428D01*
X164240476Y-49081904D01*
X164192857Y-49177142D01*
X164145238Y-49224761D01*
X164050000Y-49272380D01*
X163954761Y-49272380D01*
X163859523Y-49224761D01*
X163811904Y-49177142D01*
X163764285Y-49081904D01*
X163716666Y-48891428D01*
X163716666Y-48653333D01*
X163764285Y-48462857D01*
X163811904Y-48367619D01*
X163859523Y-48320000D01*
X163954761Y-48272380D01*
X165288095Y-49272380D02*
X164954761Y-48796190D01*
X164716666Y-49272380D02*
X164716666Y-48272380D01*
X165097619Y-48272380D01*
X165192857Y-48320000D01*
X165240476Y-48367619D01*
X165288095Y-48462857D01*
X165288095Y-48605714D01*
X165240476Y-48700952D01*
X165192857Y-48748571D01*
X165097619Y-48796190D01*
X164716666Y-48796190D01*
D15*
X163416666Y-47361904D02*
X163150000Y-46980952D01*
X162959523Y-47361904D02*
X162959523Y-46561904D01*
X163264285Y-46561904D01*
X163340476Y-46600000D01*
X163378571Y-46638095D01*
X163416666Y-46714285D01*
X163416666Y-46828571D01*
X163378571Y-46904761D01*
X163340476Y-46942857D01*
X163264285Y-46980952D01*
X162959523Y-46980952D01*
X163873809Y-46904761D02*
X163797619Y-46866666D01*
X163759523Y-46828571D01*
X163721428Y-46752380D01*
X163721428Y-46714285D01*
X163759523Y-46638095D01*
X163797619Y-46600000D01*
X163873809Y-46561904D01*
X164026190Y-46561904D01*
X164102380Y-46600000D01*
X164140476Y-46638095D01*
X164178571Y-46714285D01*
X164178571Y-46752380D01*
X164140476Y-46828571D01*
X164102380Y-46866666D01*
X164026190Y-46904761D01*
X163873809Y-46904761D01*
X163797619Y-46942857D01*
X163759523Y-46980952D01*
X163721428Y-47057142D01*
X163721428Y-47209523D01*
X163759523Y-47285714D01*
X163797619Y-47323809D01*
X163873809Y-47361904D01*
X164026190Y-47361904D01*
X164102380Y-47323809D01*
X164140476Y-47285714D01*
X164178571Y-47209523D01*
X164178571Y-47057142D01*
X164140476Y-46980952D01*
X164102380Y-46942857D01*
X164026190Y-46904761D01*
D11*
%TO.C,U3*%
X177142857Y-101019642D02*
X177095238Y-101067261D01*
X176952380Y-101114880D01*
X176857142Y-101114880D01*
X176714285Y-101067261D01*
X176619047Y-100972023D01*
X176571428Y-100876785D01*
X176523809Y-100686309D01*
X176523809Y-100543452D01*
X176571428Y-100352976D01*
X176619047Y-100257738D01*
X176714285Y-100162500D01*
X176857142Y-100114880D01*
X176952380Y-100114880D01*
X177095238Y-100162500D01*
X177142857Y-100210119D01*
X177571428Y-101114880D02*
X177571428Y-100114880D01*
X178000000Y-101114880D02*
X178000000Y-100591071D01*
X177952380Y-100495833D01*
X177857142Y-100448214D01*
X177714285Y-100448214D01*
X177619047Y-100495833D01*
X177571428Y-100543452D01*
X178857142Y-101067261D02*
X178761904Y-101114880D01*
X178571428Y-101114880D01*
X178476190Y-101067261D01*
X178428571Y-100972023D01*
X178428571Y-100591071D01*
X178476190Y-100495833D01*
X178571428Y-100448214D01*
X178761904Y-100448214D01*
X178857142Y-100495833D01*
X178904761Y-100591071D01*
X178904761Y-100686309D01*
X178428571Y-100781547D01*
X179333333Y-101114880D02*
X179333333Y-100448214D01*
X179333333Y-100638690D02*
X179380952Y-100543452D01*
X179428571Y-100495833D01*
X179523809Y-100448214D01*
X179619047Y-100448214D01*
X179952380Y-101114880D02*
X179952380Y-100448214D01*
X179952380Y-100638690D02*
X180000000Y-100543452D01*
X180047619Y-100495833D01*
X180142857Y-100448214D01*
X180238095Y-100448214D01*
X180476190Y-100448214D02*
X180714285Y-101114880D01*
X180952380Y-100448214D02*
X180714285Y-101114880D01*
X180619047Y-101352976D01*
X180571428Y-101400595D01*
X180476190Y-101448214D01*
X181333333Y-101114880D02*
X181333333Y-100114880D01*
X181666666Y-100829166D01*
X182000000Y-100114880D01*
X182000000Y-101114880D01*
X182380952Y-100114880D02*
X183047619Y-101114880D01*
X183047619Y-100114880D02*
X182380952Y-101114880D01*
X183190476Y-101210119D02*
X183952380Y-101210119D01*
X184666666Y-101114880D02*
X184190476Y-101114880D01*
X184190476Y-100114880D01*
X185000000Y-100591071D02*
X185333333Y-100591071D01*
X185476190Y-101114880D02*
X185000000Y-101114880D01*
X185000000Y-100114880D01*
X185476190Y-100114880D01*
X185904761Y-101114880D02*
X185904761Y-100114880D01*
X186142857Y-100114880D01*
X186285714Y-100162500D01*
X186380952Y-100257738D01*
X186428571Y-100352976D01*
X186476190Y-100543452D01*
X186476190Y-100686309D01*
X186428571Y-100876785D01*
X186380952Y-100972023D01*
X186285714Y-101067261D01*
X186142857Y-101114880D01*
X185904761Y-101114880D01*
%TO.C,U10*%
X135476190Y-59612380D02*
X135476190Y-58612380D01*
X135857142Y-58612380D01*
X135952380Y-58660000D01*
X136000000Y-58707619D01*
X136047619Y-58802857D01*
X136047619Y-58945714D01*
X136000000Y-59040952D01*
X135952380Y-59088571D01*
X135857142Y-59136190D01*
X135476190Y-59136190D01*
X136476190Y-59612380D02*
X136476190Y-58945714D01*
X136476190Y-59136190D02*
X136523809Y-59040952D01*
X136571428Y-58993333D01*
X136666666Y-58945714D01*
X136761904Y-58945714D01*
X137238095Y-59612380D02*
X137142857Y-59564761D01*
X137095238Y-59517142D01*
X137047619Y-59421904D01*
X137047619Y-59136190D01*
X137095238Y-59040952D01*
X137142857Y-58993333D01*
X137238095Y-58945714D01*
X137380952Y-58945714D01*
X137476190Y-58993333D01*
X137523809Y-59040952D01*
X137571428Y-59136190D01*
X137571428Y-59421904D01*
X137523809Y-59517142D01*
X137476190Y-59564761D01*
X137380952Y-59612380D01*
X137238095Y-59612380D01*
X138000000Y-59612380D02*
X138000000Y-58612380D01*
X138333333Y-59326666D01*
X138666666Y-58612380D01*
X138666666Y-59612380D01*
X139142857Y-59612380D02*
X139142857Y-58945714D01*
X139142857Y-58612380D02*
X139095238Y-58660000D01*
X139142857Y-58707619D01*
X139190476Y-58660000D01*
X139142857Y-58612380D01*
X139142857Y-58707619D01*
X140047619Y-59564761D02*
X139952380Y-59612380D01*
X139761904Y-59612380D01*
X139666666Y-59564761D01*
X139619047Y-59517142D01*
X139571428Y-59421904D01*
X139571428Y-59136190D01*
X139619047Y-59040952D01*
X139666666Y-58993333D01*
X139761904Y-58945714D01*
X139952380Y-58945714D01*
X140047619Y-58993333D01*
X140476190Y-59612380D02*
X140476190Y-58945714D01*
X140476190Y-59136190D02*
X140523809Y-59040952D01*
X140571428Y-58993333D01*
X140666666Y-58945714D01*
X140761904Y-58945714D01*
X141238095Y-59612380D02*
X141142857Y-59564761D01*
X141095238Y-59517142D01*
X141047619Y-59421904D01*
X141047619Y-59136190D01*
X141095238Y-59040952D01*
X141142857Y-58993333D01*
X141238095Y-58945714D01*
X141380952Y-58945714D01*
X141476190Y-58993333D01*
X141523809Y-59040952D01*
X141571428Y-59136190D01*
X141571428Y-59421904D01*
X141523809Y-59517142D01*
X141476190Y-59564761D01*
X141380952Y-59612380D01*
X141238095Y-59612380D01*
%TO.C,R1*%
X125783333Y-93772380D02*
X125211904Y-93772380D01*
X125497619Y-93772380D02*
X125497619Y-92772380D01*
X125402380Y-92915238D01*
X125307142Y-93010476D01*
X125211904Y-93058095D01*
X126688095Y-92772380D02*
X126211904Y-92772380D01*
X126164285Y-93248571D01*
X126211904Y-93200952D01*
X126307142Y-93153333D01*
X126545238Y-93153333D01*
X126640476Y-93200952D01*
X126688095Y-93248571D01*
X126735714Y-93343809D01*
X126735714Y-93581904D01*
X126688095Y-93677142D01*
X126640476Y-93724761D01*
X126545238Y-93772380D01*
X126307142Y-93772380D01*
X126211904Y-93724761D01*
X126164285Y-93677142D01*
X127354761Y-92772380D02*
X127450000Y-92772380D01*
X127545238Y-92820000D01*
X127592857Y-92867619D01*
X127640476Y-92962857D01*
X127688095Y-93153333D01*
X127688095Y-93391428D01*
X127640476Y-93581904D01*
X127592857Y-93677142D01*
X127545238Y-93724761D01*
X127450000Y-93772380D01*
X127354761Y-93772380D01*
X127259523Y-93724761D01*
X127211904Y-93677142D01*
X127164285Y-93581904D01*
X127116666Y-93391428D01*
X127116666Y-93153333D01*
X127164285Y-92962857D01*
X127211904Y-92867619D01*
X127259523Y-92820000D01*
X127354761Y-92772380D01*
X128688095Y-93772380D02*
X128354761Y-93296190D01*
X128116666Y-93772380D02*
X128116666Y-92772380D01*
X128497619Y-92772380D01*
X128592857Y-92820000D01*
X128640476Y-92867619D01*
X128688095Y-92962857D01*
X128688095Y-93105714D01*
X128640476Y-93200952D01*
X128592857Y-93248571D01*
X128497619Y-93296190D01*
X128116666Y-93296190D01*
D15*
X126816666Y-91861904D02*
X126550000Y-91480952D01*
X126359523Y-91861904D02*
X126359523Y-91061904D01*
X126664285Y-91061904D01*
X126740476Y-91100000D01*
X126778571Y-91138095D01*
X126816666Y-91214285D01*
X126816666Y-91328571D01*
X126778571Y-91404761D01*
X126740476Y-91442857D01*
X126664285Y-91480952D01*
X126359523Y-91480952D01*
X127578571Y-91861904D02*
X127121428Y-91861904D01*
X127350000Y-91861904D02*
X127350000Y-91061904D01*
X127273809Y-91176190D01*
X127197619Y-91252380D01*
X127121428Y-91290476D01*
D11*
%TO.C,R5*%
X125783333Y-67772380D02*
X125211904Y-67772380D01*
X125497619Y-67772380D02*
X125497619Y-66772380D01*
X125402380Y-66915238D01*
X125307142Y-67010476D01*
X125211904Y-67058095D01*
X126688095Y-66772380D02*
X126211904Y-66772380D01*
X126164285Y-67248571D01*
X126211904Y-67200952D01*
X126307142Y-67153333D01*
X126545238Y-67153333D01*
X126640476Y-67200952D01*
X126688095Y-67248571D01*
X126735714Y-67343809D01*
X126735714Y-67581904D01*
X126688095Y-67677142D01*
X126640476Y-67724761D01*
X126545238Y-67772380D01*
X126307142Y-67772380D01*
X126211904Y-67724761D01*
X126164285Y-67677142D01*
X127354761Y-66772380D02*
X127450000Y-66772380D01*
X127545238Y-66820000D01*
X127592857Y-66867619D01*
X127640476Y-66962857D01*
X127688095Y-67153333D01*
X127688095Y-67391428D01*
X127640476Y-67581904D01*
X127592857Y-67677142D01*
X127545238Y-67724761D01*
X127450000Y-67772380D01*
X127354761Y-67772380D01*
X127259523Y-67724761D01*
X127211904Y-67677142D01*
X127164285Y-67581904D01*
X127116666Y-67391428D01*
X127116666Y-67153333D01*
X127164285Y-66962857D01*
X127211904Y-66867619D01*
X127259523Y-66820000D01*
X127354761Y-66772380D01*
X128688095Y-67772380D02*
X128354761Y-67296190D01*
X128116666Y-67772380D02*
X128116666Y-66772380D01*
X128497619Y-66772380D01*
X128592857Y-66820000D01*
X128640476Y-66867619D01*
X128688095Y-66962857D01*
X128688095Y-67105714D01*
X128640476Y-67200952D01*
X128592857Y-67248571D01*
X128497619Y-67296190D01*
X128116666Y-67296190D01*
D15*
X126816666Y-65861904D02*
X126550000Y-65480952D01*
X126359523Y-65861904D02*
X126359523Y-65061904D01*
X126664285Y-65061904D01*
X126740476Y-65100000D01*
X126778571Y-65138095D01*
X126816666Y-65214285D01*
X126816666Y-65328571D01*
X126778571Y-65404761D01*
X126740476Y-65442857D01*
X126664285Y-65480952D01*
X126359523Y-65480952D01*
X127540476Y-65061904D02*
X127159523Y-65061904D01*
X127121428Y-65442857D01*
X127159523Y-65404761D01*
X127235714Y-65366666D01*
X127426190Y-65366666D01*
X127502380Y-65404761D01*
X127540476Y-65442857D01*
X127578571Y-65519047D01*
X127578571Y-65709523D01*
X127540476Y-65785714D01*
X127502380Y-65823809D01*
X127426190Y-65861904D01*
X127235714Y-65861904D01*
X127159523Y-65823809D01*
X127121428Y-65785714D01*
D11*
%TO.C,R9*%
X162333333Y-43772380D02*
X161761904Y-43772380D01*
X162047619Y-43772380D02*
X162047619Y-42772380D01*
X161952380Y-42915238D01*
X161857142Y-43010476D01*
X161761904Y-43058095D01*
X163238095Y-42772380D02*
X162761904Y-42772380D01*
X162714285Y-43248571D01*
X162761904Y-43200952D01*
X162857142Y-43153333D01*
X163095238Y-43153333D01*
X163190476Y-43200952D01*
X163238095Y-43248571D01*
X163285714Y-43343809D01*
X163285714Y-43581904D01*
X163238095Y-43677142D01*
X163190476Y-43724761D01*
X163095238Y-43772380D01*
X162857142Y-43772380D01*
X162761904Y-43724761D01*
X162714285Y-43677142D01*
X163904761Y-42772380D02*
X164000000Y-42772380D01*
X164095238Y-42820000D01*
X164142857Y-42867619D01*
X164190476Y-42962857D01*
X164238095Y-43153333D01*
X164238095Y-43391428D01*
X164190476Y-43581904D01*
X164142857Y-43677142D01*
X164095238Y-43724761D01*
X164000000Y-43772380D01*
X163904761Y-43772380D01*
X163809523Y-43724761D01*
X163761904Y-43677142D01*
X163714285Y-43581904D01*
X163666666Y-43391428D01*
X163666666Y-43153333D01*
X163714285Y-42962857D01*
X163761904Y-42867619D01*
X163809523Y-42820000D01*
X163904761Y-42772380D01*
X165238095Y-43772380D02*
X164904761Y-43296190D01*
X164666666Y-43772380D02*
X164666666Y-42772380D01*
X165047619Y-42772380D01*
X165142857Y-42820000D01*
X165190476Y-42867619D01*
X165238095Y-42962857D01*
X165238095Y-43105714D01*
X165190476Y-43200952D01*
X165142857Y-43248571D01*
X165047619Y-43296190D01*
X164666666Y-43296190D01*
D15*
X163366666Y-41861904D02*
X163100000Y-41480952D01*
X162909523Y-41861904D02*
X162909523Y-41061904D01*
X163214285Y-41061904D01*
X163290476Y-41100000D01*
X163328571Y-41138095D01*
X163366666Y-41214285D01*
X163366666Y-41328571D01*
X163328571Y-41404761D01*
X163290476Y-41442857D01*
X163214285Y-41480952D01*
X162909523Y-41480952D01*
X163747619Y-41861904D02*
X163900000Y-41861904D01*
X163976190Y-41823809D01*
X164014285Y-41785714D01*
X164090476Y-41671428D01*
X164128571Y-41519047D01*
X164128571Y-41214285D01*
X164090476Y-41138095D01*
X164052380Y-41100000D01*
X163976190Y-41061904D01*
X163823809Y-41061904D01*
X163747619Y-41100000D01*
X163709523Y-41138095D01*
X163671428Y-41214285D01*
X163671428Y-41404761D01*
X163709523Y-41480952D01*
X163747619Y-41519047D01*
X163823809Y-41557142D01*
X163976190Y-41557142D01*
X164052380Y-41519047D01*
X164090476Y-41480952D01*
X164128571Y-41404761D01*
D11*
%TO.C,U1*%
X137142857Y-101019642D02*
X137095238Y-101067261D01*
X136952380Y-101114880D01*
X136857142Y-101114880D01*
X136714285Y-101067261D01*
X136619047Y-100972023D01*
X136571428Y-100876785D01*
X136523809Y-100686309D01*
X136523809Y-100543452D01*
X136571428Y-100352976D01*
X136619047Y-100257738D01*
X136714285Y-100162500D01*
X136857142Y-100114880D01*
X136952380Y-100114880D01*
X137095238Y-100162500D01*
X137142857Y-100210119D01*
X137571428Y-101114880D02*
X137571428Y-100114880D01*
X138000000Y-101114880D02*
X138000000Y-100591071D01*
X137952380Y-100495833D01*
X137857142Y-100448214D01*
X137714285Y-100448214D01*
X137619047Y-100495833D01*
X137571428Y-100543452D01*
X138857142Y-101067261D02*
X138761904Y-101114880D01*
X138571428Y-101114880D01*
X138476190Y-101067261D01*
X138428571Y-100972023D01*
X138428571Y-100591071D01*
X138476190Y-100495833D01*
X138571428Y-100448214D01*
X138761904Y-100448214D01*
X138857142Y-100495833D01*
X138904761Y-100591071D01*
X138904761Y-100686309D01*
X138428571Y-100781547D01*
X139333333Y-101114880D02*
X139333333Y-100448214D01*
X139333333Y-100638690D02*
X139380952Y-100543452D01*
X139428571Y-100495833D01*
X139523809Y-100448214D01*
X139619047Y-100448214D01*
X139952380Y-101114880D02*
X139952380Y-100448214D01*
X139952380Y-100638690D02*
X140000000Y-100543452D01*
X140047619Y-100495833D01*
X140142857Y-100448214D01*
X140238095Y-100448214D01*
X140476190Y-100448214D02*
X140714285Y-101114880D01*
X140952380Y-100448214D02*
X140714285Y-101114880D01*
X140619047Y-101352976D01*
X140571428Y-101400595D01*
X140476190Y-101448214D01*
X141333333Y-101114880D02*
X141333333Y-100114880D01*
X141666666Y-100829166D01*
X142000000Y-100114880D01*
X142000000Y-101114880D01*
X142380952Y-100114880D02*
X143047619Y-101114880D01*
X143047619Y-100114880D02*
X142380952Y-101114880D01*
X143190476Y-101210119D02*
X143952380Y-101210119D01*
X144666666Y-101114880D02*
X144190476Y-101114880D01*
X144190476Y-100114880D01*
X145000000Y-100591071D02*
X145333333Y-100591071D01*
X145476190Y-101114880D02*
X145000000Y-101114880D01*
X145000000Y-100114880D01*
X145476190Y-100114880D01*
X145904761Y-101114880D02*
X145904761Y-100114880D01*
X146142857Y-100114880D01*
X146285714Y-100162500D01*
X146380952Y-100257738D01*
X146428571Y-100352976D01*
X146476190Y-100543452D01*
X146476190Y-100686309D01*
X146428571Y-100876785D01*
X146380952Y-100972023D01*
X146285714Y-101067261D01*
X146142857Y-101114880D01*
X145904761Y-101114880D01*
%TO.C,R7*%
X162333333Y-54772380D02*
X161761904Y-54772380D01*
X162047619Y-54772380D02*
X162047619Y-53772380D01*
X161952380Y-53915238D01*
X161857142Y-54010476D01*
X161761904Y-54058095D01*
X163238095Y-53772380D02*
X162761904Y-53772380D01*
X162714285Y-54248571D01*
X162761904Y-54200952D01*
X162857142Y-54153333D01*
X163095238Y-54153333D01*
X163190476Y-54200952D01*
X163238095Y-54248571D01*
X163285714Y-54343809D01*
X163285714Y-54581904D01*
X163238095Y-54677142D01*
X163190476Y-54724761D01*
X163095238Y-54772380D01*
X162857142Y-54772380D01*
X162761904Y-54724761D01*
X162714285Y-54677142D01*
X163904761Y-53772380D02*
X164000000Y-53772380D01*
X164095238Y-53820000D01*
X164142857Y-53867619D01*
X164190476Y-53962857D01*
X164238095Y-54153333D01*
X164238095Y-54391428D01*
X164190476Y-54581904D01*
X164142857Y-54677142D01*
X164095238Y-54724761D01*
X164000000Y-54772380D01*
X163904761Y-54772380D01*
X163809523Y-54724761D01*
X163761904Y-54677142D01*
X163714285Y-54581904D01*
X163666666Y-54391428D01*
X163666666Y-54153333D01*
X163714285Y-53962857D01*
X163761904Y-53867619D01*
X163809523Y-53820000D01*
X163904761Y-53772380D01*
X165238095Y-54772380D02*
X164904761Y-54296190D01*
X164666666Y-54772380D02*
X164666666Y-53772380D01*
X165047619Y-53772380D01*
X165142857Y-53820000D01*
X165190476Y-53867619D01*
X165238095Y-53962857D01*
X165238095Y-54105714D01*
X165190476Y-54200952D01*
X165142857Y-54248571D01*
X165047619Y-54296190D01*
X164666666Y-54296190D01*
D15*
X163366666Y-52861904D02*
X163100000Y-52480952D01*
X162909523Y-52861904D02*
X162909523Y-52061904D01*
X163214285Y-52061904D01*
X163290476Y-52100000D01*
X163328571Y-52138095D01*
X163366666Y-52214285D01*
X163366666Y-52328571D01*
X163328571Y-52404761D01*
X163290476Y-52442857D01*
X163214285Y-52480952D01*
X162909523Y-52480952D01*
X163633333Y-52061904D02*
X164166666Y-52061904D01*
X163823809Y-52861904D01*
D11*
%TO.C,U5*%
X157142857Y-80519642D02*
X157095238Y-80567261D01*
X156952380Y-80614880D01*
X156857142Y-80614880D01*
X156714285Y-80567261D01*
X156619047Y-80472023D01*
X156571428Y-80376785D01*
X156523809Y-80186309D01*
X156523809Y-80043452D01*
X156571428Y-79852976D01*
X156619047Y-79757738D01*
X156714285Y-79662500D01*
X156857142Y-79614880D01*
X156952380Y-79614880D01*
X157095238Y-79662500D01*
X157142857Y-79710119D01*
X157571428Y-80614880D02*
X157571428Y-79614880D01*
X158000000Y-80614880D02*
X158000000Y-80091071D01*
X157952380Y-79995833D01*
X157857142Y-79948214D01*
X157714285Y-79948214D01*
X157619047Y-79995833D01*
X157571428Y-80043452D01*
X158857142Y-80567261D02*
X158761904Y-80614880D01*
X158571428Y-80614880D01*
X158476190Y-80567261D01*
X158428571Y-80472023D01*
X158428571Y-80091071D01*
X158476190Y-79995833D01*
X158571428Y-79948214D01*
X158761904Y-79948214D01*
X158857142Y-79995833D01*
X158904761Y-80091071D01*
X158904761Y-80186309D01*
X158428571Y-80281547D01*
X159333333Y-80614880D02*
X159333333Y-79948214D01*
X159333333Y-80138690D02*
X159380952Y-80043452D01*
X159428571Y-79995833D01*
X159523809Y-79948214D01*
X159619047Y-79948214D01*
X159952380Y-80614880D02*
X159952380Y-79948214D01*
X159952380Y-80138690D02*
X160000000Y-80043452D01*
X160047619Y-79995833D01*
X160142857Y-79948214D01*
X160238095Y-79948214D01*
X160476190Y-79948214D02*
X160714285Y-80614880D01*
X160952380Y-79948214D02*
X160714285Y-80614880D01*
X160619047Y-80852976D01*
X160571428Y-80900595D01*
X160476190Y-80948214D01*
X161333333Y-80614880D02*
X161333333Y-79614880D01*
X161666666Y-80329166D01*
X162000000Y-79614880D01*
X162000000Y-80614880D01*
X162380952Y-79614880D02*
X163047619Y-80614880D01*
X163047619Y-79614880D02*
X162380952Y-80614880D01*
X163190476Y-80710119D02*
X163952380Y-80710119D01*
X164666666Y-80614880D02*
X164190476Y-80614880D01*
X164190476Y-79614880D01*
X165000000Y-80091071D02*
X165333333Y-80091071D01*
X165476190Y-80614880D02*
X165000000Y-80614880D01*
X165000000Y-79614880D01*
X165476190Y-79614880D01*
X165904761Y-80614880D02*
X165904761Y-79614880D01*
X166142857Y-79614880D01*
X166285714Y-79662500D01*
X166380952Y-79757738D01*
X166428571Y-79852976D01*
X166476190Y-80043452D01*
X166476190Y-80186309D01*
X166428571Y-80376785D01*
X166380952Y-80472023D01*
X166285714Y-80567261D01*
X166142857Y-80614880D01*
X165904761Y-80614880D01*
%TO.C,U8*%
X198142857Y-80519642D02*
X198095238Y-80567261D01*
X197952380Y-80614880D01*
X197857142Y-80614880D01*
X197714285Y-80567261D01*
X197619047Y-80472023D01*
X197571428Y-80376785D01*
X197523809Y-80186309D01*
X197523809Y-80043452D01*
X197571428Y-79852976D01*
X197619047Y-79757738D01*
X197714285Y-79662500D01*
X197857142Y-79614880D01*
X197952380Y-79614880D01*
X198095238Y-79662500D01*
X198142857Y-79710119D01*
X198571428Y-80614880D02*
X198571428Y-79614880D01*
X199000000Y-80614880D02*
X199000000Y-80091071D01*
X198952380Y-79995833D01*
X198857142Y-79948214D01*
X198714285Y-79948214D01*
X198619047Y-79995833D01*
X198571428Y-80043452D01*
X199857142Y-80567261D02*
X199761904Y-80614880D01*
X199571428Y-80614880D01*
X199476190Y-80567261D01*
X199428571Y-80472023D01*
X199428571Y-80091071D01*
X199476190Y-79995833D01*
X199571428Y-79948214D01*
X199761904Y-79948214D01*
X199857142Y-79995833D01*
X199904761Y-80091071D01*
X199904761Y-80186309D01*
X199428571Y-80281547D01*
X200333333Y-80614880D02*
X200333333Y-79948214D01*
X200333333Y-80138690D02*
X200380952Y-80043452D01*
X200428571Y-79995833D01*
X200523809Y-79948214D01*
X200619047Y-79948214D01*
X200952380Y-80614880D02*
X200952380Y-79948214D01*
X200952380Y-80138690D02*
X201000000Y-80043452D01*
X201047619Y-79995833D01*
X201142857Y-79948214D01*
X201238095Y-79948214D01*
X201476190Y-79948214D02*
X201714285Y-80614880D01*
X201952380Y-79948214D02*
X201714285Y-80614880D01*
X201619047Y-80852976D01*
X201571428Y-80900595D01*
X201476190Y-80948214D01*
X202333333Y-80614880D02*
X202333333Y-79614880D01*
X202666666Y-80329166D01*
X203000000Y-79614880D01*
X203000000Y-80614880D01*
X203380952Y-79614880D02*
X204047619Y-80614880D01*
X204047619Y-79614880D02*
X203380952Y-80614880D01*
X204190476Y-80710119D02*
X204952380Y-80710119D01*
X205666666Y-80614880D02*
X205190476Y-80614880D01*
X205190476Y-79614880D01*
X206000000Y-80091071D02*
X206333333Y-80091071D01*
X206476190Y-80614880D02*
X206000000Y-80614880D01*
X206000000Y-79614880D01*
X206476190Y-79614880D01*
X206904761Y-80614880D02*
X206904761Y-79614880D01*
X207142857Y-79614880D01*
X207285714Y-79662500D01*
X207380952Y-79757738D01*
X207428571Y-79852976D01*
X207476190Y-80043452D01*
X207476190Y-80186309D01*
X207428571Y-80376785D01*
X207380952Y-80472023D01*
X207285714Y-80567261D01*
X207142857Y-80614880D01*
X206904761Y-80614880D01*
%TO.C,U9*%
X198142857Y-101019642D02*
X198095238Y-101067261D01*
X197952380Y-101114880D01*
X197857142Y-101114880D01*
X197714285Y-101067261D01*
X197619047Y-100972023D01*
X197571428Y-100876785D01*
X197523809Y-100686309D01*
X197523809Y-100543452D01*
X197571428Y-100352976D01*
X197619047Y-100257738D01*
X197714285Y-100162500D01*
X197857142Y-100114880D01*
X197952380Y-100114880D01*
X198095238Y-100162500D01*
X198142857Y-100210119D01*
X198571428Y-101114880D02*
X198571428Y-100114880D01*
X199000000Y-101114880D02*
X199000000Y-100591071D01*
X198952380Y-100495833D01*
X198857142Y-100448214D01*
X198714285Y-100448214D01*
X198619047Y-100495833D01*
X198571428Y-100543452D01*
X199857142Y-101067261D02*
X199761904Y-101114880D01*
X199571428Y-101114880D01*
X199476190Y-101067261D01*
X199428571Y-100972023D01*
X199428571Y-100591071D01*
X199476190Y-100495833D01*
X199571428Y-100448214D01*
X199761904Y-100448214D01*
X199857142Y-100495833D01*
X199904761Y-100591071D01*
X199904761Y-100686309D01*
X199428571Y-100781547D01*
X200333333Y-101114880D02*
X200333333Y-100448214D01*
X200333333Y-100638690D02*
X200380952Y-100543452D01*
X200428571Y-100495833D01*
X200523809Y-100448214D01*
X200619047Y-100448214D01*
X200952380Y-101114880D02*
X200952380Y-100448214D01*
X200952380Y-100638690D02*
X201000000Y-100543452D01*
X201047619Y-100495833D01*
X201142857Y-100448214D01*
X201238095Y-100448214D01*
X201476190Y-100448214D02*
X201714285Y-101114880D01*
X201952380Y-100448214D02*
X201714285Y-101114880D01*
X201619047Y-101352976D01*
X201571428Y-101400595D01*
X201476190Y-101448214D01*
X202333333Y-101114880D02*
X202333333Y-100114880D01*
X202666666Y-100829166D01*
X203000000Y-100114880D01*
X203000000Y-101114880D01*
X203380952Y-100114880D02*
X204047619Y-101114880D01*
X204047619Y-100114880D02*
X203380952Y-101114880D01*
X204190476Y-101210119D02*
X204952380Y-101210119D01*
X205666666Y-101114880D02*
X205190476Y-101114880D01*
X205190476Y-100114880D01*
X206000000Y-100591071D02*
X206333333Y-100591071D01*
X206476190Y-101114880D02*
X206000000Y-101114880D01*
X206000000Y-100114880D01*
X206476190Y-100114880D01*
X206904761Y-101114880D02*
X206904761Y-100114880D01*
X207142857Y-100114880D01*
X207285714Y-100162500D01*
X207380952Y-100257738D01*
X207428571Y-100352976D01*
X207476190Y-100543452D01*
X207476190Y-100686309D01*
X207428571Y-100876785D01*
X207380952Y-100972023D01*
X207285714Y-101067261D01*
X207142857Y-101114880D01*
X206904761Y-101114880D01*
%TO.C,U7*%
X198142857Y-60019642D02*
X198095238Y-60067261D01*
X197952380Y-60114880D01*
X197857142Y-60114880D01*
X197714285Y-60067261D01*
X197619047Y-59972023D01*
X197571428Y-59876785D01*
X197523809Y-59686309D01*
X197523809Y-59543452D01*
X197571428Y-59352976D01*
X197619047Y-59257738D01*
X197714285Y-59162500D01*
X197857142Y-59114880D01*
X197952380Y-59114880D01*
X198095238Y-59162500D01*
X198142857Y-59210119D01*
X198571428Y-60114880D02*
X198571428Y-59114880D01*
X199000000Y-60114880D02*
X199000000Y-59591071D01*
X198952380Y-59495833D01*
X198857142Y-59448214D01*
X198714285Y-59448214D01*
X198619047Y-59495833D01*
X198571428Y-59543452D01*
X199857142Y-60067261D02*
X199761904Y-60114880D01*
X199571428Y-60114880D01*
X199476190Y-60067261D01*
X199428571Y-59972023D01*
X199428571Y-59591071D01*
X199476190Y-59495833D01*
X199571428Y-59448214D01*
X199761904Y-59448214D01*
X199857142Y-59495833D01*
X199904761Y-59591071D01*
X199904761Y-59686309D01*
X199428571Y-59781547D01*
X200333333Y-60114880D02*
X200333333Y-59448214D01*
X200333333Y-59638690D02*
X200380952Y-59543452D01*
X200428571Y-59495833D01*
X200523809Y-59448214D01*
X200619047Y-59448214D01*
X200952380Y-60114880D02*
X200952380Y-59448214D01*
X200952380Y-59638690D02*
X201000000Y-59543452D01*
X201047619Y-59495833D01*
X201142857Y-59448214D01*
X201238095Y-59448214D01*
X201476190Y-59448214D02*
X201714285Y-60114880D01*
X201952380Y-59448214D02*
X201714285Y-60114880D01*
X201619047Y-60352976D01*
X201571428Y-60400595D01*
X201476190Y-60448214D01*
X202333333Y-60114880D02*
X202333333Y-59114880D01*
X202666666Y-59829166D01*
X203000000Y-59114880D01*
X203000000Y-60114880D01*
X203380952Y-59114880D02*
X204047619Y-60114880D01*
X204047619Y-59114880D02*
X203380952Y-60114880D01*
X204190476Y-60210119D02*
X204952380Y-60210119D01*
X205666666Y-60114880D02*
X205190476Y-60114880D01*
X205190476Y-59114880D01*
X206000000Y-59591071D02*
X206333333Y-59591071D01*
X206476190Y-60114880D02*
X206000000Y-60114880D01*
X206000000Y-59114880D01*
X206476190Y-59114880D01*
X206904761Y-60114880D02*
X206904761Y-59114880D01*
X207142857Y-59114880D01*
X207285714Y-59162500D01*
X207380952Y-59257738D01*
X207428571Y-59352976D01*
X207476190Y-59543452D01*
X207476190Y-59686309D01*
X207428571Y-59876785D01*
X207380952Y-59972023D01*
X207285714Y-60067261D01*
X207142857Y-60114880D01*
X206904761Y-60114880D01*
%TO.C,SW1*%
X172416666Y-58352380D02*
X172083333Y-57876190D01*
X171845238Y-58352380D02*
X171845238Y-57352380D01*
X172226190Y-57352380D01*
X172321428Y-57400000D01*
X172369047Y-57447619D01*
X172416666Y-57542857D01*
X172416666Y-57685714D01*
X172369047Y-57780952D01*
X172321428Y-57828571D01*
X172226190Y-57876190D01*
X171845238Y-57876190D01*
X172988095Y-58352380D02*
X172892857Y-58304761D01*
X172845238Y-58257142D01*
X172797619Y-58161904D01*
X172797619Y-57876190D01*
X172845238Y-57780952D01*
X172892857Y-57733333D01*
X172988095Y-57685714D01*
X173130952Y-57685714D01*
X173226190Y-57733333D01*
X173273809Y-57780952D01*
X173321428Y-57876190D01*
X173321428Y-58161904D01*
X173273809Y-58257142D01*
X173226190Y-58304761D01*
X173130952Y-58352380D01*
X172988095Y-58352380D01*
X173607142Y-57685714D02*
X173988095Y-57685714D01*
X173750000Y-57352380D02*
X173750000Y-58209523D01*
X173797619Y-58304761D01*
X173892857Y-58352380D01*
X173988095Y-58352380D01*
X174750000Y-58352380D02*
X174750000Y-57828571D01*
X174702380Y-57733333D01*
X174607142Y-57685714D01*
X174416666Y-57685714D01*
X174321428Y-57733333D01*
X174750000Y-58304761D02*
X174654761Y-58352380D01*
X174416666Y-58352380D01*
X174321428Y-58304761D01*
X174273809Y-58209523D01*
X174273809Y-58114285D01*
X174321428Y-58019047D01*
X174416666Y-57971428D01*
X174654761Y-57971428D01*
X174750000Y-57923809D01*
X175226190Y-58352380D02*
X175226190Y-57685714D01*
X175226190Y-57876190D02*
X175273809Y-57780952D01*
X175321428Y-57733333D01*
X175416666Y-57685714D01*
X175511904Y-57685714D01*
X175750000Y-57685714D02*
X175988095Y-58352380D01*
X176226190Y-57685714D02*
X175988095Y-58352380D01*
X175892857Y-58590476D01*
X175845238Y-58638095D01*
X175750000Y-58685714D01*
X176607142Y-57828571D02*
X176940476Y-57828571D01*
X177083333Y-58352380D02*
X176607142Y-58352380D01*
X176607142Y-57352380D01*
X177083333Y-57352380D01*
X177511904Y-57685714D02*
X177511904Y-58352380D01*
X177511904Y-57780952D02*
X177559523Y-57733333D01*
X177654761Y-57685714D01*
X177797619Y-57685714D01*
X177892857Y-57733333D01*
X177940476Y-57828571D01*
X177940476Y-58352380D01*
X178845238Y-58304761D02*
X178750000Y-58352380D01*
X178559523Y-58352380D01*
X178464285Y-58304761D01*
X178416666Y-58257142D01*
X178369047Y-58161904D01*
X178369047Y-57876190D01*
X178416666Y-57780952D01*
X178464285Y-57733333D01*
X178559523Y-57685714D01*
X178750000Y-57685714D01*
X178845238Y-57733333D01*
X179416666Y-58352380D02*
X179321428Y-58304761D01*
X179273809Y-58257142D01*
X179226190Y-58161904D01*
X179226190Y-57876190D01*
X179273809Y-57780952D01*
X179321428Y-57733333D01*
X179416666Y-57685714D01*
X179559523Y-57685714D01*
X179654761Y-57733333D01*
X179702380Y-57780952D01*
X179750000Y-57876190D01*
X179750000Y-58161904D01*
X179702380Y-58257142D01*
X179654761Y-58304761D01*
X179559523Y-58352380D01*
X179416666Y-58352380D01*
X180607142Y-58352380D02*
X180607142Y-57352380D01*
X180607142Y-58304761D02*
X180511904Y-58352380D01*
X180321428Y-58352380D01*
X180226190Y-58304761D01*
X180178571Y-58257142D01*
X180130952Y-58161904D01*
X180130952Y-57876190D01*
X180178571Y-57780952D01*
X180226190Y-57733333D01*
X180321428Y-57685714D01*
X180511904Y-57685714D01*
X180607142Y-57733333D01*
X181464285Y-58304761D02*
X181369047Y-58352380D01*
X181178571Y-58352380D01*
X181083333Y-58304761D01*
X181035714Y-58209523D01*
X181035714Y-57828571D01*
X181083333Y-57733333D01*
X181178571Y-57685714D01*
X181369047Y-57685714D01*
X181464285Y-57733333D01*
X181511904Y-57828571D01*
X181511904Y-57923809D01*
X181035714Y-58019047D01*
X181940476Y-58352380D02*
X181940476Y-57685714D01*
X181940476Y-57876190D02*
X181988095Y-57780952D01*
X182035714Y-57733333D01*
X182130952Y-57685714D01*
X182226190Y-57685714D01*
X182321428Y-58447619D02*
X183083333Y-58447619D01*
X183273809Y-58304761D02*
X183416666Y-58352380D01*
X183654761Y-58352380D01*
X183750000Y-58304761D01*
X183797619Y-58257142D01*
X183845238Y-58161904D01*
X183845238Y-58066666D01*
X183797619Y-57971428D01*
X183750000Y-57923809D01*
X183654761Y-57876190D01*
X183464285Y-57828571D01*
X183369047Y-57780952D01*
X183321428Y-57733333D01*
X183273809Y-57638095D01*
X183273809Y-57542857D01*
X183321428Y-57447619D01*
X183369047Y-57400000D01*
X183464285Y-57352380D01*
X183702380Y-57352380D01*
X183845238Y-57400000D01*
X184178571Y-57685714D02*
X184369047Y-58352380D01*
X184559523Y-57876190D01*
X184750000Y-58352380D01*
X184940476Y-57685714D01*
X185321428Y-58352380D02*
X185321428Y-57685714D01*
X185321428Y-57352380D02*
X185273809Y-57400000D01*
X185321428Y-57447619D01*
X185369047Y-57400000D01*
X185321428Y-57352380D01*
X185321428Y-57447619D01*
X185654761Y-57685714D02*
X186035714Y-57685714D01*
X185797619Y-57352380D02*
X185797619Y-58209523D01*
X185845238Y-58304761D01*
X185940476Y-58352380D01*
X186035714Y-58352380D01*
X186797619Y-58304761D02*
X186702380Y-58352380D01*
X186511904Y-58352380D01*
X186416666Y-58304761D01*
X186369047Y-58257142D01*
X186321428Y-58161904D01*
X186321428Y-57876190D01*
X186369047Y-57780952D01*
X186416666Y-57733333D01*
X186511904Y-57685714D01*
X186702380Y-57685714D01*
X186797619Y-57733333D01*
X187226190Y-58352380D02*
X187226190Y-57352380D01*
X187654761Y-58352380D02*
X187654761Y-57828571D01*
X187607142Y-57733333D01*
X187511904Y-57685714D01*
X187369047Y-57685714D01*
X187273809Y-57733333D01*
X187226190Y-57780952D01*
X182016666Y-54204761D02*
X182159523Y-54252380D01*
X182397619Y-54252380D01*
X182492857Y-54204761D01*
X182540476Y-54157142D01*
X182588095Y-54061904D01*
X182588095Y-53966666D01*
X182540476Y-53871428D01*
X182492857Y-53823809D01*
X182397619Y-53776190D01*
X182207142Y-53728571D01*
X182111904Y-53680952D01*
X182064285Y-53633333D01*
X182016666Y-53538095D01*
X182016666Y-53442857D01*
X182064285Y-53347619D01*
X182111904Y-53300000D01*
X182207142Y-53252380D01*
X182445238Y-53252380D01*
X182588095Y-53300000D01*
X182921428Y-53252380D02*
X183159523Y-54252380D01*
X183350000Y-53538095D01*
X183540476Y-54252380D01*
X183778571Y-53252380D01*
X184683333Y-54252380D02*
X184111904Y-54252380D01*
X184397619Y-54252380D02*
X184397619Y-53252380D01*
X184302380Y-53395238D01*
X184207142Y-53490476D01*
X184111904Y-53538095D01*
%TO.C,U6*%
X177142857Y-80519642D02*
X177095238Y-80567261D01*
X176952380Y-80614880D01*
X176857142Y-80614880D01*
X176714285Y-80567261D01*
X176619047Y-80472023D01*
X176571428Y-80376785D01*
X176523809Y-80186309D01*
X176523809Y-80043452D01*
X176571428Y-79852976D01*
X176619047Y-79757738D01*
X176714285Y-79662500D01*
X176857142Y-79614880D01*
X176952380Y-79614880D01*
X177095238Y-79662500D01*
X177142857Y-79710119D01*
X177571428Y-80614880D02*
X177571428Y-79614880D01*
X178000000Y-80614880D02*
X178000000Y-80091071D01*
X177952380Y-79995833D01*
X177857142Y-79948214D01*
X177714285Y-79948214D01*
X177619047Y-79995833D01*
X177571428Y-80043452D01*
X178857142Y-80567261D02*
X178761904Y-80614880D01*
X178571428Y-80614880D01*
X178476190Y-80567261D01*
X178428571Y-80472023D01*
X178428571Y-80091071D01*
X178476190Y-79995833D01*
X178571428Y-79948214D01*
X178761904Y-79948214D01*
X178857142Y-79995833D01*
X178904761Y-80091071D01*
X178904761Y-80186309D01*
X178428571Y-80281547D01*
X179333333Y-80614880D02*
X179333333Y-79948214D01*
X179333333Y-80138690D02*
X179380952Y-80043452D01*
X179428571Y-79995833D01*
X179523809Y-79948214D01*
X179619047Y-79948214D01*
X179952380Y-80614880D02*
X179952380Y-79948214D01*
X179952380Y-80138690D02*
X180000000Y-80043452D01*
X180047619Y-79995833D01*
X180142857Y-79948214D01*
X180238095Y-79948214D01*
X180476190Y-79948214D02*
X180714285Y-80614880D01*
X180952380Y-79948214D02*
X180714285Y-80614880D01*
X180619047Y-80852976D01*
X180571428Y-80900595D01*
X180476190Y-80948214D01*
X181333333Y-80614880D02*
X181333333Y-79614880D01*
X181666666Y-80329166D01*
X182000000Y-79614880D01*
X182000000Y-80614880D01*
X182380952Y-79614880D02*
X183047619Y-80614880D01*
X183047619Y-79614880D02*
X182380952Y-80614880D01*
X183190476Y-80710119D02*
X183952380Y-80710119D01*
X184666666Y-80614880D02*
X184190476Y-80614880D01*
X184190476Y-79614880D01*
X185000000Y-80091071D02*
X185333333Y-80091071D01*
X185476190Y-80614880D02*
X185000000Y-80614880D01*
X185000000Y-79614880D01*
X185476190Y-79614880D01*
X185904761Y-80614880D02*
X185904761Y-79614880D01*
X186142857Y-79614880D01*
X186285714Y-79662500D01*
X186380952Y-79757738D01*
X186428571Y-79852976D01*
X186476190Y-80043452D01*
X186476190Y-80186309D01*
X186428571Y-80376785D01*
X186380952Y-80472023D01*
X186285714Y-80567261D01*
X186142857Y-80614880D01*
X185904761Y-80614880D01*
%TO.C,R4*%
X125783333Y-74272380D02*
X125211904Y-74272380D01*
X125497619Y-74272380D02*
X125497619Y-73272380D01*
X125402380Y-73415238D01*
X125307142Y-73510476D01*
X125211904Y-73558095D01*
X126688095Y-73272380D02*
X126211904Y-73272380D01*
X126164285Y-73748571D01*
X126211904Y-73700952D01*
X126307142Y-73653333D01*
X126545238Y-73653333D01*
X126640476Y-73700952D01*
X126688095Y-73748571D01*
X126735714Y-73843809D01*
X126735714Y-74081904D01*
X126688095Y-74177142D01*
X126640476Y-74224761D01*
X126545238Y-74272380D01*
X126307142Y-74272380D01*
X126211904Y-74224761D01*
X126164285Y-74177142D01*
X127354761Y-73272380D02*
X127450000Y-73272380D01*
X127545238Y-73320000D01*
X127592857Y-73367619D01*
X127640476Y-73462857D01*
X127688095Y-73653333D01*
X127688095Y-73891428D01*
X127640476Y-74081904D01*
X127592857Y-74177142D01*
X127545238Y-74224761D01*
X127450000Y-74272380D01*
X127354761Y-74272380D01*
X127259523Y-74224761D01*
X127211904Y-74177142D01*
X127164285Y-74081904D01*
X127116666Y-73891428D01*
X127116666Y-73653333D01*
X127164285Y-73462857D01*
X127211904Y-73367619D01*
X127259523Y-73320000D01*
X127354761Y-73272380D01*
X128688095Y-74272380D02*
X128354761Y-73796190D01*
X128116666Y-74272380D02*
X128116666Y-73272380D01*
X128497619Y-73272380D01*
X128592857Y-73320000D01*
X128640476Y-73367619D01*
X128688095Y-73462857D01*
X128688095Y-73605714D01*
X128640476Y-73700952D01*
X128592857Y-73748571D01*
X128497619Y-73796190D01*
X128116666Y-73796190D01*
D15*
X126816666Y-72361904D02*
X126550000Y-71980952D01*
X126359523Y-72361904D02*
X126359523Y-71561904D01*
X126664285Y-71561904D01*
X126740476Y-71600000D01*
X126778571Y-71638095D01*
X126816666Y-71714285D01*
X126816666Y-71828571D01*
X126778571Y-71904761D01*
X126740476Y-71942857D01*
X126664285Y-71980952D01*
X126359523Y-71980952D01*
X127502380Y-71828571D02*
X127502380Y-72361904D01*
X127311904Y-71523809D02*
X127121428Y-72095238D01*
X127616666Y-72095238D01*
D11*
%TO.C,R2*%
X125783333Y-87272380D02*
X125211904Y-87272380D01*
X125497619Y-87272380D02*
X125497619Y-86272380D01*
X125402380Y-86415238D01*
X125307142Y-86510476D01*
X125211904Y-86558095D01*
X126688095Y-86272380D02*
X126211904Y-86272380D01*
X126164285Y-86748571D01*
X126211904Y-86700952D01*
X126307142Y-86653333D01*
X126545238Y-86653333D01*
X126640476Y-86700952D01*
X126688095Y-86748571D01*
X126735714Y-86843809D01*
X126735714Y-87081904D01*
X126688095Y-87177142D01*
X126640476Y-87224761D01*
X126545238Y-87272380D01*
X126307142Y-87272380D01*
X126211904Y-87224761D01*
X126164285Y-87177142D01*
X127354761Y-86272380D02*
X127450000Y-86272380D01*
X127545238Y-86320000D01*
X127592857Y-86367619D01*
X127640476Y-86462857D01*
X127688095Y-86653333D01*
X127688095Y-86891428D01*
X127640476Y-87081904D01*
X127592857Y-87177142D01*
X127545238Y-87224761D01*
X127450000Y-87272380D01*
X127354761Y-87272380D01*
X127259523Y-87224761D01*
X127211904Y-87177142D01*
X127164285Y-87081904D01*
X127116666Y-86891428D01*
X127116666Y-86653333D01*
X127164285Y-86462857D01*
X127211904Y-86367619D01*
X127259523Y-86320000D01*
X127354761Y-86272380D01*
X128688095Y-87272380D02*
X128354761Y-86796190D01*
X128116666Y-87272380D02*
X128116666Y-86272380D01*
X128497619Y-86272380D01*
X128592857Y-86320000D01*
X128640476Y-86367619D01*
X128688095Y-86462857D01*
X128688095Y-86605714D01*
X128640476Y-86700952D01*
X128592857Y-86748571D01*
X128497619Y-86796190D01*
X128116666Y-86796190D01*
D15*
X126816666Y-85361904D02*
X126550000Y-84980952D01*
X126359523Y-85361904D02*
X126359523Y-84561904D01*
X126664285Y-84561904D01*
X126740476Y-84600000D01*
X126778571Y-84638095D01*
X126816666Y-84714285D01*
X126816666Y-84828571D01*
X126778571Y-84904761D01*
X126740476Y-84942857D01*
X126664285Y-84980952D01*
X126359523Y-84980952D01*
X127121428Y-84638095D02*
X127159523Y-84600000D01*
X127235714Y-84561904D01*
X127426190Y-84561904D01*
X127502380Y-84600000D01*
X127540476Y-84638095D01*
X127578571Y-84714285D01*
X127578571Y-84790476D01*
X127540476Y-84904761D01*
X127083333Y-85361904D01*
X127578571Y-85361904D01*
D11*
%TO.C,R6*%
X162333333Y-60272380D02*
X161761904Y-60272380D01*
X162047619Y-60272380D02*
X162047619Y-59272380D01*
X161952380Y-59415238D01*
X161857142Y-59510476D01*
X161761904Y-59558095D01*
X163238095Y-59272380D02*
X162761904Y-59272380D01*
X162714285Y-59748571D01*
X162761904Y-59700952D01*
X162857142Y-59653333D01*
X163095238Y-59653333D01*
X163190476Y-59700952D01*
X163238095Y-59748571D01*
X163285714Y-59843809D01*
X163285714Y-60081904D01*
X163238095Y-60177142D01*
X163190476Y-60224761D01*
X163095238Y-60272380D01*
X162857142Y-60272380D01*
X162761904Y-60224761D01*
X162714285Y-60177142D01*
X163904761Y-59272380D02*
X164000000Y-59272380D01*
X164095238Y-59320000D01*
X164142857Y-59367619D01*
X164190476Y-59462857D01*
X164238095Y-59653333D01*
X164238095Y-59891428D01*
X164190476Y-60081904D01*
X164142857Y-60177142D01*
X164095238Y-60224761D01*
X164000000Y-60272380D01*
X163904761Y-60272380D01*
X163809523Y-60224761D01*
X163761904Y-60177142D01*
X163714285Y-60081904D01*
X163666666Y-59891428D01*
X163666666Y-59653333D01*
X163714285Y-59462857D01*
X163761904Y-59367619D01*
X163809523Y-59320000D01*
X163904761Y-59272380D01*
X165238095Y-60272380D02*
X164904761Y-59796190D01*
X164666666Y-60272380D02*
X164666666Y-59272380D01*
X165047619Y-59272380D01*
X165142857Y-59320000D01*
X165190476Y-59367619D01*
X165238095Y-59462857D01*
X165238095Y-59605714D01*
X165190476Y-59700952D01*
X165142857Y-59748571D01*
X165047619Y-59796190D01*
X164666666Y-59796190D01*
D15*
X163366666Y-58361904D02*
X163100000Y-57980952D01*
X162909523Y-58361904D02*
X162909523Y-57561904D01*
X163214285Y-57561904D01*
X163290476Y-57600000D01*
X163328571Y-57638095D01*
X163366666Y-57714285D01*
X163366666Y-57828571D01*
X163328571Y-57904761D01*
X163290476Y-57942857D01*
X163214285Y-57980952D01*
X162909523Y-57980952D01*
X164052380Y-57561904D02*
X163900000Y-57561904D01*
X163823809Y-57600000D01*
X163785714Y-57638095D01*
X163709523Y-57752380D01*
X163671428Y-57904761D01*
X163671428Y-58209523D01*
X163709523Y-58285714D01*
X163747619Y-58323809D01*
X163823809Y-58361904D01*
X163976190Y-58361904D01*
X164052380Y-58323809D01*
X164090476Y-58285714D01*
X164128571Y-58209523D01*
X164128571Y-58019047D01*
X164090476Y-57942857D01*
X164052380Y-57904761D01*
X163976190Y-57866666D01*
X163823809Y-57866666D01*
X163747619Y-57904761D01*
X163709523Y-57942857D01*
X163671428Y-58019047D01*
D11*
%TO.C,R3*%
X125783333Y-80772380D02*
X125211904Y-80772380D01*
X125497619Y-80772380D02*
X125497619Y-79772380D01*
X125402380Y-79915238D01*
X125307142Y-80010476D01*
X125211904Y-80058095D01*
X126688095Y-79772380D02*
X126211904Y-79772380D01*
X126164285Y-80248571D01*
X126211904Y-80200952D01*
X126307142Y-80153333D01*
X126545238Y-80153333D01*
X126640476Y-80200952D01*
X126688095Y-80248571D01*
X126735714Y-80343809D01*
X126735714Y-80581904D01*
X126688095Y-80677142D01*
X126640476Y-80724761D01*
X126545238Y-80772380D01*
X126307142Y-80772380D01*
X126211904Y-80724761D01*
X126164285Y-80677142D01*
X127354761Y-79772380D02*
X127450000Y-79772380D01*
X127545238Y-79820000D01*
X127592857Y-79867619D01*
X127640476Y-79962857D01*
X127688095Y-80153333D01*
X127688095Y-80391428D01*
X127640476Y-80581904D01*
X127592857Y-80677142D01*
X127545238Y-80724761D01*
X127450000Y-80772380D01*
X127354761Y-80772380D01*
X127259523Y-80724761D01*
X127211904Y-80677142D01*
X127164285Y-80581904D01*
X127116666Y-80391428D01*
X127116666Y-80153333D01*
X127164285Y-79962857D01*
X127211904Y-79867619D01*
X127259523Y-79820000D01*
X127354761Y-79772380D01*
X128688095Y-80772380D02*
X128354761Y-80296190D01*
X128116666Y-80772380D02*
X128116666Y-79772380D01*
X128497619Y-79772380D01*
X128592857Y-79820000D01*
X128640476Y-79867619D01*
X128688095Y-79962857D01*
X128688095Y-80105714D01*
X128640476Y-80200952D01*
X128592857Y-80248571D01*
X128497619Y-80296190D01*
X128116666Y-80296190D01*
D15*
X126816666Y-78861904D02*
X126550000Y-78480952D01*
X126359523Y-78861904D02*
X126359523Y-78061904D01*
X126664285Y-78061904D01*
X126740476Y-78100000D01*
X126778571Y-78138095D01*
X126816666Y-78214285D01*
X126816666Y-78328571D01*
X126778571Y-78404761D01*
X126740476Y-78442857D01*
X126664285Y-78480952D01*
X126359523Y-78480952D01*
X127083333Y-78061904D02*
X127578571Y-78061904D01*
X127311904Y-78366666D01*
X127426190Y-78366666D01*
X127502380Y-78404761D01*
X127540476Y-78442857D01*
X127578571Y-78519047D01*
X127578571Y-78709523D01*
X127540476Y-78785714D01*
X127502380Y-78823809D01*
X127426190Y-78861904D01*
X127197619Y-78861904D01*
X127121428Y-78823809D01*
X127083333Y-78785714D01*
%TO.C,U4*%
X133700000Y-63700000D02*
X149300000Y-63700000D01*
X149300000Y-63700000D02*
X149300000Y-79300000D01*
X133700000Y-79300000D02*
X149300000Y-79300000D01*
X133700000Y-63700000D02*
X133700000Y-79300000D01*
%TO.C,U2*%
X153700000Y-84200000D02*
X169300000Y-84200000D01*
X153700000Y-84200000D02*
X153700000Y-99800000D01*
X153700000Y-99800000D02*
X169300000Y-99800000D01*
X169300000Y-84200000D02*
X169300000Y-99800000D01*
D10*
%TO.C,R8*%
X161950000Y-47800000D02*
X161950000Y-46200000D01*
X165150000Y-47800000D02*
X161950000Y-47800000D01*
X161950000Y-46200000D02*
X165150000Y-46200000D01*
X165150000Y-46200000D02*
X165150000Y-47800000D01*
D15*
%TO.C,U3*%
X189300000Y-84200000D02*
X189300000Y-99800000D01*
X173700000Y-84200000D02*
X173700000Y-99800000D01*
X173700000Y-84200000D02*
X189300000Y-84200000D01*
X173700000Y-99800000D02*
X189300000Y-99800000D01*
D10*
%TO.C,R1*%
X125350000Y-90700000D02*
X128550000Y-90700000D01*
X128550000Y-92300000D02*
X125350000Y-92300000D01*
X125350000Y-92300000D02*
X125350000Y-90700000D01*
X128550000Y-90700000D02*
X128550000Y-92300000D01*
%TO.C,R5*%
X125350000Y-64700000D02*
X128550000Y-64700000D01*
X128550000Y-66300000D02*
X125350000Y-66300000D01*
X125350000Y-66300000D02*
X125350000Y-64700000D01*
X128550000Y-64700000D02*
X128550000Y-66300000D01*
%TO.C,R9*%
X165100000Y-40700000D02*
X165100000Y-42300000D01*
X161900000Y-42300000D02*
X161900000Y-40700000D01*
X165100000Y-42300000D02*
X161900000Y-42300000D01*
X161900000Y-40700000D02*
X165100000Y-40700000D01*
D15*
%TO.C,U1*%
X149300000Y-84200000D02*
X149300000Y-99800000D01*
X133700000Y-99800000D02*
X149300000Y-99800000D01*
X133700000Y-84200000D02*
X149300000Y-84200000D01*
X133700000Y-84200000D02*
X133700000Y-99800000D01*
D10*
%TO.C,R7*%
X165100000Y-53300000D02*
X161900000Y-53300000D01*
X161900000Y-53300000D02*
X161900000Y-51700000D01*
X161900000Y-51700000D02*
X165100000Y-51700000D01*
X165100000Y-51700000D02*
X165100000Y-53300000D01*
D15*
%TO.C,U5*%
X153700000Y-63700000D02*
X169300000Y-63700000D01*
X169300000Y-63700000D02*
X169300000Y-79300000D01*
X153700000Y-79300000D02*
X169300000Y-79300000D01*
X153700000Y-63700000D02*
X153700000Y-79300000D01*
%TO.C,U8*%
X194700000Y-63700000D02*
X210300000Y-63700000D01*
X194700000Y-79300000D02*
X210300000Y-79300000D01*
X194700000Y-63700000D02*
X194700000Y-79300000D01*
X210300000Y-63700000D02*
X210300000Y-79300000D01*
%TO.C,U9*%
X194700000Y-84200000D02*
X194700000Y-99800000D01*
X194700000Y-99800000D02*
X210300000Y-99800000D01*
X210300000Y-84200000D02*
X210300000Y-99800000D01*
X194700000Y-84200000D02*
X210300000Y-84200000D01*
%TO.C,U7*%
X194700000Y-43200000D02*
X210300000Y-43200000D01*
X194700000Y-58800000D02*
X210300000Y-58800000D01*
X194700000Y-43200000D02*
X194700000Y-58800000D01*
X210300000Y-43200000D02*
X210300000Y-58800000D01*
%TO.C,SW1*%
X185750000Y-55800000D02*
X173750000Y-55800000D01*
X185750000Y-44200000D02*
X185750000Y-55800000D01*
X173750000Y-45300000D02*
X174750000Y-44200000D01*
X179750000Y-47000000D02*
X179750000Y-53000000D01*
X176750000Y-50000000D02*
X182750000Y-50000000D01*
X173750000Y-55800000D02*
X173750000Y-45300000D01*
X174750000Y-44200000D02*
X185750000Y-44200000D01*
X182750000Y-50000000D02*
G75*
G03*
X182750000Y-50000000I-3000000J0D01*
G01*
%TO.C,U6*%
X173700000Y-63700000D02*
X189300000Y-63700000D01*
X173700000Y-79300000D02*
X189300000Y-79300000D01*
X189300000Y-63700000D02*
X189300000Y-79300000D01*
X173700000Y-63700000D02*
X173700000Y-79300000D01*
D10*
%TO.C,R4*%
X128550000Y-71200000D02*
X128550000Y-72800000D01*
X125350000Y-72800000D02*
X125350000Y-71200000D01*
X128550000Y-72800000D02*
X125350000Y-72800000D01*
X125350000Y-71200000D02*
X128550000Y-71200000D01*
%TO.C,R2*%
X128550000Y-84200000D02*
X128550000Y-85800000D01*
X125350000Y-85800000D02*
X125350000Y-84200000D01*
X125350000Y-84200000D02*
X128550000Y-84200000D01*
X128550000Y-85800000D02*
X125350000Y-85800000D01*
%TO.C,R6*%
X165100000Y-57200000D02*
X165100000Y-58800000D01*
X161900000Y-57200000D02*
X165100000Y-57200000D01*
X165100000Y-58800000D02*
X161900000Y-58800000D01*
X161900000Y-58800000D02*
X161900000Y-57200000D01*
%TO.C,R3*%
X125350000Y-79300000D02*
X125350000Y-77700000D01*
X128550000Y-79300000D02*
X125350000Y-79300000D01*
X125350000Y-77700000D02*
X128550000Y-77700000D01*
X128550000Y-77700000D02*
X128550000Y-79300000D01*
%TD*%
%TO.C,U4*%
X137245000Y-71500000D02*
G75*
G03*
X137245000Y-71500000I-825000J0D01*
G01*
X147405000Y-71500000D02*
G75*
G03*
X147405000Y-71500000I-825000J0D01*
G01*
X143450000Y-71500000D02*
G75*
G03*
X143450000Y-71500000I-1950000J0D01*
G01*
X138740000Y-68960000D02*
G75*
G03*
X138740000Y-68960000I-1050000J0D01*
G01*
X145090000Y-66420000D02*
G75*
G03*
X145090000Y-66420000I-1050000J0D01*
G01*
X141025300Y-76580000D02*
G75*
G03*
X141025300Y-76580000I-795300J0D01*
G01*
X143565300Y-76580000D02*
G75*
G03*
X143565300Y-76580000I-795300J0D01*
G01*
%TD*%
%TO.C,U2*%
X163450000Y-92000000D02*
G75*
G03*
X163450000Y-92000000I-1950000J0D01*
G01*
X167405000Y-92000000D02*
G75*
G03*
X167405000Y-92000000I-825000J0D01*
G01*
X157245000Y-92000000D02*
G75*
G03*
X157245000Y-92000000I-825000J0D01*
G01*
X158740000Y-89460000D02*
G75*
G03*
X158740000Y-89460000I-1050000J0D01*
G01*
X165090000Y-86920000D02*
G75*
G03*
X165090000Y-86920000I-1050000J0D01*
G01*
X161025300Y-97080000D02*
G75*
G03*
X161025300Y-97080000I-795300J0D01*
G01*
X163565300Y-97080000D02*
G75*
G03*
X163565300Y-97080000I-795300J0D01*
G01*
%TD*%
D16*
%TO.C,R8*%
D10*
X162476161Y-46191128D02*
X162540729Y-46234271D01*
X162583872Y-46298839D01*
X162600000Y-46379923D01*
X162600000Y-47620077D01*
X162583872Y-47701161D01*
X162540729Y-47765729D01*
X162476161Y-47808872D01*
X162395077Y-47825000D01*
X161604923Y-47825000D01*
X161523839Y-47808872D01*
X161459271Y-47765729D01*
X161416128Y-47701161D01*
X161400000Y-47620077D01*
X161400000Y-46379923D01*
X161416128Y-46298839D01*
X161459271Y-46234271D01*
X161523839Y-46191128D01*
X161604923Y-46175000D01*
X162395077Y-46175000D01*
X162476161Y-46191128D01*
D16*
D10*
X165576161Y-46191128D02*
X165640729Y-46234271D01*
X165683872Y-46298839D01*
X165700000Y-46379923D01*
X165700000Y-47620077D01*
X165683872Y-47701161D01*
X165640729Y-47765729D01*
X165576161Y-47808872D01*
X165495077Y-47825000D01*
X164704923Y-47825000D01*
X164623839Y-47808872D01*
X164559271Y-47765729D01*
X164516128Y-47701161D01*
X164500000Y-47620077D01*
X164500000Y-46379923D01*
X164516128Y-46298839D01*
X164559271Y-46234271D01*
X164623839Y-46191128D01*
X164704923Y-46175000D01*
X165495077Y-46175000D01*
X165576161Y-46191128D01*
%TD*%
%TO.C,U3*%
X187405000Y-92000000D02*
G75*
G03*
X187405000Y-92000000I-825000J0D01*
G01*
X177245000Y-92000000D02*
G75*
G03*
X177245000Y-92000000I-825000J0D01*
G01*
X183450000Y-92000000D02*
G75*
G03*
X183450000Y-92000000I-1950000J0D01*
G01*
X178740000Y-89460000D02*
G75*
G03*
X178740000Y-89460000I-1050000J0D01*
G01*
X185090000Y-86920000D02*
G75*
G03*
X185090000Y-86920000I-1050000J0D01*
G01*
X181025300Y-97080000D02*
G75*
G03*
X181025300Y-97080000I-795300J0D01*
G01*
X183565300Y-97080000D02*
G75*
G03*
X183565300Y-97080000I-795300J0D01*
G01*
%TD*%
%TO.C,U10*%
X123780000Y-55870000D02*
X123780000Y-57370000D01*
X125280000Y-57370000D01*
X125280000Y-55870000D01*
X123780000Y-55870000D01*
X127820000Y-56620000D02*
G75*
G03*
X127820000Y-56620000I-750000J0D01*
G01*
X130360000Y-56620000D02*
G75*
G03*
X130360000Y-56620000I-750000J0D01*
G01*
X132900000Y-56620000D02*
G75*
G03*
X132900000Y-56620000I-750000J0D01*
G01*
X135440000Y-56620000D02*
G75*
G03*
X135440000Y-56620000I-750000J0D01*
G01*
X137980000Y-56620000D02*
G75*
G03*
X137980000Y-56620000I-750000J0D01*
G01*
X140520000Y-56620000D02*
G75*
G03*
X140520000Y-56620000I-750000J0D01*
G01*
X143060000Y-56620000D02*
G75*
G03*
X143060000Y-56620000I-750000J0D01*
G01*
X145600000Y-56620000D02*
G75*
G03*
X145600000Y-56620000I-750000J0D01*
G01*
X148140000Y-56620000D02*
G75*
G03*
X148140000Y-56620000I-750000J0D01*
G01*
X150680000Y-56620000D02*
G75*
G03*
X150680000Y-56620000I-750000J0D01*
G01*
X153220000Y-56620000D02*
G75*
G03*
X153220000Y-56620000I-750000J0D01*
G01*
X153220000Y-41380000D02*
G75*
G03*
X153220000Y-41380000I-750000J0D01*
G01*
X150680000Y-41380000D02*
G75*
G03*
X150680000Y-41380000I-750000J0D01*
G01*
X148140000Y-41380000D02*
G75*
G03*
X148140000Y-41380000I-750000J0D01*
G01*
X145600000Y-41380000D02*
G75*
G03*
X145600000Y-41380000I-750000J0D01*
G01*
X143060000Y-41380000D02*
G75*
G03*
X143060000Y-41380000I-750000J0D01*
G01*
X140520000Y-41380000D02*
G75*
G03*
X140520000Y-41380000I-750000J0D01*
G01*
X137980000Y-41380000D02*
G75*
G03*
X137980000Y-41380000I-750000J0D01*
G01*
X135440000Y-41380000D02*
G75*
G03*
X135440000Y-41380000I-750000J0D01*
G01*
X132900000Y-41380000D02*
G75*
G03*
X132900000Y-41380000I-750000J0D01*
G01*
X130360000Y-41380000D02*
G75*
G03*
X130360000Y-41380000I-750000J0D01*
G01*
X127820000Y-41380000D02*
G75*
G03*
X127820000Y-41380000I-750000J0D01*
G01*
X125280000Y-41380000D02*
G75*
G03*
X125280000Y-41380000I-750000J0D01*
G01*
%TD*%
D16*
%TO.C,R1*%
D10*
X125876161Y-90691128D02*
X125940729Y-90734271D01*
X125983872Y-90798839D01*
X126000000Y-90879923D01*
X126000000Y-92120077D01*
X125983872Y-92201161D01*
X125940729Y-92265729D01*
X125876161Y-92308872D01*
X125795077Y-92325000D01*
X125004923Y-92325000D01*
X124923839Y-92308872D01*
X124859271Y-92265729D01*
X124816128Y-92201161D01*
X124800000Y-92120077D01*
X124800000Y-90879923D01*
X124816128Y-90798839D01*
X124859271Y-90734271D01*
X124923839Y-90691128D01*
X125004923Y-90675000D01*
X125795077Y-90675000D01*
X125876161Y-90691128D01*
D16*
D10*
X128976161Y-90691128D02*
X129040729Y-90734271D01*
X129083872Y-90798839D01*
X129100000Y-90879923D01*
X129100000Y-92120077D01*
X129083872Y-92201161D01*
X129040729Y-92265729D01*
X128976161Y-92308872D01*
X128895077Y-92325000D01*
X128104923Y-92325000D01*
X128023839Y-92308872D01*
X127959271Y-92265729D01*
X127916128Y-92201161D01*
X127900000Y-92120077D01*
X127900000Y-90879923D01*
X127916128Y-90798839D01*
X127959271Y-90734271D01*
X128023839Y-90691128D01*
X128104923Y-90675000D01*
X128895077Y-90675000D01*
X128976161Y-90691128D01*
%TD*%
D16*
%TO.C,R5*%
D10*
X125876161Y-64691128D02*
X125940729Y-64734271D01*
X125983872Y-64798839D01*
X126000000Y-64879923D01*
X126000000Y-66120077D01*
X125983872Y-66201161D01*
X125940729Y-66265729D01*
X125876161Y-66308872D01*
X125795077Y-66325000D01*
X125004923Y-66325000D01*
X124923839Y-66308872D01*
X124859271Y-66265729D01*
X124816128Y-66201161D01*
X124800000Y-66120077D01*
X124800000Y-64879923D01*
X124816128Y-64798839D01*
X124859271Y-64734271D01*
X124923839Y-64691128D01*
X125004923Y-64675000D01*
X125795077Y-64675000D01*
X125876161Y-64691128D01*
D16*
D10*
X128976161Y-64691128D02*
X129040729Y-64734271D01*
X129083872Y-64798839D01*
X129100000Y-64879923D01*
X129100000Y-66120077D01*
X129083872Y-66201161D01*
X129040729Y-66265729D01*
X128976161Y-66308872D01*
X128895077Y-66325000D01*
X128104923Y-66325000D01*
X128023839Y-66308872D01*
X127959271Y-66265729D01*
X127916128Y-66201161D01*
X127900000Y-66120077D01*
X127900000Y-64879923D01*
X127916128Y-64798839D01*
X127959271Y-64734271D01*
X128023839Y-64691128D01*
X128104923Y-64675000D01*
X128895077Y-64675000D01*
X128976161Y-64691128D01*
%TD*%
D16*
%TO.C,R9*%
D10*
X162426161Y-40691128D02*
X162490729Y-40734271D01*
X162533872Y-40798839D01*
X162550000Y-40879923D01*
X162550000Y-42120077D01*
X162533872Y-42201161D01*
X162490729Y-42265729D01*
X162426161Y-42308872D01*
X162345077Y-42325000D01*
X161554923Y-42325000D01*
X161473839Y-42308872D01*
X161409271Y-42265729D01*
X161366128Y-42201161D01*
X161350000Y-42120077D01*
X161350000Y-40879923D01*
X161366128Y-40798839D01*
X161409271Y-40734271D01*
X161473839Y-40691128D01*
X161554923Y-40675000D01*
X162345077Y-40675000D01*
X162426161Y-40691128D01*
D16*
D10*
X165526161Y-40691128D02*
X165590729Y-40734271D01*
X165633872Y-40798839D01*
X165650000Y-40879923D01*
X165650000Y-42120077D01*
X165633872Y-42201161D01*
X165590729Y-42265729D01*
X165526161Y-42308872D01*
X165445077Y-42325000D01*
X164654923Y-42325000D01*
X164573839Y-42308872D01*
X164509271Y-42265729D01*
X164466128Y-42201161D01*
X164450000Y-42120077D01*
X164450000Y-40879923D01*
X164466128Y-40798839D01*
X164509271Y-40734271D01*
X164573839Y-40691128D01*
X164654923Y-40675000D01*
X165445077Y-40675000D01*
X165526161Y-40691128D01*
%TD*%
%TO.C,U1*%
X143450000Y-92000000D02*
G75*
G03*
X143450000Y-92000000I-1950000J0D01*
G01*
X147405000Y-92000000D02*
G75*
G03*
X147405000Y-92000000I-825000J0D01*
G01*
X137245000Y-92000000D02*
G75*
G03*
X137245000Y-92000000I-825000J0D01*
G01*
X138740000Y-89460000D02*
G75*
G03*
X138740000Y-89460000I-1050000J0D01*
G01*
X145090000Y-86920000D02*
G75*
G03*
X145090000Y-86920000I-1050000J0D01*
G01*
X141025300Y-97080000D02*
G75*
G03*
X141025300Y-97080000I-795300J0D01*
G01*
X143565300Y-97080000D02*
G75*
G03*
X143565300Y-97080000I-795300J0D01*
G01*
%TD*%
D16*
%TO.C,R7*%
D10*
X162426161Y-51691128D02*
X162490729Y-51734271D01*
X162533872Y-51798839D01*
X162550000Y-51879923D01*
X162550000Y-53120077D01*
X162533872Y-53201161D01*
X162490729Y-53265729D01*
X162426161Y-53308872D01*
X162345077Y-53325000D01*
X161554923Y-53325000D01*
X161473839Y-53308872D01*
X161409271Y-53265729D01*
X161366128Y-53201161D01*
X161350000Y-53120077D01*
X161350000Y-51879923D01*
X161366128Y-51798839D01*
X161409271Y-51734271D01*
X161473839Y-51691128D01*
X161554923Y-51675000D01*
X162345077Y-51675000D01*
X162426161Y-51691128D01*
D16*
D10*
X165526161Y-51691128D02*
X165590729Y-51734271D01*
X165633872Y-51798839D01*
X165650000Y-51879923D01*
X165650000Y-53120077D01*
X165633872Y-53201161D01*
X165590729Y-53265729D01*
X165526161Y-53308872D01*
X165445077Y-53325000D01*
X164654923Y-53325000D01*
X164573839Y-53308872D01*
X164509271Y-53265729D01*
X164466128Y-53201161D01*
X164450000Y-53120077D01*
X164450000Y-51879923D01*
X164466128Y-51798839D01*
X164509271Y-51734271D01*
X164573839Y-51691128D01*
X164654923Y-51675000D01*
X165445077Y-51675000D01*
X165526161Y-51691128D01*
%TD*%
%TO.C,U5*%
X167405000Y-71500000D02*
G75*
G03*
X167405000Y-71500000I-825000J0D01*
G01*
X163450000Y-71500000D02*
G75*
G03*
X163450000Y-71500000I-1950000J0D01*
G01*
X157245000Y-71500000D02*
G75*
G03*
X157245000Y-71500000I-825000J0D01*
G01*
X158740000Y-68960000D02*
G75*
G03*
X158740000Y-68960000I-1050000J0D01*
G01*
X165090000Y-66420000D02*
G75*
G03*
X165090000Y-66420000I-1050000J0D01*
G01*
X161025300Y-76580000D02*
G75*
G03*
X161025300Y-76580000I-795300J0D01*
G01*
X163565300Y-76580000D02*
G75*
G03*
X163565300Y-76580000I-795300J0D01*
G01*
%TD*%
%TO.C,U8*%
X198245000Y-71500000D02*
G75*
G03*
X198245000Y-71500000I-825000J0D01*
G01*
X204450000Y-71500000D02*
G75*
G03*
X204450000Y-71500000I-1950000J0D01*
G01*
X208405000Y-71500000D02*
G75*
G03*
X208405000Y-71500000I-825000J0D01*
G01*
X199740000Y-68960000D02*
G75*
G03*
X199740000Y-68960000I-1050000J0D01*
G01*
X206090000Y-66420000D02*
G75*
G03*
X206090000Y-66420000I-1050000J0D01*
G01*
X202025300Y-76580000D02*
G75*
G03*
X202025300Y-76580000I-795300J0D01*
G01*
X204565300Y-76580000D02*
G75*
G03*
X204565300Y-76580000I-795300J0D01*
G01*
%TD*%
%TO.C,U9*%
X204450000Y-92000000D02*
G75*
G03*
X204450000Y-92000000I-1950000J0D01*
G01*
X208405000Y-92000000D02*
G75*
G03*
X208405000Y-92000000I-825000J0D01*
G01*
X198245000Y-92000000D02*
G75*
G03*
X198245000Y-92000000I-825000J0D01*
G01*
X199740000Y-89460000D02*
G75*
G03*
X199740000Y-89460000I-1050000J0D01*
G01*
X206090000Y-86920000D02*
G75*
G03*
X206090000Y-86920000I-1050000J0D01*
G01*
X202025300Y-97080000D02*
G75*
G03*
X202025300Y-97080000I-795300J0D01*
G01*
X204565300Y-97080000D02*
G75*
G03*
X204565300Y-97080000I-795300J0D01*
G01*
%TD*%
%TO.C,U7*%
X204450000Y-51000000D02*
G75*
G03*
X204450000Y-51000000I-1950000J0D01*
G01*
X198245000Y-51000000D02*
G75*
G03*
X198245000Y-51000000I-825000J0D01*
G01*
X208405000Y-51000000D02*
G75*
G03*
X208405000Y-51000000I-825000J0D01*
G01*
X199740000Y-48460000D02*
G75*
G03*
X199740000Y-48460000I-1050000J0D01*
G01*
X206090000Y-45920000D02*
G75*
G03*
X206090000Y-45920000I-1050000J0D01*
G01*
X202025300Y-56080000D02*
G75*
G03*
X202025300Y-56080000I-795300J0D01*
G01*
X204565300Y-56080000D02*
G75*
G03*
X204565300Y-56080000I-795300J0D01*
G01*
%TD*%
%TO.C,SW1*%
X171300000Y-46550000D02*
X171300000Y-48450000D01*
X173200000Y-48450000D01*
X173200000Y-46550000D01*
X171300000Y-46550000D01*
X173200000Y-52500000D02*
G75*
G03*
X173200000Y-52500000I-950000J0D01*
G01*
X173200000Y-50000000D02*
G75*
G03*
X173200000Y-50000000I-950000J0D01*
G01*
X178200000Y-54650000D02*
X178200000Y-56550000D01*
X181300000Y-56550000D01*
X181300000Y-54650000D01*
X178200000Y-54650000D01*
X178200000Y-43450000D02*
X178200000Y-45350000D01*
X181300000Y-45350000D01*
X181300000Y-43450000D01*
X178200000Y-43450000D01*
X187700000Y-52500000D02*
G75*
G03*
X187700000Y-52500000I-950000J0D01*
G01*
X187700000Y-47500000D02*
G75*
G03*
X187700000Y-47500000I-950000J0D01*
G01*
%TD*%
%TO.C,U6*%
X177245000Y-71500000D02*
G75*
G03*
X177245000Y-71500000I-825000J0D01*
G01*
X187405000Y-71500000D02*
G75*
G03*
X187405000Y-71500000I-825000J0D01*
G01*
X183450000Y-71500000D02*
G75*
G03*
X183450000Y-71500000I-1950000J0D01*
G01*
X178740000Y-68960000D02*
G75*
G03*
X178740000Y-68960000I-1050000J0D01*
G01*
X185090000Y-66420000D02*
G75*
G03*
X185090000Y-66420000I-1050000J0D01*
G01*
X181025300Y-76580000D02*
G75*
G03*
X181025300Y-76580000I-795300J0D01*
G01*
X183565300Y-76580000D02*
G75*
G03*
X183565300Y-76580000I-795300J0D01*
G01*
%TD*%
D16*
%TO.C,R4*%
D10*
X125876161Y-71191128D02*
X125940729Y-71234271D01*
X125983872Y-71298839D01*
X126000000Y-71379923D01*
X126000000Y-72620077D01*
X125983872Y-72701161D01*
X125940729Y-72765729D01*
X125876161Y-72808872D01*
X125795077Y-72825000D01*
X125004923Y-72825000D01*
X124923839Y-72808872D01*
X124859271Y-72765729D01*
X124816128Y-72701161D01*
X124800000Y-72620077D01*
X124800000Y-71379923D01*
X124816128Y-71298839D01*
X124859271Y-71234271D01*
X124923839Y-71191128D01*
X125004923Y-71175000D01*
X125795077Y-71175000D01*
X125876161Y-71191128D01*
D16*
D10*
X128976161Y-71191128D02*
X129040729Y-71234271D01*
X129083872Y-71298839D01*
X129100000Y-71379923D01*
X129100000Y-72620077D01*
X129083872Y-72701161D01*
X129040729Y-72765729D01*
X128976161Y-72808872D01*
X128895077Y-72825000D01*
X128104923Y-72825000D01*
X128023839Y-72808872D01*
X127959271Y-72765729D01*
X127916128Y-72701161D01*
X127900000Y-72620077D01*
X127900000Y-71379923D01*
X127916128Y-71298839D01*
X127959271Y-71234271D01*
X128023839Y-71191128D01*
X128104923Y-71175000D01*
X128895077Y-71175000D01*
X128976161Y-71191128D01*
%TD*%
D16*
%TO.C,R2*%
D10*
X125876161Y-84191128D02*
X125940729Y-84234271D01*
X125983872Y-84298839D01*
X126000000Y-84379923D01*
X126000000Y-85620077D01*
X125983872Y-85701161D01*
X125940729Y-85765729D01*
X125876161Y-85808872D01*
X125795077Y-85825000D01*
X125004923Y-85825000D01*
X124923839Y-85808872D01*
X124859271Y-85765729D01*
X124816128Y-85701161D01*
X124800000Y-85620077D01*
X124800000Y-84379923D01*
X124816128Y-84298839D01*
X124859271Y-84234271D01*
X124923839Y-84191128D01*
X125004923Y-84175000D01*
X125795077Y-84175000D01*
X125876161Y-84191128D01*
D16*
D10*
X128976161Y-84191128D02*
X129040729Y-84234271D01*
X129083872Y-84298839D01*
X129100000Y-84379923D01*
X129100000Y-85620077D01*
X129083872Y-85701161D01*
X129040729Y-85765729D01*
X128976161Y-85808872D01*
X128895077Y-85825000D01*
X128104923Y-85825000D01*
X128023839Y-85808872D01*
X127959271Y-85765729D01*
X127916128Y-85701161D01*
X127900000Y-85620077D01*
X127900000Y-84379923D01*
X127916128Y-84298839D01*
X127959271Y-84234271D01*
X128023839Y-84191128D01*
X128104923Y-84175000D01*
X128895077Y-84175000D01*
X128976161Y-84191128D01*
%TD*%
D16*
%TO.C,R6*%
D10*
X162426161Y-57191128D02*
X162490729Y-57234271D01*
X162533872Y-57298839D01*
X162550000Y-57379923D01*
X162550000Y-58620077D01*
X162533872Y-58701161D01*
X162490729Y-58765729D01*
X162426161Y-58808872D01*
X162345077Y-58825000D01*
X161554923Y-58825000D01*
X161473839Y-58808872D01*
X161409271Y-58765729D01*
X161366128Y-58701161D01*
X161350000Y-58620077D01*
X161350000Y-57379923D01*
X161366128Y-57298839D01*
X161409271Y-57234271D01*
X161473839Y-57191128D01*
X161554923Y-57175000D01*
X162345077Y-57175000D01*
X162426161Y-57191128D01*
D16*
D10*
X165526161Y-57191128D02*
X165590729Y-57234271D01*
X165633872Y-57298839D01*
X165650000Y-57379923D01*
X165650000Y-58620077D01*
X165633872Y-58701161D01*
X165590729Y-58765729D01*
X165526161Y-58808872D01*
X165445077Y-58825000D01*
X164654923Y-58825000D01*
X164573839Y-58808872D01*
X164509271Y-58765729D01*
X164466128Y-58701161D01*
X164450000Y-58620077D01*
X164450000Y-57379923D01*
X164466128Y-57298839D01*
X164509271Y-57234271D01*
X164573839Y-57191128D01*
X164654923Y-57175000D01*
X165445077Y-57175000D01*
X165526161Y-57191128D01*
%TD*%
D16*
%TO.C,R3*%
D10*
X125876161Y-77691128D02*
X125940729Y-77734271D01*
X125983872Y-77798839D01*
X126000000Y-77879923D01*
X126000000Y-79120077D01*
X125983872Y-79201161D01*
X125940729Y-79265729D01*
X125876161Y-79308872D01*
X125795077Y-79325000D01*
X125004923Y-79325000D01*
X124923839Y-79308872D01*
X124859271Y-79265729D01*
X124816128Y-79201161D01*
X124800000Y-79120077D01*
X124800000Y-77879923D01*
X124816128Y-77798839D01*
X124859271Y-77734271D01*
X124923839Y-77691128D01*
X125004923Y-77675000D01*
X125795077Y-77675000D01*
X125876161Y-77691128D01*
D16*
D10*
X128976161Y-77691128D02*
X129040729Y-77734271D01*
X129083872Y-77798839D01*
X129100000Y-77879923D01*
X129100000Y-79120077D01*
X129083872Y-79201161D01*
X129040729Y-79265729D01*
X128976161Y-79308872D01*
X128895077Y-79325000D01*
X128104923Y-79325000D01*
X128023839Y-79308872D01*
X127959271Y-79265729D01*
X127916128Y-79201161D01*
X127900000Y-79120077D01*
X127900000Y-77879923D01*
X127916128Y-77798839D01*
X127959271Y-77734271D01*
X128023839Y-77691128D01*
X128104923Y-77675000D01*
X128895077Y-77675000D01*
X128976161Y-77691128D01*
%TD*%
M02*
